SplineFontDB: 3.0
FontName: Ambarisha-Regular
FullName: Ambarisha
FamilyName: Ambarisha
Weight: Regular
Copyright: Copyright (c) 2011 The Ambarisha Project Authors.
Version: 1.001
ItalicAngle: 0
UnderlinePosition: 0
UnderlineWidth: 0
Ascent: 750
Descent: 250
InvalidEm: 0
sfntRevision: 0x00010000
LayerCount: 4
Layer: 0 0 "Back" 1
Layer: 1 0 "Fore" 0
Layer: 2 0 "Back 2" 1
Layer: 3 0 "Back 3" 1
XUID: [1021 388 1842285019 11741363]
FSType: 0
OS2Version: 3
OS2_WeightWidthSlopeOnly: 0
OS2_UseTypoMetrics: 1
CreationTime: 1442932758
ModificationTime: 1448354147
PfmFamily: 17
TTFWeight: 400
TTFWidth: 5
LineGap: 0
VLineGap: 0
Panose: 2 0 0 0 0 0 0 0 0 0
OS2TypoAscent: 878
OS2TypoAOffset: 0
OS2TypoDescent: -698
OS2TypoDOffset: 0
OS2TypoLinegap: 0
OS2WinAscent: 878
OS2WinAOffset: 0
OS2WinDescent: 698
OS2WinDOffset: 0
HheadAscent: 878
HheadAOffset: 0
HheadDescent: -698
HheadDOffset: 0
OS2SubXSize: 650
OS2SubYSize: 600
OS2SubXOff: 0
OS2SubYOff: 75
OS2SupXSize: 650
OS2SupYSize: 600
OS2SupXOff: 0
OS2SupYOff: 350
OS2StrikeYSize: 0
OS2StrikeYPos: 237
OS2CapHeight: 539
OS2XHeight: 396
OS2Vendor: 'AAD '
OS2CodePages: 20000093.00000000
OS2UnicodeRanges: 00400000.00000000.00000000.00000000
Lookup: 4 0 0 "'rphf' Reph Form lookup 0" { "'rphf' Reph Form lookup 0 subtable"  } ['rphf' ('DFLT' <'dflt' > 'knd2' <'dflt' > 'knda' <'dflt' > ) ]
Lookup: 4 0 0 "'blwf' Below Base Forms in Kannada2 lookup 1" { "'blwf' Below Base Forms in Kannada2 lookup 1 subtable"  } ['blwf' ('DFLT' <'dflt' > 'knd2' <'dflt' > ) ]
Lookup: 4 0 0 "'blwf' Below Base Forms in Kannada lookup 2" { "'blwf' Below Base Forms in Kannada lookup 2 subtable"  } ['blwf' ('knda' <'dflt' > ) ]
Lookup: 4 0 0 "'pres' Pre Base Substitutions lookup 3" { "'pres' Pre Base Substitutions lookup 3 subtable"  } ['pres' ('DFLT' <'dflt' > 'knd2' <'dflt' > 'knda' <'dflt' > ) ]

StartChar: .notdef
Encoding: 65536 -1 0
Width: 756
Flags: MW
HStem: 7 66<196 521 238 521 238 554> 630 66<238 521 238 238>
VStem: 172 66<73 630 73 663 73 672> 521 66<73 630 630 630>
LayerCount: 4
Back
Fore
SplineSet
172 663 m 2
 172 681 187 696 205 696 c 2
 554 696 l 2
 572 696 587 681 587 663 c 2
 587 40 l 2
 587 22 572 7 554 7 c 2
 205 7 l 2
 187 7 172 22 172 40 c 2
 172 663 l 2
521 630 m 1
 238 630 l 1
 238 73 l 1
 521 73 l 1
 521 630 l 1
EndSplineSet
Validated: 1
Layer: 2
Layer: 3
EndChar

StartChar: Eth
Encoding: 208 208 1
Width: 617
Flags: HMW
LayerCount: 4
Back
Fore
SplineSet
128 -6 m 1
 118.666666667 -6 110.833333333 -2.83333333333 104.5 3.5 c 128
 98.1666666667 9.83333333333 95 17.6666666667 95 27 c 2
 95 241 l 1
 54 241 l 2
 44.6666666667 241 36.8333333333 244.166666667 30.5 250.5 c 128
 24.1666666667 256.833333333 21 264.666666667 21 274 c 256
 21 283.333333333 24.1666666667 291.166666667 30.5 297.5 c 128
 36.8333333333 303.833333333 44.6666666667 307 54 307 c 2
 95 307 l 1
 95 512 l 2
 95 521.333333333 98.1666666667 529.166666667 104.5 535.5 c 128
 110.833333333 541.833333333 118.666666667 545 128 545 c 2
 304 545 l 2
 338 545 370.666666667 538.333333333 402 525 c 128
 433.333333333 511.666666667 461 492.833333333 485 468.5 c 128
 509 444.166666667 528.166666667 415.166666667 542.5 381.5 c 128
 556.833333333 347.833333333 564 310.666666667 564 270 c 0
 564 231.333333333 557.833333333 195.166666667 545.5 161.5 c 128
 533.166666667 127.833333333 515.666666667 98.6666666667 493 74 c 128
 470.333333333 49.3333333333 443 29.8333333333 411 15.5 c 128
 379 1.16666666667 343.333333333 -6 304 -6 c 2
 128 -6 l 1
 128 -6 l 1
161 241 m 1
 161 60 l 1
 304 60 l 2
 334 60 360.833333333 65.5 384.5 76.5 c 128
 408.166666667 87.5 428.5 102.5 445.5 121.5 c 128
 462.5 140.5 475.5 162.833333333 484.5 188.5 c 128
 493.5 214.166666667 498 241.333333333 498 270 c 0
 498 300 492.833333333 327.833333333 482.5 353.5 c 128
 472.166666667 379.166666667 458 401.333333333 440 420 c 128
 422 438.666666667 401.333333333 453.166666667 378 463.5 c 128
 354.666666667 473.833333333 330 479 304 479 c 2
 161 479 l 1
 161 307 l 1
 300 307 l 2
 309.333333333 307 317.166666667 303.833333333 323.5 297.5 c 128
 329.833333333 291.166666667 333 283.333333333 333 274 c 256
 333 264.666666667 329.833333333 256.833333333 323.5 250.5 c 128
 317.166666667 244.166666667 309.333333333 241 300 241 c 2
 161 241 l 1
EndSplineSet
Validated: 5
Layer: 2
Layer: 3
EndChar

StartChar: eth
Encoding: 240 240 2
Width: 506
Flags: HMW
LayerCount: 4
Back
Fore
SplineSet
242 56 m 0
 286.666666667 56 321.166666667 70.6666666667 345.5 100 c 128
 369.833333333 129.333333333 382 169 382 219 c 0
 382 224.333333333 381.833333333 229.166666667 381.5 233.5 c 128
 381.166666667 237.833333333 380.666666667 242.666666667 380 248 c 1
 367.333333333 260 348.5 271.333333333 323.5 282 c 128
 298.5 292.666666667 271.666666667 298 243 298 c 0
 206.333333333 298 175.833333333 286.833333333 151.5 264.5 c 128
 127.166666667 242.166666667 115 212 115 174 c 0
 115 141.333333333 126.333333333 113.5 149 90.5 c 128
 171.666666667 67.5 202.666666667 56 242 56 c 0
242 -10 m 0
 211.333333333 -10 184 -5 160 5 c 128
 136 15 115.833333333 28.3333333333 99.5 45 c 128
 83.1666666667 61.6666666667 70.6666666667 81.1666666667 62 103.5 c 128
 53.3333333333 125.833333333 49 149.333333333 49 174 c 0
 49 202.666666667 53.8333333333 228.666666667 63.5 252 c 128
 73.1666666667 275.333333333 86.6666666667 295.333333333 104 312 c 128
 121.333333333 328.666666667 141.833333333 341.5 165.5 350.5 c 128
 189.166666667 359.5 215 364 243 364 c 0
 262.333333333 364 281.166666667 362 299.5 358 c 128
 317.833333333 354 335 348.333333333 351 341 c 1
 341.666666667 359 331.5 375.666666667 320.5 391 c 128
 309.5 406.333333333 297.666666667 420.333333333 285 433 c 2
 281 437 l 1
 207 403 l 2
 198.333333333 399 189.666666667 398.666666667 181 402 c 128
 172.333333333 405.333333333 166.333333333 411 163 419 c 0
 159.666666667 427.666666667 159.5 436.333333333 162.5 445 c 128
 165.5 453.666666667 171 459.666666667 179 463 c 2
 225 484 l 1
 209.666666667 495.333333333 194 505.666666667 178 515 c 0
 170.666666667 519.666666667 165.833333333 526.5 163.5 535.5 c 128
 161.166666667 544.5 162.333333333 552.666666667 167 560 c 256
 171.666666667 567.333333333 178.5 572.166666667 187.5 574.5 c 128
 196.5 576.833333333 204.666666667 575.666666667 212 571 c 0
 226.666666667 562.333333333 240.5 553.333333333 253.5 544 c 128
 266.5 534.666666667 279.333333333 524.666666667 292 514 c 1
 353 542 l 2
 361.666666667 546 370.333333333 546.333333333 379 543 c 128
 387.666666667 539.666666667 393.666666667 534 397 526 c 0
 400.333333333 517.333333333 400.5 508.666666667 397.5 500 c 128
 394.5 491.333333333 389 485.333333333 381 482 c 2
 344 465 l 1
 358 449.666666667 371.333333333 432.833333333 384 414.5 c 128
 396.666666667 396.166666667 407.666666667 376.5 417 355.5 c 128
 426.333333333 334.5 433.833333333 312.5 439.5 289.5 c 128
 445.166666667 266.5 448 243 448 219 c 0
 448 145.666666667 429.333333333 89.1666666667 392 49.5 c 128
 354.666666667 9.83333333333 304.666666667 -10 242 -10 c 0
EndSplineSet
Validated: 1
Layer: 2
Layer: 3
EndChar

StartChar: Lslash
Encoding: 321 321 3
Width: 479
Flags: HMW
LayerCount: 4
Back
Fore
SplineSet
132 -6 m 1
 128 -6 l 2
 118.666666667 -6 110.833333333 -2.83333333333 104.5 3.5 c 128
 98.1666666667 9.83333333333 95 17.6666666667 95 27 c 2
 95 196 l 1
 70 179 l 2
 62.6666666667 173.666666667 54.5 172.166666667 45.5 174.5 c 128
 36.5 176.833333333 29.3333333333 181.666666667 24 189 c 0
 19.3333333333 196.333333333 18 204.5 20 213.5 c 128
 22 222.5 26.6666666667 229.666666667 34 235 c 2
 95 275 l 1
 95 512 l 2
 95 521.333333333 98.1666666667 529.166666667 104.5 535.5 c 128
 110.833333333 541.833333333 118.666666667 545 128 545 c 256
 137.333333333 545 145.166666667 541.833333333 151.5 535.5 c 128
 157.833333333 529.166666667 161 521.333333333 161 512 c 2
 161 319 l 1
 249 377 l 2
 256.333333333 382.333333333 264.5 383.833333333 273.5 381.5 c 128
 282.5 379.166666667 289.666666667 374.333333333 295 367 c 0
 299.666666667 359.666666667 301 351.5 299 342.5 c 128
 297 333.5 292.333333333 326.333333333 285 321 c 2
 161 239 l 1
 161 60 l 1
 409 60 l 2
 418.333333333 60 426.166666667 56.8333333333 432.5 50.5 c 128
 438.833333333 44.1666666667 442 36.3333333333 442 27 c 256
 442 17.6666666667 438.833333333 9.83333333333 432.5 3.5 c 128
 426.166666667 -2.83333333333 418.333333333 -6 409 -6 c 2
 136 -6 l 1
 132 -6 l 1
EndSplineSet
Validated: 1
Layer: 2
Layer: 3
EndChar

StartChar: lslash
Encoding: 322 322 4
Width: 242
Flags: HMW
LayerCount: 4
Back
Fore
SplineSet
121 -6 m 256
 111.666666667 -6 103.833333333 -2.83333333333 97.5 3.5 c 128
 91.1666666667 9.83333333333 88 17.6666666667 88 27 c 2
 88 216 l 1
 65 202 l 2
 57.6666666667 197.333333333 49.5 196.166666667 40.5 198.5 c 128
 31.5 200.833333333 24.6666666667 205.666666667 20 213 c 256
 15.3333333333 220.333333333 14.1666666667 228.5 16.5 237.5 c 128
 18.8333333333 246.5 23.6666666667 253.333333333 31 258 c 2
 88 293 l 1
 88 538 l 2
 88 547.333333333 91.1666666667 555.166666667 97.5 561.5 c 128
 103.833333333 567.833333333 111.666666667 571 121 571 c 256
 130.333333333 571 138.166666667 567.833333333 144.5 561.5 c 128
 150.833333333 555.166666667 154 547.333333333 154 538 c 2
 154 334 l 1
 180 350 l 2
 187.333333333 354.666666667 195.5 355.833333333 204.5 353.5 c 128
 213.5 351.166666667 220.333333333 346.333333333 225 339 c 256
 229.666666667 331.666666667 230.833333333 323.5 228.5 314.5 c 128
 226.166666667 305.5 221.333333333 298.666666667 214 294 c 2
 154 257 l 1
 154 27 l 2
 154 17.6666666667 150.833333333 9.83333333333 144.5 3.5 c 128
 138.166666667 -2.83333333333 130.333333333 -6 121 -6 c 256
EndSplineSet
Validated: 1
Layer: 2
Layer: 3
EndChar

StartChar: Scaron
Encoding: 352 352 5
Width: 535
Flags: HMW
LayerCount: 4
Back
Fore
SplineSet
429 476 m 0
 425.666666667 467.333333333 419.666666667 461.166666667 411 457.5 c 128
 402.333333333 453.833333333 394 453.666666667 386 457 c 0
 364.666666667 465.666666667 344.166666667 472.5 324.5 477.5 c 128
 304.833333333 482.5 279.333333333 485 248 485 c 0
 218.666666667 485 194.166666667 478.166666667 174.5 464.5 c 128
 154.833333333 450.833333333 145 434 145 414 c 0
 145 404 147 394 151 384 c 128
 155 374 162 364.833333333 172 356.5 c 128
 182 348.166666667 195.333333333 340.333333333 212 333 c 128
 228.666666667 325.666666667 249.666666667 319.333333333 275 314 c 0
 313 306 344.166666667 296 368.5 284 c 128
 392.833333333 272 412.166666667 258.5 426.5 243.5 c 128
 440.833333333 228.5 450.833333333 212.166666667 456.5 194.5 c 128
 462.166666667 176.833333333 465 158.666666667 465 140 c 0
 465 120.666666667 461.5 101.666666667 454.5 83 c 128
 447.5 64.3333333333 436.333333333 47.8333333333 421 33.5 c 128
 405.666666667 19.1666666667 385.333333333 7.5 360 -1.5 c 128
 334.666666667 -10.5 304 -15 268 -15 c 0
 200.666666667 -15 139 0.666666666667 83 32 c 0
 75 36.6666666667 69.6666666667 43.5 67 52.5 c 128
 64.3333333333 61.5 65.3333333333 69.6666666667 70 77 c 0
 74.6666666667 85 81.5 90.3333333333 90.5 93 c 128
 99.5 95.6666666667 107.666666667 94.6666666667 115 90 c 0
 161.666666667 64 212.666666667 51 268 51 c 0
 310 51 342.333333333 59.5 365 76.5 c 128
 387.666666667 93.5 399 114.666666667 399 140 c 0
 399 166.666666667 388 189.333333333 366 208 c 128
 344 226.666666667 309.666666667 240.666666667 263 250 c 0
 221 258.666666667 187.833333333 269.333333333 163.5 282 c 128
 139.166666667 294.666666667 120.833333333 308.333333333 108.5 323 c 128
 96.1666666667 337.666666667 88.1666666667 352.833333333 84.5 368.5 c 128
 80.8333333333 384.166666667 79 399.333333333 79 414 c 0
 79 430.666666667 82.5 447.166666667 89.5 463.5 c 128
 96.5 479.833333333 107.166666667 494.5 121.5 507.5 c 128
 135.833333333 520.5 153.5 531 174.5 539 c 128
 195.5 547 220 551 248 551 c 0
 266.666666667 551 283.166666667 550.333333333 297.5 549 c 128
 311.833333333 547.666666667 325.333333333 545.5 338 542.5 c 128
 350.666666667 539.5 362.666666667 536 374 532 c 128
 385.333333333 528 397.333333333 523.666666667 410 519 c 0
 418.666666667 515.666666667 424.833333333 509.666666667 428.5 501 c 128
 432.166666667 492.333333333 432.333333333 484 429 476 c 0
282 631 m 0
 278.666666667 628.333333333 275.166666667 626.666666667 271.5 626 c 128
 267.833333333 625.333333333 264 625 260 625 c 256
 256 625 252 625.333333333 248 626 c 128
 244 626.666666667 240.333333333 628.333333333 237 631 c 0
 219.666666667 643 202.666666667 654.833333333 186 666.5 c 128
 169.333333333 678.166666667 154 689.666666667 140 701 c 0
 132.666666667 706.333333333 128.5 713.5 127.5 722.5 c 128
 126.5 731.5 128.666666667 739.666666667 134 747 c 256
 139.333333333 754.333333333 146.5 758.5 155.5 759.5 c 128
 164.5 760.5 172.666666667 758.333333333 180 753 c 0
 192 744.333333333 204.666666667 735.166666667 218 725.5 c 128
 231.333333333 715.833333333 245 706 259 696 c 1
 273 706 286.833333333 715.666666667 300.5 725 c 128
 314.166666667 734.333333333 327 743.666666667 339 753 c 0
 346.333333333 758.333333333 354.5 760.5 363.5 759.5 c 128
 372.5 758.5 379.666666667 754.333333333 385 747 c 256
 390.333333333 739.666666667 392.5 731.5 391.5 722.5 c 128
 390.5 713.5 386.333333333 706.333333333 379 701 c 0
 365 690.333333333 349.666666667 679 333 667 c 128
 316.333333333 655 299.333333333 643 282 631 c 0
EndSplineSet
Validated: 1
Layer: 2
Layer: 3
EndChar

StartChar: scaron
Encoding: 353 353 6
Width: 462
Flags: HMW
LayerCount: 4
Back
Fore
SplineSet
375 345 m 256
 372.333333333 336.333333333 367 329.666666667 359 325 c 128
 351 320.333333333 342.666666667 319.333333333 334 322 c 0
 320.666666667 326 305.5 329.333333333 288.5 332 c 128
 271.5 334.666666667 253.333333333 336 234 336 c 0
 206 336 183.166666667 331.666666667 165.5 323 c 128
 147.833333333 314.333333333 139 302.333333333 139 287 c 0
 139 273.666666667 147.5 263.333333333 164.5 256 c 128
 181.5 248.666666667 203 243.666666667 229 241 c 2
 269 237 l 2
 295.666666667 234.333333333 318 229 336 221 c 128
 354 213 368.333333333 203.333333333 379 192 c 128
 389.666666667 180.666666667 397.333333333 168.166666667 402 154.5 c 128
 406.666666667 140.833333333 409 127 409 113 c 256
 409 99 406.5 84.6666666667 401.5 70 c 128
 396.5 55.3333333333 387.666666667 42 375 30 c 128
 362.333333333 18 345.166666667 8.33333333333 323.5 1 c 128
 301.833333333 -6.33333333333 274 -10 240 -10 c 0
 214.666666667 -10 188.833333333 -7.5 162.5 -2.5 c 128
 136.166666667 2.5 111 10.3333333333 87 21 c 0
 79 24.3333333333 73.3333333333 30.3333333333 70 39 c 128
 66.6666666667 47.6666666667 66.6666666667 56 70 64 c 256
 73.3333333333 72 79.3333333333 77.6666666667 88 81 c 128
 96.6666666667 84.3333333333 105 84.3333333333 113 81 c 0
 133 72.3333333333 153.833333333 66 175.5 62 c 128
 197.166666667 58 218.666666667 56 240 56 c 0
 272 56 297.166666667 61.1666666667 315.5 71.5 c 128
 333.833333333 81.8333333333 343 95.6666666667 343 113 c 0
 343 129 335.833333333 142 321.5 152 c 128
 307.166666667 162 287.666666667 168.333333333 263 171 c 2
 223 175 l 2
 191 178.333333333 165.166666667 183.833333333 145.5 191.5 c 128
 125.833333333 199.166666667 110.666666667 208.166666667 100 218.5 c 128
 89.3333333333 228.833333333 82.1666666667 239.833333333 78.5 251.5 c 128
 74.8333333333 263.166666667 73 275 73 287 c 0
 73 299.666666667 75.3333333333 312.833333333 80 326.5 c 128
 84.6666666667 340.166666667 93 352.666666667 105 364 c 128
 117 375.333333333 133.333333333 384.5 154 391.5 c 128
 174.666666667 398.5 201.333333333 402 234 402 c 0
 256.666666667 402 278 400.333333333 298 397 c 128
 318 393.666666667 336 390 352 386 c 0
 360.666666667 383.333333333 367.333333333 378 372 370 c 128
 376.666666667 362 377.666666667 353.666666667 375 345 c 256
252 485 m 0
 245.333333333 478.333333333 236.666666667 475 226 475 c 256
 215.333333333 475 206.666666667 478.333333333 200 485 c 0
 188 497 173.666666667 511.166666667 157 527.5 c 128
 140.333333333 543.833333333 125.333333333 558.666666667 112 572 c 0
 105.333333333 578 102 585.5 102 594.5 c 128
 102 603.5 105.333333333 611.333333333 112 618 c 256
 118.666666667 624.666666667 126.5 628 135.5 628 c 128
 144.5 628 152 624.666666667 158 618 c 0
 168 608 179 597.166666667 191 585.5 c 128
 203 573.833333333 214.666666667 562.333333333 226 551 c 1
 237.333333333 561.666666667 249.166666667 573.166666667 261.5 585.5 c 128
 280 604 280 604 294 618 c 0
 300 624.666666667 307.5 628 316.5 628 c 128
 325.5 628 333.333333333 624.666666667 340 618 c 256
 346.666666667 611.333333333 350 603.5 350 594.5 c 128
 350 585.5 346.666666667 578 340 572 c 0
 330 562 330 562 318.5 550.5 c 128
 310.833333333 542.833333333 303 535.166666667 295 527.5 c 128
 287 519.833333333 279.333333333 512.333333333 272 505 c 128
 261 494 261 494 252 485 c 0
EndSplineSet
Validated: 1
Layer: 2
Layer: 3
EndChar

StartChar: Yacute
Encoding: 221 221 7
Width: 570
Flags: HMW
LayerCount: 4
Back
Fore
SplineSet
287 -6 m 256
 277.666666667 -6 269.833333333 -2.83333333333 263.5 3.5 c 128
 257.166666667 9.83333333333 254 17.6666666667 254 27 c 2
 254 192 l 1
 242 208 226.666666667 229.5 208 256.5 c 128
 189.333333333 283.5 170 311.833333333 150 341.5 c 128
 130 371.166666667 111 399.833333333 93 427.5 c 128
 75 455.166666667 61 477.666666667 51 495 c 0
 46.3333333333 502.333333333 45.1666666667 510.5 47.5 519.5 c 128
 49.8333333333 528.5 54.6666666667 535.333333333 62 540 c 256
 69.3333333333 544.666666667 77.5 545.833333333 86.5 543.5 c 128
 95.5 541.166666667 102.333333333 536.333333333 107 529 c 0
 115.666666667 514.333333333 127.5 495.333333333 142.5 472 c 128
 157.5 448.666666667 173.5 424.333333333 190.5 399 c 128
 207.5 373.666666667 224.5 348.5 241.5 323.5 c 128
 258.5 298.5 273.666666667 276.666666667 287 258 c 1
 301 278 316.333333333 300.5 333 325.5 c 128
 349.666666667 350.5 366.166666667 375.666666667 382.5 401 c 128
 398.833333333 426.333333333 414.166666667 450.333333333 428.5 473 c 128
 442.833333333 495.666666667 454.333333333 514.333333333 463 529 c 0
 467.666666667 536.333333333 474.5 541.166666667 483.5 543.5 c 128
 492.5 545.833333333 500.666666667 544.666666667 508 540 c 256
 515.333333333 535.333333333 520.166666667 528.5 522.5 519.5 c 128
 524.833333333 510.5 523.666666667 502.333333333 519 495 c 0
 509 478.333333333 495.5 456.666666667 478.5 430 c 128
 461.5 403.333333333 443.5 375.333333333 424.5 346 c 128
 405.5 316.666666667 386.666666667 288 368 260 c 128
 349.333333333 232 333.333333333 209 320 191 c 1
 320 27 l 2
 320 17.6666666667 316.833333333 9.83333333333 310.5 3.5 c 128
 304.166666667 -2.83333333333 296.333333333 -6 287 -6 c 256
439 716 m 0
 443.666666667 708 444.833333333 699.666666667 442.5 691 c 128
 440.166666667 682.333333333 435.333333333 675.666666667 428 671 c 0
 405.333333333 657.666666667 383.166666667 644 361.5 630 c 128
 339.833333333 616 321.666666667 603.666666667 307 593 c 0
 299.666666667 587.666666667 291.5 585.833333333 282.5 587.5 c 128
 273.5 589.166666667 266.333333333 593.666666667 261 601 c 256
 255.666666667 608.333333333 253.833333333 616.5 255.5 625.5 c 128
 257.166666667 634.5 261.666666667 641.666666667 269 647 c 0
 283.666666667 657.666666667 302.333333333 670.333333333 325 685 c 128
 347.666666667 699.666666667 370.666666667 713.666666667 394 727 c 0
 402 731.666666667 410.333333333 732.833333333 419 730.5 c 128
 427.666666667 728.166666667 434.333333333 723.333333333 439 716 c 0
EndSplineSet
Validated: 1
Layer: 2
Layer: 3
EndChar

StartChar: yacute
Encoding: 253 253 8
Width: 460
Flags: HMW
LayerCount: 4
Back
Fore
SplineSet
84 -176 m 0
 76.6666666667 -180 68.5 -180.833333333 59.5 -178.5 c 128
 50.5 -176.166666667 43.6666666667 -171 39 -163 c 0
 35 -155.666666667 34.1666666667 -147.5 36.5 -138.5 c 128
 38.8333333333 -129.5 44 -122.666666667 52 -118 c 0
 78.6666666667 -102.666666667 104.5 -84.5 129.5 -63.5 c 128
 154.5 -42.5 179 -13 203 25 c 1
 177.666666667 65 150.5 112.166666667 121.5 166.5 c 128
 92.5 220.833333333 65 285 39 359 c 0
 35.6666666667 367.666666667 36 376 40 384 c 128
 44 392 50.3333333333 397.666666667 59 401 c 256
 67.6666666667 404.333333333 76 404 84 400 c 128
 92 396 97.6666666667 389.666666667 101 381 c 0
 123 319 146.166666667 264.166666667 170.5 216.5 c 128
 194.833333333 168.833333333 218.333333333 126.666666667 241 90 c 1
 263 132.666666667 284.5 179.833333333 305.5 231.5 c 128
 326.5 283.166666667 344.333333333 332.333333333 359 379 c 0
 361.666666667 387.666666667 367 394.333333333 375 399 c 128
 383 403.666666667 391.666666667 404.333333333 401 401 c 0
 409.666666667 398.333333333 416.166666667 393 420.5 385 c 128
 424.833333333 377 425.666666667 368.333333333 423 359 c 0
 414.333333333 330.333333333 404.166666667 300.333333333 392.5 269 c 128
 380.833333333 237.666666667 368.333333333 206.833333333 355 176.5 c 128
 341.666666667 146.166666667 328 116.666666667 314 88 c 128
 300 59.3333333333 286 33.6666666667 272 11 c 0
 257.333333333 -14.3333333333 242.5 -36.5 227.5 -55.5 c 128
 212.5 -74.5 197.166666667 -91.3333333333 181.5 -106 c 128
 165.833333333 -120.666666667 149.833333333 -133.5 133.5 -144.5 c 128
 117.166666667 -155.5 100.666666667 -166 84 -176 c 0
324 615 m 256
 330.666666667 609 334 601.333333333 334 592 c 128
 334 582.666666667 331 574.666666667 325 568 c 0
 309 550.666666667 295.666666667 535.833333333 285 523.5 c 128
 274.333333333 511.166666667 264.333333333 497.333333333 255 482 c 0
 249.666666667 474.666666667 242.5 470 233.5 468 c 128
 224.5 466 216.333333333 467.333333333 209 472 c 0
 201.666666667 477.333333333 197 484.5 195 493.5 c 128
 193 502.5 194.333333333 510.666666667 199 518 c 0
 209.666666667 534 220.833333333 549.166666667 232.5 563.5 c 128
 244.166666667 577.833333333 259 594.666666667 277 614 c 0
 283 620.666666667 290.666666667 624 300 624 c 128
 309.333333333 624 317.333333333 621 324 615 c 256
EndSplineSet
Validated: 1
Layer: 2
Layer: 3
EndChar

StartChar: Thorn
Encoding: 222 222 9
Width: 515
Flags: HMW
LayerCount: 4
Back
Fore
SplineSet
161 385 m 1
 161 161 l 1
 265 161 l 2
 309 161 342.5 171.333333333 365.5 192 c 128
 388.5 212.666666667 400 239 400 271 c 0
 400 305.666666667 387.333333333 333.333333333 362 354 c 128
 336.666666667 374.666666667 304.333333333 385 265 385 c 2
 161 385 l 1
128 -6 m 256
 118.666666667 -6 110.833333333 -2.83333333333 104.5 3.5 c 128
 98.1666666667 9.83333333333 95 17.6666666667 95 27 c 2
 95 512 l 2
 95 521.333333333 98.1666666667 529.166666667 104.5 535.5 c 128
 110.833333333 541.833333333 118.666666667 545 128 545 c 256
 137.333333333 545 145.166666667 541.833333333 151.5 535.5 c 128
 157.833333333 529.166666667 161 521.333333333 161 512 c 2
 161 451 l 1
 265 451 l 2
 295.666666667 451 323.5 446.5 348.5 437.5 c 128
 373.5 428.5 394.666666667 416 412 400 c 128
 429.333333333 384 442.666666667 365 452 343 c 128
 461.333333333 321 466 297 466 271 c 0
 466 247.666666667 462 225.333333333 454 204 c 128
 446 182.666666667 433.833333333 164 417.5 148 c 128
 401.166666667 132 380.333333333 119.166666667 355 109.5 c 128
 329.666666667 99.8333333333 299.666666667 95 265 95 c 2
 161 95 l 1
 161 27 l 2
 161 17.6666666667 157.833333333 9.83333333333 151.5 3.5 c 128
 145.166666667 -2.83333333333 137.333333333 -6 128 -6 c 256
EndSplineSet
Validated: 1
Layer: 2
Layer: 3
EndChar

StartChar: thorn
Encoding: 254 254 10
Width: 513
Flags: HMW
LayerCount: 4
Back
Fore
SplineSet
148 -164 m 1
 148 -173.333333333 144.833333333 -181.166666667 138.5 -187.5 c 128
 132.166666667 -193.833333333 124.333333333 -197 115 -197 c 256
 105.666666667 -197 97.8333333333 -193.833333333 91.5 -187.5 c 128
 85.1666666667 -181.166666667 82 -173.333333333 82 -164 c 2
 82 537 l 2
 82 546.333333333 85.1666666667 554.166666667 91.5 560.5 c 128
 97.8333333333 566.833333333 105.666666667 570 115 570 c 256
 124.333333333 570 132.166666667 566.833333333 138.5 560.5 c 128
 144.833333333 554.166666667 148 546.333333333 148 537 c 2
 148 347 l 1
 168 364.333333333 189.166666667 377.833333333 211.5 387.5 c 128
 233.833333333 397.166666667 257.333333333 402 282 402 c 0
 306 402 329.333333333 397.666666667 352 389 c 128
 374.666666667 380.333333333 394.5 367.5 411.5 350.5 c 128
 428.5 333.5 442.166666667 312.333333333 452.5 287 c 128
 462.833333333 261.666666667 468 232 468 198 c 0
 468 168.666666667 463.166666667 141.666666667 453.5 117 c 128
 443.833333333 92.3333333333 430.333333333 70.8333333333 413 52.5 c 128
 395.666666667 34.1666666667 374.833333333 19.8333333333 350.5 9.5 c 128
 326.166666667 -0.833333333333 299.333333333 -6 270 -6 c 0
 249.333333333 -6 228.666666667 -3 208 3 c 128
 187.333333333 9 167.333333333 17.3333333333 148 28 c 1
 148 -164 l 1
 148 -164 l 1
270 60 m 0
 290 60 308 63.5 324 70.5 c 128
 340 77.5 353.833333333 87.1666666667 365.5 99.5 c 128
 377.166666667 111.833333333 386.166666667 126.5 392.5 143.5 c 128
 398.833333333 160.5 402 178.666666667 402 198 c 0
 402 220 398.833333333 239.5 392.5 256.5 c 128
 386.166666667 273.5 377.5 287.833333333 366.5 299.5 c 128
 355.5 311.166666667 342.666666667 320.166666667 328 326.5 c 128
 313.333333333 332.833333333 298 336 282 336 c 0
 255.333333333 336 231 328 209 312 c 128
 187 296 166.666666667 275.333333333 148 250 c 1
 148 107 l 1
 166.666666667 93.6666666667 186.333333333 82.5 207 73.5 c 128
 227.666666667 64.5 248.666666667 60 270 60 c 0
EndSplineSet
Validated: 5
Layer: 2
Layer: 3
EndChar

StartChar: Zcaron
Encoding: 381 381 11
Width: 577
Flags: HMW
LayerCount: 4
Back
Fore
SplineSet
98 -6 m 1
 88.6666666667 -6 80.8333333333 -2.83333333333 74.5 3.5 c 128
 68.1666666667 9.83333333333 65 17.6666666667 65 27 c 0
 65 33.6666666667 67 39.6666666667 71 45 c 0
 71 46.3333333333 71.3333333333 47.6666666667 72 49 c 128
 73 51 73 51 74 53 c 0
 81.3333333333 64.3333333333 92.6666666667 80 108 100 c 128
 123.333333333 120 140.666666667 142.333333333 160 167 c 128
 179.333333333 191.666666667 200.166666667 217.833333333 222.5 245.5 c 128
 244.833333333 273.166666667 267 301 289 329 c 128
 311 357 332.166666667 383.833333333 352.5 409.5 c 128
 372.833333333 435.166666667 390.666666667 458.333333333 406 479 c 1
 111 479 l 2
 101.666666667 479 93.8333333333 482.166666667 87.5 488.5 c 128
 81.1666666667 494.833333333 78 502.666666667 78 512 c 256
 78 521.333333333 81.1666666667 529.166666667 87.5 535.5 c 128
 93.8333333333 541.833333333 101.666666667 545 111 545 c 2
 460 545 l 2
 462.666666667 545 464.666666667 544.666666667 466 544 c 0
 473.333333333 546 481 544.666666667 489 540 c 0
 496.333333333 534.666666667 501.166666667 527.5 503.5 518.5 c 128
 505.833333333 509.5 504.333333333 501.333333333 499 494 c 0
 489.666666667 480 477 462.333333333 461 441 c 128
 445 419.666666667 426.833333333 396.166666667 406.5 370.5 c 128
 386.166666667 344.833333333 364.666666667 317.833333333 342 289.5 c 128
 319.333333333 261.166666667 297 233.166666667 275 205.5 c 128
 253 177.833333333 232 151.5 212 126.5 c 128
 192 101.5 175 79.3333333333 161 60 c 1
 483 60 l 2
 492.333333333 60 500.166666667 56.8333333333 506.5 50.5 c 128
 512.833333333 44.1666666667 516 36.3333333333 516 27 c 256
 516 17.6666666667 512.833333333 9.83333333333 506.5 3.5 c 128
 500.166666667 -2.83333333333 492.333333333 -6 483 -6 c 2
 98 -6 l 1
 98 -6 l 1
313 631 m 0
 309.666666667 628.333333333 306.166666667 626.666666667 302.5 626 c 128
 298.833333333 625.333333333 295 625 291 625 c 256
 287 625 283 625.333333333 279 626 c 128
 275 626.666666667 271.333333333 628.333333333 268 631 c 0
 250.666666667 643 233.666666667 654.833333333 217 666.5 c 128
 200.333333333 678.166666667 185 689.666666667 171 701 c 0
 163.666666667 706.333333333 159.5 713.5 158.5 722.5 c 128
 157.5 731.5 159.666666667 739.666666667 165 747 c 256
 170.333333333 754.333333333 177.5 758.5 186.5 759.5 c 128
 195.5 760.5 203.666666667 758.333333333 211 753 c 0
 223 744.333333333 235.666666667 735.166666667 249 725.5 c 128
 262.333333333 715.833333333 276 706 290 696 c 1
 304 706 317.833333333 715.666666667 331.5 725 c 128
 345.166666667 734.333333333 358 743.666666667 370 753 c 0
 377.333333333 758.333333333 385.5 760.5 394.5 759.5 c 128
 403.5 758.5 410.666666667 754.333333333 416 747 c 256
 421.333333333 739.666666667 423.5 731.5 422.5 722.5 c 128
 421.5 713.5 417.333333333 706.333333333 410 701 c 0
 396 690.333333333 380.666666667 679 364 667 c 128
 347.333333333 655 330.333333333 643 313 631 c 0
EndSplineSet
Validated: 5
Layer: 2
Layer: 3
EndChar

StartChar: zcaron
Encoding: 382 382 12
Width: 454
Flags: HMW
LayerCount: 4
Back
Fore
SplineSet
76 -6 m 1
 66.6666666667 -6 58.8333333333 -2.83333333333 52.5 3.5 c 128
 46.1666666667 9.83333333333 43 17.6666666667 43 27 c 256
 43 36.3333333333 46.3333333333 44.3333333333 53 51 c 0
 53.6666666667 52.3333333333 54.3333333333 53.1666666667 55 53.5 c 128
 55.6666666667 53.8333333333 56.3333333333 54.6666666667 57 56 c 2
 295 336 l 1
 91 336 l 2
 81.6666666667 336 73.8333333333 339.166666667 67.5 345.5 c 128
 61.1666666667 351.833333333 58 359.666666667 58 369 c 256
 58 378.333333333 61.1666666667 386.166666667 67.5 392.5 c 128
 73.8333333333 398.833333333 81.6666666667 402 91 402 c 2
 360 402 l 1
 363 402 l 2
 373.666666667 402 381.666666667 399.333333333 387 394 c 0
 394.333333333 388.666666667 398.166666667 381.333333333 398.5 372 c 128
 398.833333333 362.666666667 396.333333333 354.666666667 391 348 c 2
 146 60 l 1
 377 60 l 2
 386.333333333 60 394.166666667 56.8333333333 400.5 50.5 c 128
 406.833333333 44.1666666667 410 36.3333333333 410 27 c 256
 410 17.6666666667 406.833333333 9.83333333333 400.5 3.5 c 128
 394.166666667 -2.83333333333 386.333333333 -6 377 -6 c 2
 76 -6 l 1
 76 -6 l 1
246 485 m 0
 239.333333333 478.333333333 230.666666667 475 220 475 c 256
 209.333333333 475 200.666666667 478.333333333 194 485 c 0
 182 497 167.666666667 511.166666667 151 527.5 c 128
 134.333333333 543.833333333 119.333333333 558.666666667 106 572 c 0
 99.3333333333 578 96 585.5 96 594.5 c 128
 96 603.5 99.3333333333 611.333333333 106 618 c 256
 112.666666667 624.666666667 120.5 628 129.5 628 c 128
 138.5 628 146 624.666666667 152 618 c 0
 162 608 173 597.166666667 185 585.5 c 128
 197 573.833333333 208.666666667 562.333333333 220 551 c 1
 231.333333333 561.666666667 243.166666667 573.166666667 255.5 585.5 c 128
 274 604 274 604 288 618 c 0
 294 624.666666667 301.5 628 310.5 628 c 128
 319.5 628 327.333333333 624.666666667 334 618 c 256
 340.666666667 611.333333333 344 603.5 344 594.5 c 128
 344 585.5 340.666666667 578 334 572 c 0
 324 562 324 562 312.5 550.5 c 128
 304.833333333 542.833333333 297 535.166666667 289 527.5 c 128
 281 519.833333333 273.333333333 512.333333333 266 505 c 128
 255 494 255 494 246 485 c 0
EndSplineSet
Validated: 5
Layer: 2
Layer: 3
EndChar

StartChar: onehalf
Encoding: 189 189 13
Width: 790
Flags: HMW
LayerCount: 4
Back
Fore
SplineSet
471 -6 m 1
 461.666666667 -6 453.833333333 -2.83333333333 447.5 3.5 c 128
 441.166666667 9.83333333333 438 17.6666666667 438 27 c 0
 438 37 441.666666667 45 449 51 c 0
 449.666666667 52.3333333333 451 54 453 56 c 2
 542 139 l 2
 565.333333333 160.333333333 582.166666667 176.5 592.5 187.5 c 128
 602.833333333 198.5 608 210.666666667 608 224 c 0
 608 232.666666667 603.833333333 239.166666667 595.5 243.5 c 128
 587.166666667 247.833333333 577.333333333 250 566 250 c 0
 545.333333333 250 525.666666667 243.666666667 507 231 c 0
 499.666666667 225.666666667 491.5 224.166666667 482.5 226.5 c 128
 473.5 228.833333333 466.333333333 233.666666667 461 241 c 0
 456.333333333 248.333333333 455 256.5 457 265.5 c 128
 459 274.5 463.666666667 281.666666667 471 287 c 0
 486.333333333 296.333333333 501.5 303.5 516.5 308.5 c 128
 531.5 313.5 548 316 566 316 c 0
 586 316 602.833333333 313.166666667 616.5 307.5 c 128
 630.166666667 301.833333333 641.333333333 294.666666667 650 286 c 128
 658.666666667 277.333333333 664.833333333 267.5 668.5 256.5 c 128
 672.166666667 245.5 674 234.666666667 674 224 c 0
 674 214 672.833333333 204.666666667 670.5 196 c 128
 668.166666667 187.333333333 663.833333333 178 657.5 168 c 128
 651.166666667 158 642.5 146.833333333 631.5 134.5 c 128
 620.5 122.166666667 606 107.666666667 588 91 c 2
 555 60 l 1
 660 60 l 2
 669.333333333 60 677.166666667 56.8333333333 683.5 50.5 c 128
 689.833333333 44.1666666667 693 36.3333333333 693 27 c 256
 693 17.6666666667 689.833333333 9.83333333333 683.5 3.5 c 128
 677.166666667 -2.83333333333 669.333333333 -6 660 -6 c 2
 471 -6 l 1
 471 -6 l 1
514 541 m 0
 521.333333333 537 526.333333333 530.166666667 529 520.5 c 128
 531.666666667 510.833333333 530.666666667 502.333333333 526 495 c 2
 243 10 l 2
 238.333333333 2.66666666667 231.5 -2.33333333333 222.5 -5 c 128
 213.5 -7.66666666667 205 -6.66666666667 197 -2 c 0
 189.666666667 2 184.666666667 8.83333333333 182 18.5 c 128
 179.333333333 28.1666666667 180.333333333 36.6666666667 185 44 c 2
 468 529 l 2
 472.666666667 536.333333333 479.5 541.333333333 488.5 544 c 128
 497.5 546.666666667 506 545.666666667 514 541 c 0
207 228 m 256
 197.666666667 228 189.833333333 231.166666667 183.5 237.5 c 128
 177.166666667 243.833333333 174 251.666666667 174 261 c 2
 174 467 l 1
 141 449 l 2
 133 444.333333333 124.5 443.5 115.5 446.5 c 128
 106.5 449.5 100 454.666666667 96 462 c 0
 91.3333333333 470 90.5 478.5 93.5 487.5 c 128
 96.5 496.5 101.666666667 503 109 507 c 2
 191 551 l 2
 199 555.666666667 207.5 556.5 216.5 553.5 c 128
 225.5 550.5 232 545.333333333 236 538 c 0
 238.666666667 532.666666667 240 527 240 521 c 2
 240 519 l 1
 240 261 l 2
 240 251.666666667 236.833333333 243.833333333 230.5 237.5 c 128
 224.166666667 231.166666667 216.333333333 228 207 228 c 256
EndSplineSet
Validated: 5
Layer: 2
Layer: 3
EndChar

StartChar: onequarter
Encoding: 188 188 14
Width: 724
Flags: HMW
LayerCount: 4
Back
Fore
SplineSet
527 199 m 1
 473 136 l 1
 527 136 l 1
 527 199 l 1
560 -5 m 256
 550.666666667 -5 542.833333333 -1.83333333333 536.5 4.5 c 128
 530.166666667 10.8333333333 527 18.6666666667 527 28 c 2
 527 70 l 1
 407 70 l 1
 404 70 l 2
 400 70 396 70.5 392 71.5 c 128
 388 72.5 384.333333333 74.6666666667 381 78 c 0
 373.666666667 84 369.666666667 91.5 369 100.5 c 128
 368.333333333 109.5 371 117.333333333 377 124 c 2
 531 304 l 1
 532 305 l 1
 538.666666667 315.666666667 548 321 560 321 c 0
 569.333333333 321 577.166666667 317.833333333 583.5 311.5 c 128
 589.833333333 305.166666667 593 297.333333333 593 288 c 2
 593 136 l 1
 622 136 l 2
 631.333333333 136 639.166666667 132.833333333 645.5 126.5 c 128
 651.833333333 120.166666667 655 112.333333333 655 103 c 256
 655 93.6666666667 651.833333333 85.8333333333 645.5 79.5 c 128
 639.166666667 73.1666666667 631.333333333 70 622 70 c 2
 593 70 l 1
 593 28 l 2
 593 18.6666666667 589.833333333 10.8333333333 583.5 4.5 c 128
 577.166666667 -1.83333333333 569.333333333 -5 560 -5 c 256
514 541 m 0
 521.333333333 537 526.333333333 530.166666667 529 520.5 c 128
 531.666666667 510.833333333 530.666666667 502.333333333 526 495 c 2
 243 10 l 2
 238.333333333 2.66666666667 231.5 -2.33333333333 222.5 -5 c 128
 213.5 -7.66666666667 205 -6.66666666667 197 -2 c 0
 189.666666667 2 184.666666667 8.83333333333 182 18.5 c 128
 179.333333333 28.1666666667 180.333333333 36.6666666667 185 44 c 2
 468 529 l 2
 472.666666667 536.333333333 479.5 541.333333333 488.5 544 c 128
 497.5 546.666666667 506 545.666666667 514 541 c 0
207 228 m 256
 197.666666667 228 189.833333333 231.166666667 183.5 237.5 c 128
 177.166666667 243.833333333 174 251.666666667 174 261 c 2
 174 467 l 1
 141 449 l 2
 133 444.333333333 124.5 443.5 115.5 446.5 c 128
 106.5 449.5 100 454.666666667 96 462 c 0
 91.3333333333 470 90.5 478.5 93.5 487.5 c 128
 96.5 496.5 101.666666667 503 109 507 c 2
 191 551 l 2
 199 555.666666667 207.5 556.5 216.5 553.5 c 128
 225.5 550.5 232 545.333333333 236 538 c 0
 238.666666667 532.666666667 240 527 240 521 c 2
 240 519 l 1
 240 261 l 2
 240 251.666666667 236.833333333 243.833333333 230.5 237.5 c 128
 224.166666667 231.166666667 216.333333333 228 207 228 c 256
EndSplineSet
Validated: 1
Layer: 2
Layer: 3
EndChar

StartChar: onesuperior
Encoding: 185 185 15
Width: 242
Flags: HMW
LayerCount: 4
Back
Fore
SplineSet
144 228 m 256
 134.666666667 228 126.833333333 231.166666667 120.5 237.5 c 128
 114.166666667 243.833333333 111 251.666666667 111 261 c 2
 111 467 l 1
 78 449 l 2
 70 444.333333333 61.5 443.5 52.5 446.5 c 128
 43.5 449.5 37 454.666666667 33 462 c 0
 28.3333333333 470 27.5 478.5 30.5 487.5 c 128
 33.5 496.5 38.6666666667 503 46 507 c 2
 128 551 l 2
 136 555.666666667 144.5 556.5 153.5 553.5 c 128
 162.5 550.5 169 545.333333333 173 538 c 0
 175.666666667 532.666666667 177 527 177 521 c 2
 177 519 l 1
 177 261 l 2
 177 251.666666667 173.833333333 243.833333333 167.5 237.5 c 128
 161.166666667 231.166666667 153.333333333 228 144 228 c 256
EndSplineSet
Validated: 1
Layer: 2
Layer: 3
EndChar

StartChar: threequarters
Encoding: 190 190 16
Width: 836
Flags: HMW
LayerCount: 4
Back
Fore
SplineSet
621 199 m 1
 567 136 l 1
 621 136 l 1
 621 199 l 1
222 218 m 0
 201.333333333 218 182.333333333 219.666666667 165 223 c 128
 147.666666667 226.333333333 132.333333333 230.666666667 119 236 c 0
 111 239.333333333 105 245.166666667 101 253.5 c 128
 97 261.833333333 96.6666666667 270.333333333 100 279 c 0
 103.333333333 287 109.166666667 293 117.5 297 c 128
 125.833333333 301 134.333333333 301.333333333 143 298 c 0
 153.666666667 294 165.666666667 290.666666667 179 288 c 128
 192.333333333 285.333333333 206.666666667 284 222 284 c 0
 240 284 255.666666667 287.166666667 269 293.5 c 128
 282.333333333 299.833333333 289 309.666666667 289 323 c 256
 289 336.333333333 282.833333333 345.833333333 270.5 351.5 c 128
 258.166666667 357.166666667 244.333333333 360 229 360 c 0
 217.666666667 360 207.5 359.333333333 198.5 358 c 128
 189.5 356.666666667 182.333333333 355.333333333 177 354 c 0
 169 350.666666667 160.833333333 351.166666667 152.5 355.5 c 128
 144.166666667 359.833333333 138.666666667 366.333333333 136 375 c 0
 134 380.333333333 133.5 385.5 134.5 390.5 c 128
 135.5 395.5 137.666666667 400.333333333 141 405 c 0
 142.333333333 407 144.333333333 409.333333333 147 412 c 2
 224 479 l 1
 141 479 l 2
 131.666666667 479 123.833333333 482.166666667 117.5 488.5 c 128
 111.166666667 494.833333333 108 502.666666667 108 512 c 256
 108 521.333333333 111.166666667 529.166666667 117.5 535.5 c 128
 123.833333333 541.833333333 131.666666667 545 141 545 c 2
 313 545 l 2
 322.333333333 545 330.166666667 541.833333333 336.5 535.5 c 128
 342.833333333 529.166666667 346 521.333333333 346 512 c 0
 346 500 341.333333333 491 332 485 c 2
 330 483 l 1
 262 423 l 1
 294 417.666666667 317.5 405.833333333 332.5 387.5 c 128
 347.5 369.166666667 355 347.666666667 355 323 c 0
 355 309 352.666666667 295.666666667 348 283 c 128
 343.333333333 270.333333333 335.666666667 259.166666667 325 249.5 c 128
 314.333333333 239.833333333 300.666666667 232.166666667 284 226.5 c 128
 267.333333333 220.833333333 246.666666667 218 222 218 c 0
654 -5 m 256
 644.666666667 -5 636.833333333 -1.83333333333 630.5 4.5 c 128
 624.166666667 10.8333333333 621 18.6666666667 621 28 c 2
 621 70 l 1
 501 70 l 1
 498 70 l 2
 494 70 490 70.5 486 71.5 c 128
 482 72.5 478.333333333 74.6666666667 475 78 c 0
 467.666666667 84 463.666666667 91.5 463 100.5 c 128
 462.333333333 109.5 465 117.333333333 471 124 c 2
 625 304 l 1
 626 305 l 1
 632.666666667 315.666666667 642 321 654 321 c 0
 663.333333333 321 671.166666667 317.833333333 677.5 311.5 c 128
 683.833333333 305.166666667 687 297.333333333 687 288 c 2
 687 136 l 1
 716 136 l 2
 725.333333333 136 733.166666667 132.833333333 739.5 126.5 c 128
 745.833333333 120.166666667 749 112.333333333 749 103 c 256
 749 93.6666666667 745.833333333 85.8333333333 739.5 79.5 c 128
 733.166666667 73.1666666667 725.333333333 70 716 70 c 2
 687 70 l 1
 687 28 l 2
 687 18.6666666667 683.833333333 10.8333333333 677.5 4.5 c 128
 671.166666667 -1.83333333333 663.333333333 -5 654 -5 c 256
608 541 m 0
 615.333333333 537 620.333333333 530.166666667 623 520.5 c 128
 625.666666667 510.833333333 624.666666667 502.333333333 620 495 c 2
 337 10 l 2
 332.333333333 2.66666666667 325.5 -2.33333333333 316.5 -5 c 128
 307.5 -7.66666666667 299 -6.66666666667 291 -2 c 0
 283.666666667 2 278.666666667 8.83333333333 276 18.5 c 128
 273.333333333 28.1666666667 274.333333333 36.6666666667 279 44 c 2
 562 529 l 2
 566.666666667 536.333333333 573.5 541.333333333 582.5 544 c 128
 591.5 546.666666667 600 545.666666667 608 541 c 0
EndSplineSet
Validated: 1
Layer: 2
Layer: 3
EndChar

StartChar: threesuperior
Encoding: 179 179 17
Width: 392
Flags: HMW
LayerCount: 4
Back
Fore
SplineSet
194 218 m 0
 173.333333333 218 154.333333333 219.666666667 137 223 c 128
 119.666666667 226.333333333 104.333333333 230.666666667 91 236 c 0
 83 239.333333333 77 245.166666667 73 253.5 c 128
 69 261.833333333 68.6666666667 270.333333333 72 279 c 0
 75.3333333333 287 81.1666666667 293 89.5 297 c 128
 97.8333333333 301 106.333333333 301.333333333 115 298 c 0
 125.666666667 294 137.666666667 290.666666667 151 288 c 128
 164.333333333 285.333333333 178.666666667 284 194 284 c 0
 212 284 227.666666667 287.166666667 241 293.5 c 128
 254.333333333 299.833333333 261 309.666666667 261 323 c 256
 261 336.333333333 254.833333333 345.833333333 242.5 351.5 c 128
 230.166666667 357.166666667 216.333333333 360 201 360 c 0
 189.666666667 360 179.5 359.333333333 170.5 358 c 128
 161.5 356.666666667 154.333333333 355.333333333 149 354 c 0
 141 350.666666667 132.833333333 351.166666667 124.5 355.5 c 128
 116.166666667 359.833333333 110.666666667 366.333333333 108 375 c 0
 106 380.333333333 105.5 385.5 106.5 390.5 c 128
 107.5 395.5 109.666666667 400.333333333 113 405 c 0
 114.333333333 407 116.333333333 409.333333333 119 412 c 2
 196 479 l 1
 113 479 l 2
 103.666666667 479 95.8333333333 482.166666667 89.5 488.5 c 128
 83.1666666667 494.833333333 80 502.666666667 80 512 c 256
 80 521.333333333 83.1666666667 529.166666667 89.5 535.5 c 128
 95.8333333333 541.833333333 103.666666667 545 113 545 c 2
 285 545 l 2
 294.333333333 545 302.166666667 541.833333333 308.5 535.5 c 128
 314.833333333 529.166666667 318 521.333333333 318 512 c 0
 318 500 313.333333333 491 304 485 c 2
 302 483 l 1
 234 423 l 1
 266 417.666666667 289.5 405.833333333 304.5 387.5 c 128
 319.5 369.166666667 327 347.666666667 327 323 c 0
 327 309 324.666666667 295.666666667 320 283 c 128
 315.333333333 270.333333333 307.666666667 259.166666667 297 249.5 c 128
 286.333333333 239.833333333 272.666666667 232.166666667 256 226.5 c 128
 239.333333333 220.833333333 218.666666667 218 194 218 c 0
EndSplineSet
Validated: 1
Layer: 2
Layer: 3
EndChar

StartChar: twosuperior
Encoding: 178 178 18
Width: 365
Flags: HMW
LayerCount: 4
Back
Fore
SplineSet
91 229 m 1
 81.6666666667 229 73.8333333333 232.166666667 67.5 238.5 c 128
 61.1666666667 244.833333333 58 252.666666667 58 262 c 0
 58 272 61.6666666667 280 69 286 c 0
 69.6666666667 287.333333333 71 289 73 291 c 2
 162 374 l 2
 185.333333333 395.333333333 202.166666667 411.5 212.5 422.5 c 128
 222.833333333 433.5 228 445.666666667 228 459 c 0
 228 467.666666667 223.833333333 474.166666667 215.5 478.5 c 128
 207.166666667 482.833333333 197.333333333 485 186 485 c 0
 165.333333333 485 145.666666667 478.666666667 127 466 c 0
 119.666666667 460.666666667 111.5 459.166666667 102.5 461.5 c 128
 93.5 463.833333333 86.3333333333 468.666666667 81 476 c 0
 76.3333333333 483.333333333 75 491.5 77 500.5 c 128
 79 509.5 83.6666666667 516.666666667 91 522 c 0
 106.333333333 531.333333333 121.5 538.5 136.5 543.5 c 128
 151.5 548.5 168 551 186 551 c 0
 206 551 222.833333333 548.166666667 236.5 542.5 c 128
 250.166666667 536.833333333 261.333333333 529.666666667 270 521 c 128
 278.666666667 512.333333333 284.833333333 502.5 288.5 491.5 c 128
 292.166666667 480.5 294 469.666666667 294 459 c 0
 294 449 292.833333333 439.666666667 290.5 431 c 128
 288.166666667 422.333333333 283.833333333 413 277.5 403 c 128
 271.166666667 393 262.5 381.833333333 251.5 369.5 c 128
 240.5 357.166666667 226 342.666666667 208 326 c 2
 175 295 l 1
 280 295 l 2
 289.333333333 295 297.166666667 291.833333333 303.5 285.5 c 128
 309.833333333 279.166666667 313 271.333333333 313 262 c 256
 313 252.666666667 309.833333333 244.833333333 303.5 238.5 c 128
 297.166666667 232.166666667 289.333333333 229 280 229 c 2
 91 229 l 1
 91 229 l 1
EndSplineSet
Validated: 5
Layer: 2
Layer: 3
EndChar

StartChar: brokenbar
Encoding: 166 166 19
Width: 310
Flags: HMW
LayerCount: 4
Back
Fore
SplineSet
155 186 m 256
 164.333333333 186 172.166666667 182.833333333 178.5 176.5 c 128
 184.833333333 170.166666667 188 162.333333333 188 153 c 2
 188 -74 l 2
 188 -83.3333333333 184.833333333 -91.1666666667 178.5 -97.5 c 128
 172.166666667 -103.833333333 164.333333333 -107 155 -107 c 256
 145.666666667 -107 137.833333333 -103.833333333 131.5 -97.5 c 128
 125.166666667 -91.1666666667 122 -83.3333333333 122 -74 c 2
 122 153 l 2
 122 162.333333333 125.166666667 170.166666667 131.5 176.5 c 128
 137.833333333 182.833333333 145.666666667 186 155 186 c 256
155 572 m 256
 164.333333333 572 172.166666667 568.833333333 178.5 562.5 c 128
 184.833333333 556.166666667 188 548.333333333 188 539 c 2
 188 312 l 2
 188 302.666666667 184.833333333 294.833333333 178.5 288.5 c 128
 172.166666667 282.166666667 164.333333333 279 155 279 c 256
 145.666666667 279 137.833333333 282.166666667 131.5 288.5 c 128
 125.166666667 294.833333333 122 302.666666667 122 312 c 2
 122 539 l 2
 122 548.333333333 125.166666667 556.166666667 131.5 562.5 c 128
 137.833333333 568.833333333 145.666666667 572 155 572 c 256
EndSplineSet
Validated: 1
Layer: 2
Layer: 3
EndChar

StartChar: minus
Encoding: 8722 8722 20
Width: 491
Flags: MW
HStem: 220 66<83 398 92 398>
VStem: 59 372<244 262>
LayerCount: 4
Back
Fore
SplineSet
59 253 m 0
 59 271 74 286 92 286 c 2
 398 286 l 2
 416 286 431 271 431 253 c 0
 431 235 416 220 398 220 c 2
 92 220 l 2
 74 220 59 235 59 253 c 0
EndSplineSet
Validated: 1
Layer: 2
Layer: 3
EndChar

StartChar: multiply
Encoding: 215 215 21
Width: 491
Flags: HMW
LayerCount: 4
Back
Fore
SplineSet
151 107 m 1
 144.333333333 100.333333333 136.5 97 127.5 97 c 128
 118.5 97 110.666666667 100 104 106 c 0
 97.3333333333 112.666666667 94 120.5 94 129.5 c 128
 94 138.5 97 146.333333333 103 153 c 2
 199 253 l 1
 107 349 l 2
 101 355.666666667 98 363.5 98 372.5 c 128
 98 381.5 101.333333333 389.333333333 108 396 c 0
 114.666666667 402 122.5 405 131.5 405 c 128
 140.5 405 148.333333333 401.666666667 155 395 c 2
 245 301 l 1
 336 396 l 2
 342.666666667 402.666666667 350.5 406 359.5 406 c 128
 368.5 406 376.333333333 403 383 397 c 0
 389.666666667 390.333333333 393 382.5 393 373.5 c 128
 393 364.5 390 356.666666667 384 350 c 2
 291 253 l 1
 388 153 l 2
 394 146.333333333 397 138.5 397 129.5 c 128
 397 120.5 393.666666667 112.666666667 387 106 c 0
 380.333333333 100 372.5 97 363.5 97 c 128
 354.5 97 346.666666667 100.333333333 340 107 c 2
 245 205 l 1
 151 107 l 1
 151 107 l 1
EndSplineSet
Validated: 5
Layer: 2
Layer: 3
EndChar

StartChar: exclam
Encoding: 33 33 23
Width: 187
Flags: HMW
LayerCount: 4
Back
Fore
SplineSet
145 52 m 0
 145 38.6666666667 139.666666667 25.5 129 12.5 c 128
 118.333333333 -0.5 104.333333333 -7 87 -7 c 0
 71.6666666667 -7 60.3333333333 -3 53 5 c 128
 45.6666666667 13 42 23.3333333333 42 36 c 0
 42 49.3333333333 46.5 62.6666666667 55.5 76 c 128
 64.5 89.3333333333 79.6666666667 96 101 96 c 0
 115.666666667 96 126.666666667 91.5 134 82.5 c 128
 141.333333333 73.5 145 63.3333333333 145 52 c 0
115 652 m 1
 113.666666667 558.666666667 113 471.5 113 390.5 c 128
 113 269 113 269 113 189 c 1
 61 183 l 1
 61 209 60.3333333333 240.5 59 277.5 c 128
 57.6666666667 314.5 56 353.666666667 54 395 c 128
 52 436.333333333 49.6666666667 478.5 47 521.5 c 128
 44.3333333333 564.5 42 605 40 643 c 1
 115 652 l 1
 115 652 l 1
EndSplineSet
Validated: 5
Layer: 2
Layer: 3
EndChar

StartChar: quotedbl
Encoding: 34 34 24
Width: 220
Flags: HMW
LayerCount: 4
Back
Fore
SplineSet
79 690 m 1
 78.3333333333 676.666666667 77.6666666667 662 77 646 c 128
 76.3333333333 630 75.8333333333 613.666666667 75.5 597 c 128
 75.1666666667 580.333333333 74.8333333333 564 74.5 548 c 128
 74.1666666667 532 74 518 74 506 c 1
 28 503 l 1
 27.3333333333 526.333333333 25.5 552.666666667 22.5 582 c 128
 19.5 611.333333333 15.3333333333 644 10 680 c 1
 79 690 l 1
 79 690 l 1
190 688 m 1
 188.666666667 674.666666667 187.666666667 660.333333333 187 645 c 128
 186.333333333 629.666666667 185.666666667 614 185 598 c 128
 184.333333333 582 183.666666667 566.333333333 183 551 c 128
 182.333333333 535.666666667 182 522 182 510 c 1
 137 501 l 1
 135.666666667 524.333333333 134 551.5 132 582.5 c 128
 130 613.5 126.666666667 647 122 683 c 1
 190 688 l 1
 190 688 l 1
EndSplineSet
Validated: 5
Layer: 2
Layer: 3
EndChar

StartChar: numbersign
Encoding: 35 35 25
Width: 586
Flags: HMW
LayerCount: 4
Back
Fore
SplineSet
331 16 m 1
 327.666666667 7.33333333333 321.833333333 1 313.5 -3 c 128
 305.166666667 -7 297 -7.33333333333 289 -4 c 0
 280.333333333 -0.666666666667 274 5.16666666667 270 13.5 c 128
 266 21.8333333333 265.666666667 30 269 38 c 2
 309 149 l 1
 179 149 l 1
 131 16 l 2
 127.666666667 7.33333333333 121.833333333 1 113.5 -3 c 128
 105.166666667 -7 97 -7.33333333333 89 -4 c 0
 80.3333333333 -0.666666666667 74 5.16666666667 70 13.5 c 128
 66 21.8333333333 65.6666666667 30 69 38 c 2
 109 149 l 1
 54 149 l 2
 44.6666666667 149 36.8333333333 152.166666667 30.5 158.5 c 128
 24.1666666667 164.833333333 21 172.666666667 21 182 c 256
 21 191.333333333 24.1666666667 199.166666667 30.5 205.5 c 128
 36.8333333333 211.833333333 44.6666666667 215 54 215 c 2
 133 215 l 1
 182 349 l 1
 123 349 l 2
 113.666666667 349 105.833333333 352.166666667 99.5 358.5 c 128
 93.1666666667 364.833333333 90 372.666666667 90 382 c 256
 90 391.333333333 93.1666666667 399.166666667 99.5 405.5 c 128
 105.833333333 411.833333333 113.666666667 415 123 415 c 2
 206 415 l 1
 245 522 l 2
 248.333333333 530.666666667 254.166666667 537 262.5 541 c 128
 270.833333333 545 279 545.333333333 287 542 c 0
 295.666666667 538.666666667 302 532.833333333 306 524.5 c 128
 310 516.166666667 310.333333333 508 307 500 c 2
 276 415 l 1
 406 415 l 1
 445 522 l 2
 448.333333333 530.666666667 454.166666667 537 462.5 541 c 128
 470.833333333 545 479 545.333333333 487 542 c 0
 495.666666667 538.666666667 502 532.833333333 506 524.5 c 128
 510 516.166666667 510.333333333 508 507 500 c 2
 476 415 l 1
 527 415 l 2
 536.333333333 415 544.166666667 411.833333333 550.5 405.5 c 128
 556.833333333 399.166666667 560 391.333333333 560 382 c 256
 560 372.666666667 556.833333333 364.833333333 550.5 358.5 c 128
 544.166666667 352.166666667 536.333333333 349 527 349 c 2
 452 349 l 1
 403 215 l 1
 458 215 l 2
 467.333333333 215 475.166666667 211.833333333 481.5 205.5 c 128
 487.833333333 199.166666667 491 191.333333333 491 182 c 256
 491 172.666666667 487.833333333 164.833333333 481.5 158.5 c 128
 475.166666667 152.166666667 467.333333333 149 458 149 c 2
 379 149 l 1
 331 16 l 1
 331 16 l 1
252 349 m 1
 203 215 l 1
 333 215 l 1
 382 349 l 1
 252 349 l 1
EndSplineSet
Validated: 5
Layer: 2
Layer: 3
EndChar

StartChar: dollar
Encoding: 36 36 26
Width: 584
Flags: HMW
LayerCount: 4
Back
Fore
SplineSet
289 -113 m 256
 279.666666667 -113 271.833333333 -109.833333333 265.5 -103.5 c 128
 259.166666667 -97.1666666667 256 -89.3333333333 256 -80 c 2
 256 -14 l 1
 226 -11.3333333333 196.666666667 -6.5 168 0.5 c 128
 139.333333333 7.5 111.666666667 17.6666666667 85 31 c 0
 77 35 71.5 41.3333333333 68.5 50 c 128
 65.5 58.6666666667 65.6666666667 67 69 75 c 0
 73 83 79.3333333333 88.5 88 91.5 c 128
 96.6666666667 94.5 105 94.3333333333 113 91 c 0
 135.666666667 79.6666666667 158.833333333 71 182.5 65 c 128
 206.166666667 59 230.666666667 54.6666666667 256 52 c 1
 256 255 l 1
 216 263.666666667 184.333333333 274.333333333 161 287 c 128
 137.666666667 299.666666667 120 313.166666667 108 327.5 c 128
 96 341.833333333 88.5 356.5 85.5 371.5 c 128
 82.5 386.5 81 400.666666667 81 414 c 0
 81 429.333333333 84.5 444.833333333 91.5 460.5 c 128
 98.5 476.166666667 109.333333333 490.5 124 503.5 c 128
 138.666666667 516.5 156.833333333 527.333333333 178.5 536 c 128
 200.166666667 544.666666667 226 549.666666667 256 551 c 1
 256 610 l 2
 256 619.333333333 259.166666667 627.166666667 265.5 633.5 c 128
 271.833333333 639.833333333 279.666666667 643 289 643 c 256
 298.333333333 643 306.166666667 639.833333333 312.5 633.5 c 128
 318.833333333 627.166666667 322 619.333333333 322 610 c 2
 322 549 l 1
 348 547 370.833333333 543.333333333 390.5 538 c 128
 410.166666667 532.666666667 431 526.333333333 453 519 c 0
 461.666666667 515.666666667 468 510 472 502 c 128
 476 494 476.333333333 485.666666667 473 477 c 256
 469.666666667 468.333333333 464 462 456 458 c 128
 448 454 439.666666667 453.666666667 431 457 c 0
 412.333333333 463.666666667 394.833333333 469.166666667 378.5 473.5 c 128
 362.166666667 477.833333333 343.333333333 481 322 483 c 1
 322 310 l 1
 360.666666667 301.333333333 392.333333333 290.833333333 417 278.5 c 128
 441.666666667 266.166666667 461.166666667 252.833333333 475.5 238.5 c 128
 489.833333333 224.166666667 499.833333333 208.666666667 505.5 192 c 128
 511.166666667 175.333333333 514 158 514 140 c 0
 514 122.666666667 510.666666667 105.333333333 504 88 c 128
 497.333333333 70.6666666667 486.5 54.8333333333 471.5 40.5 c 128
 456.5 26.1666666667 436.833333333 14 412.5 4 c 128
 388.166666667 -6 358 -12 322 -14 c 1
 322 -80 l 2
 322 -89.3333333333 318.833333333 -97.1666666667 312.5 -103.5 c 128
 306.166666667 -109.833333333 298.333333333 -113 289 -113 c 256
448 140 m 0
 448 187.333333333 406 221.333333333 322 242 c 1
 322 52 l 1
 362 55.3333333333 393 65 415 81 c 128
 437 97 448 116.666666667 448 140 c 0
147 414 m 0
 147 396 154.833333333 379 170.5 363 c 128
 186.166666667 347 214.666666667 334 256 324 c 1
 256 485 l 1
 225.333333333 483 199.5 475.5 178.5 462.5 c 128
 157.5 449.5 147 433.333333333 147 414 c 0
EndSplineSet
Validated: 1
Layer: 2
Layer: 3
EndChar

StartChar: percent
Encoding: 37 37 27
Width: 806
Flags: HMW
LayerCount: 4
Back
Fore
SplineSet
679 153 m 0
 679 167 677.166666667 180.166666667 673.5 192.5 c 128
 669.833333333 204.833333333 664.833333333 215.666666667 658.5 225 c 128
 652.166666667 234.333333333 644.333333333 241.833333333 635 247.5 c 128
 625.666666667 253.166666667 615.333333333 256 604 256 c 0
 579.333333333 256 560.5 245.666666667 547.5 225 c 128
 534.5 204.333333333 528 180 528 152 c 0
 528 139.333333333 529.666666667 126.833333333 533 114.5 c 128
 536.333333333 102.166666667 541.333333333 91.3333333333 548 82 c 128
 554.666666667 72.6666666667 562.666666667 65 572 59 c 128
 581.333333333 53 592 50 604 50 c 0
 616.666666667 50 627.833333333 53 637.5 59 c 128
 647.166666667 65 655 72.8333333333 661 82.5 c 128
 667 92.1666666667 671.5 103.166666667 674.5 115.5 c 128
 677.5 127.833333333 679 140.333333333 679 153 c 0
462 152 m 0
 462 178 465.666666667 201.5 473 222.5 c 128
 480.333333333 243.5 490.5 261.333333333 503.5 276 c 128
 516.5 290.666666667 531.5 302 548.5 310 c 128
 565.5 318 584 322 604 322 c 0
 622.666666667 322 640.5 318 657.5 310 c 128
 674.5 302 689.5 290.666666667 702.5 276 c 128
 715.5 261.333333333 725.833333333 243.666666667 733.5 223 c 128
 741.166666667 202.333333333 745 179 745 153 c 0
 745 129 741.666666667 106.666666667 735 86 c 128
 728.333333333 65.3333333333 718.833333333 47.5 706.5 32.5 c 128
 694.166666667 17.5 679.333333333 5.66666666667 662 -3 c 128
 644.666666667 -11.6666666667 625.333333333 -16 604 -16 c 0
 584.666666667 -16 566.333333333 -11.6666666667 549 -3 c 128
 531.666666667 5.66666666667 516.5 17.5 503.5 32.5 c 128
 490.5 47.5 480.333333333 65.1666666667 473 85.5 c 128
 465.666666667 105.833333333 462 128 462 152 c 0
283 383 m 0
 283 397 281.166666667 410.166666667 277.5 422.5 c 128
 273.833333333 434.833333333 268.833333333 445.666666667 262.5 455 c 128
 256.166666667 464.333333333 248.333333333 471.833333333 239 477.5 c 128
 229.666666667 483.166666667 219.333333333 486 208 486 c 0
 183.333333333 486 164.5 475.666666667 151.5 455 c 128
 138.5 434.333333333 132 410 132 382 c 0
 132 369.333333333 133.666666667 356.833333333 137 344.5 c 128
 140.333333333 332.166666667 145.333333333 321.333333333 152 312 c 128
 158.666666667 302.666666667 166.666666667 295 176 289 c 128
 185.333333333 283 196 280 208 280 c 0
 220.666666667 280 231.833333333 283 241.5 289 c 128
 251.166666667 295 259 302.833333333 265 312.5 c 128
 271 322.166666667 275.5 333.166666667 278.5 345.5 c 128
 281.5 357.833333333 283 370.333333333 283 383 c 0
572 541 m 0
 579.333333333 537 584.333333333 530.166666667 587 520.5 c 128
 589.666666667 510.833333333 588.666666667 502.333333333 584 495 c 2
 301 10 l 2
 296.333333333 2.66666666667 289.5 -2.33333333333 280.5 -5 c 128
 271.5 -7.66666666667 263 -6.66666666667 255 -2 c 0
 247.666666667 2 242.666666667 8.83333333333 240 18.5 c 128
 237.333333333 28.1666666667 238.333333333 36.6666666667 243 44 c 2
 526 529 l 2
 530.666666667 536.333333333 537.5 541.333333333 546.5 544 c 128
 555.5 546.666666667 564 545.666666667 572 541 c 0
66 382 m 0
 66 408 69.6666666667 431.5 77 452.5 c 128
 84.3333333333 473.5 94.5 491.333333333 107.5 506 c 128
 120.5 520.666666667 135.5 532 152.5 540 c 128
 169.5 548 188 552 208 552 c 0
 226.666666667 552 244.5 548 261.5 540 c 128
 278.5 532 293.5 520.666666667 306.5 506 c 128
 319.5 491.333333333 329.833333333 473.666666667 337.5 453 c 128
 345.166666667 432.333333333 349 409 349 383 c 0
 349 359 345.666666667 336.666666667 339 316 c 128
 332.333333333 295.333333333 322.833333333 277.5 310.5 262.5 c 128
 298.166666667 247.5 283.333333333 235.666666667 266 227 c 128
 248.666666667 218.333333333 229.333333333 214 208 214 c 0
 188.666666667 214 170.333333333 218.333333333 153 227 c 128
 135.666666667 235.666666667 120.5 247.5 107.5 262.5 c 128
 94.5 277.5 84.3333333333 295.166666667 77 315.5 c 128
 69.6666666667 335.833333333 66 358 66 382 c 0
EndSplineSet
Validated: 1
Layer: 2
Layer: 3
EndChar

StartChar: ampersand
Encoding: 38 38 28
Width: 644
Flags: HMW
LayerCount: 4
Back
Fore
SplineSet
423 85 m 1
 391 47.6666666667 360.666666667 21.8333333333 332 7.5 c 128
 303.333333333 -6.83333333333 272 -14 238 -14 c 0
 211.333333333 -14 187.333333333 -10 166 -2 c 128
 144.666666667 6 126.5 16.8333333333 111.5 30.5 c 128
 96.5 44.1666666667 84.8333333333 60.1666666667 76.5 78.5 c 128
 68.1666666667 96.8333333333 64 116.333333333 64 137 c 0
 64 151.666666667 65.5 166.166666667 68.5 180.5 c 128
 71.5 194.833333333 77.1666666667 208.666666667 85.5 222 c 128
 93.8333333333 235.333333333 105.5 248.666666667 120.5 262 c 128
 135.5 275.333333333 155 289 179 303 c 1
 162.333333333 322.333333333 149.5 341.166666667 140.5 359.5 c 128
 131.5 377.833333333 127 397.666666667 127 419 c 0
 127 459 139.833333333 491.166666667 165.5 515.5 c 128
 191.166666667 539.833333333 223.666666667 552 263 552 c 0
 283 552 301.5 548.666666667 318.5 542 c 128
 335.5 535.333333333 350.166666667 526.166666667 362.5 514.5 c 128
 374.833333333 502.833333333 384.5 489.166666667 391.5 473.5 c 128
 398.5 457.833333333 402 441 402 423 c 0
 402 394.333333333 393.666666667 368.333333333 377 345 c 128
 360.333333333 321.666666667 333 301.333333333 295 284 c 1
 414 181 l 1
 498 300 l 2
 503.333333333 307.333333333 510.5 311.833333333 519.5 313.5 c 128
 528.5 315.166666667 536.666666667 313.333333333 544 308 c 256
 551.333333333 302.666666667 555.833333333 295.5 557.5 286.5 c 128
 559.166666667 277.5 557.333333333 269.333333333 552 262 c 2
 466 140 l 1
 464 137 l 1
 562 52 l 2
 568.666666667 46 572.333333333 38.5 573 29.5 c 128
 573.666666667 20.5 571 12.3333333333 565 5 c 0
 559 -1.66666666667 551.5 -5.33333333333 542.5 -6 c 128
 533.5 -6.66666666667 525.333333333 -4 518 2 c 2
 423 85 l 1
238 52 m 0
 263.333333333 52 286.5 57.8333333333 307.5 69.5 c 128
 328.5 81.1666666667 350.666666667 100.666666667 374 128 c 1
 237 247 l 1
 229 254 l 1
 191.666666667 235.333333333 165.833333333 216.833333333 151.5 198.5 c 128
 137.166666667 180.166666667 130 159.666666667 130 137 c 0
 130 111.666666667 140.5 91.1666666667 161.5 75.5 c 128
 182.5 59.8333333333 208 52 238 52 c 0
193 419 m 0
 193 403 197.333333333 388.166666667 206 374.5 c 128
 214.666666667 360.833333333 226 347.333333333 240 334 c 1
 244 335.333333333 248 337 252 339 c 128
 256 341 260 342.666666667 264 344 c 0
 287.333333333 353.333333333 305.166666667 364.333333333 317.5 377 c 128
 329.833333333 389.666666667 336 405 336 423 c 0
 336 441.666666667 328.666666667 456.833333333 314 468.5 c 128
 299.333333333 480.166666667 282.333333333 486 263 486 c 0
 243 486 226.333333333 480 213 468 c 128
 199.666666667 456 193 439.666666667 193 419 c 0
EndSplineSet
Validated: 1
Layer: 2
Layer: 3
EndChar

StartChar: quotesingle
Encoding: 39 39 29
Width: 109
Flags: HMW
LayerCount: 4
Back
Fore
SplineSet
79 690 m 1
 78.3333333333 676.666666667 77.6666666667 662 77 646 c 128
 76.3333333333 630 75.8333333333 613.666666667 75.5 597 c 128
 75.1666666667 580.333333333 74.8333333333 564 74.5 548 c 128
 74.1666666667 532 74 518 74 506 c 1
 28 503 l 1
 27.3333333333 526.333333333 25.5 552.666666667 22.5 582 c 128
 19.5 611.333333333 15.3333333333 644 10 680 c 1
 79 690 l 1
 79 690 l 1
EndSplineSet
Validated: 5
Layer: 2
Layer: 3
EndChar

StartChar: parenleft
Encoding: 40 40 30
Width: 188
Flags: HMW
LayerCount: 4
Back
Fore
SplineSet
173 695 m 1
 156.333333333 667 142.166666667 640 130.5 614 c 128
 118.833333333 588 109.166666667 560.5 101.5 531.5 c 128
 93.8333333333 502.5 88.3333333333 470.5 85 435.5 c 128
 81.6666666667 400.5 80 360.666666667 80 316 c 0
 80 264.666666667 82.8333333333 218.833333333 88.5 178.5 c 128
 94.1666666667 138.166666667 101.833333333 101.5 111.5 68.5 c 128
 121.166666667 35.5 132.5 5.83333333333 145.5 -20.5 c 128
 158.5 -46.8333333333 172.666666667 -71.3333333333 188 -94 c 1
 156 -121 l 1
 138.666666667 -105.666666667 121.833333333 -84.3333333333 105.5 -57 c 128
 89.1666666667 -29.6666666667 74.6666666667 2.5 62 39.5 c 128
 49.3333333333 76.5 39.1666666667 117.833333333 31.5 163.5 c 128
 23.8333333333 209.166666667 20 258 20 310 c 0
 20 365.333333333 23.3333333333 414.166666667 30 456.5 c 128
 36.6666666667 498.833333333 45.5 536.166666667 56.5 568.5 c 128
 67.5 600.833333333 80.1666666667 628.833333333 94.5 652.5 c 128
 108.833333333 676.166666667 123.333333333 697 138 715 c 1
 173 695 l 1
 173 695 l 1
EndSplineSet
Validated: 5
Layer: 2
Layer: 3
EndChar

StartChar: parenright
Encoding: 41 41 31
Width: 188
Flags: HMW
LayerCount: 4
Back
Fore
SplineSet
16 -97 m 1
 34 -69 48.8333333333 -41.1666666667 60.5 -13.5 c 128
 72.1666666667 14.1666666667 81.5 43.5 88.5 74.5 c 128
 95.5 105.5 100.5 139 103.5 175 c 128
 106.5 211 108 251.666666667 108 297 c 0
 108 347.666666667 105.166666667 392.333333333 99.5 431 c 128
 93.8333333333 469.666666667 86.1666666667 504.333333333 76.5 535 c 128
 66.8333333333 565.666666667 55.5 593.166666667 42.5 617.5 c 128
 29.5 641.833333333 15.3333333333 665.333333333 0 688 c 1
 32 715 l 1
 50 699.666666667 67.3333333333 679.333333333 84 654 c 128
 100.666666667 628.666666667 115.166666667 598.666666667 127.5 564 c 128
 139.833333333 529.333333333 149.666666667 490.166666667 157 446.5 c 128
 164.333333333 402.833333333 168 355 168 303 c 0
 168 247.666666667 164.833333333 197.833333333 158.5 153.5 c 128
 152.166666667 109.166666667 143.666666667 69.6666666667 133 35 c 128
 122.333333333 0.333333333333 109.833333333 -29.8333333333 95.5 -55.5 c 128
 81.1666666667 -81.1666666667 66 -103 50 -121 c 1
 16 -97 l 1
 16 -97 l 1
EndSplineSet
Validated: 5
Layer: 2
Layer: 3
EndChar

StartChar: asterisk
Encoding: 42 42 32
Width: 423
Flags: HMW
LayerCount: 4
Back
Fore
SplineSet
243 285 m 1
 243 275.666666667 239.833333333 267.833333333 233.5 261.5 c 128
 227.166666667 255.166666667 219.333333333 252 210 252 c 256
 200.666666667 252 192.833333333 255.166666667 186.5 261.5 c 128
 180.166666667 267.833333333 177 275.666666667 177 285 c 2
 177 338 l 1
 121 305 l 2
 113.666666667 300.333333333 105.166666667 299.333333333 95.5 302 c 128
 85.8333333333 304.666666667 79 309.666666667 75 317 c 0
 70.3333333333 325 69.3333333333 333.5 72 342.5 c 128
 74.6666666667 351.5 79.6666666667 358.333333333 87 363 c 2
 144 396 l 1
 87 429 l 2
 79.6666666667 433.666666667 74.6666666667 440.5 72 449.5 c 128
 69.3333333333 458.5 70.3333333333 467 75 475 c 0
 79 482.333333333 85.8333333333 487.333333333 95.5 490 c 128
 105.166666667 492.666666667 113.666666667 491.666666667 121 487 c 2
 177 454 l 1
 177 511 l 2
 177 520.333333333 180.166666667 528.166666667 186.5 534.5 c 128
 192.833333333 540.833333333 200.666666667 544 210 544 c 256
 219.333333333 544 227.166666667 540.833333333 233.5 534.5 c 128
 239.833333333 528.166666667 243 520.333333333 243 511 c 2
 243 454 l 1
 300 487 l 2
 307.333333333 491.666666667 315.833333333 492.666666667 325.5 490 c 128
 335.166666667 487.333333333 342 482.333333333 346 475 c 0
 350.666666667 467 351.666666667 458.5 349 449.5 c 128
 346.333333333 440.5 341.333333333 433.666666667 334 429 c 2
 277 396 l 1
 334 363 l 2
 341.333333333 358.333333333 346.333333333 351.5 349 342.5 c 128
 351.666666667 333.5 350.666666667 325 346 317 c 0
 342 309.666666667 335.166666667 304.666666667 325.5 302 c 128
 315.833333333 299.333333333 307.333333333 300.333333333 300 305 c 2
 243 338 l 1
 243 285 l 1
 243 285 l 1
EndSplineSet
Validated: 5
Layer: 2
Layer: 3
EndChar

StartChar: plus
Encoding: 43 43 33
Width: 491
Flags: HMW
LayerCount: 4
Back
Fore
SplineSet
245 71 m 256
 235.666666667 71 227.833333333 74.1666666667 221.5 80.5 c 128
 215.166666667 86.8333333333 212 94.6666666667 212 104 c 2
 212 220 l 1
 92 220 l 2
 82.6666666667 220 74.8333333333 223.166666667 68.5 229.5 c 128
 62.1666666667 235.833333333 59 243.666666667 59 253 c 256
 59 262.333333333 62.1666666667 270.166666667 68.5 276.5 c 128
 74.8333333333 282.833333333 82.6666666667 286 92 286 c 2
 212 286 l 1
 212 401 l 2
 212 410.333333333 215.166666667 418.166666667 221.5 424.5 c 128
 227.833333333 430.833333333 235.666666667 434 245 434 c 256
 254.333333333 434 262.166666667 430.833333333 268.5 424.5 c 128
 274.833333333 418.166666667 278 410.333333333 278 401 c 2
 278 286 l 1
 398 286 l 2
 407.333333333 286 415.166666667 282.833333333 421.5 276.5 c 128
 427.833333333 270.166666667 431 262.333333333 431 253 c 256
 431 243.666666667 427.833333333 235.833333333 421.5 229.5 c 128
 415.166666667 223.166666667 407.333333333 220 398 220 c 2
 278 220 l 1
 278 104 l 2
 278 94.6666666667 274.833333333 86.8333333333 268.5 80.5 c 128
 262.166666667 74.1666666667 254.333333333 71 245 71 c 256
EndSplineSet
Validated: 1
Layer: 2
Layer: 3
EndChar

StartChar: comma
Encoding: 44 44 34
Width: 187
Flags: HMW
LayerCount: 4
Back
Fore
SplineSet
135 88 m 1
 133 46 128.166666667 9 120.5 -23 c 128
 112.833333333 -55 104.333333333 -83.3333333333 95 -108 c 1
 52 -94 l 1
 57.3333333333 -70.6666666667 62.3333333333 -42.5 67 -9.5 c 128
 71.6666666667 23.5 74.3333333333 58 75 94 c 1
 135 88 l 1
 135 88 l 1
EndSplineSet
Validated: 5
Layer: 2
Layer: 3
EndChar

StartChar: hyphen
Encoding: 45 45 35
Width: 250
Flags: HMW
LayerCount: 4
Back
Fore
SplineSet
219 325 m 1
 220 271 l 1
 32 264 l 1
 32 321 l 1
 219 325 l 1
EndSplineSet
Validated: 1
Layer: 2
Layer: 3
EndChar

StartChar: period
Encoding: 46 46 36
Width: 187
Flags: HMW
LayerCount: 4
Back
Fore
SplineSet
145 52 m 0
 145 38.6666666667 139.666666667 25.5 129 12.5 c 128
 118.333333333 -0.5 104.333333333 -7 87 -7 c 0
 71.6666666667 -7 60.3333333333 -3 53 5 c 128
 45.6666666667 13 42 23.3333333333 42 36 c 0
 42 49.3333333333 46.5 62.6666666667 55.5 76 c 128
 64.5 89.3333333333 79.6666666667 96 101 96 c 0
 115.666666667 96 126.666666667 91.5 134 82.5 c 128
 141.333333333 73.5 145 63.3333333333 145 52 c 0
EndSplineSet
Validated: 1
Layer: 2
Layer: 3
EndChar

StartChar: slash
Encoding: 47 47 37
Width: 189
Flags: HMW
LayerCount: 4
Back
Fore
SplineSet
-1 -138 m 1
 4.33333333333 -112.666666667 10.6666666667 -78.8333333333 18 -36.5 c 128
 25.3333333333 5.83333333333 33.1666666667 52.8333333333 41.5 104.5 c 128
 49.8333333333 156.166666667 58.3333333333 210.166666667 67 266.5 c 128
 75.6666666667 322.833333333 83.8333333333 377.833333333 91.5 431.5 c 128
 99.1666666667 485.166666667 105.833333333 535.5 111.5 582.5 c 128
 117.166666667 629.5 121.666666667 669 125 701 c 1
 185 698 l 1
 179.666666667 666 173.5 627 166.5 581 c 128
 159.5 535 152 485.666666667 144 433 c 128
 136 380.333333333 127.666666667 326.166666667 119 270.5 c 128
 110.333333333 214.833333333 102.166666667 161 94.5 109 c 128
 86.8333333333 57 79.8333333333 8.83333333333 73.5 -35.5 c 128
 67.1666666667 -79.8333333333 62 -116.666666667 58 -146 c 1
 -1 -138 l 1
 -1 -138 l 1
EndSplineSet
Validated: 5
Layer: 2
Layer: 3
EndChar

StartChar: zero
Encoding: 48 48 38
Width: 345
Flags: HMW
LayerCount: 4
Back
Fore
SplineSet
174 658 m 0
 204.666666667 658 229 649.5 247 632.5 c 128
 265 615.5 278.666666667 591.166666667 288 559.5 c 128
 297.333333333 527.833333333 303.333333333 489.166666667 306 443.5 c 128
 308.666666667 397.833333333 310 346.333333333 310 289 c 0
 310 247.666666667 308.666666667 208.833333333 306 172.5 c 128
 303.333333333 136.166666667 297.166666667 104.5 287.5 77.5 c 128
 277.833333333 50.5 263.5 29.1666666667 244.5 13.5 c 128
 225.5 -2.16666666667 200 -10 168 -10 c 0
 143.333333333 -10 122.5 -4.16666666667 105.5 7.5 c 128
 88.5 19.1666666667 74.8333333333 37.8333333333 64.5 63.5 c 128
 54.1666666667 89.1666666667 46.6666666667 122.333333333 42 163 c 128
 37.3333333333 203.666666667 35 252.666666667 35 310 c 0
 35 370 36.8333333333 421.833333333 40.5 465.5 c 128
 44.1666666667 509.166666667 51.1666666667 545.333333333 61.5 574 c 128
 71.8333333333 602.666666667 86 623.833333333 104 637.5 c 128
 122 651.166666667 145.333333333 658 174 658 c 0
243 319 m 0
 243 375.666666667 241.5 422.166666667 238.5 458.5 c 128
 235.5 494.833333333 231 523.5 225 544.5 c 128
 219 565.5 211.5 580 202.5 588 c 128
 193.5 596 182.666666667 600 170 600 c 0
 140 600 120.833333333 576.833333333 112.5 530.5 c 128
 104.166666667 484.166666667 100 414.333333333 100 321 c 0
 100 269.666666667 101.333333333 226.666666667 104 192 c 128
 106.666666667 157.333333333 111 129.5 117 108.5 c 128
 123 87.5 131.166666667 72.3333333333 141.5 63 c 128
 151.833333333 53.6666666667 165 49 181 49 c 0
 193 49 203 54 211 64 c 128
 219 74 225.333333333 89.6666666667 230 111 c 128
 234.666666667 132.333333333 238 160.166666667 240 194.5 c 128
 242 228.833333333 243 270.333333333 243 319 c 0
EndSplineSet
Validated: 1
Layer: 2
Layer: 3
EndChar

StartChar: one
Encoding: 49 49 39
Width: 233
Flags: HMW
LayerCount: 4
Back
Fore
SplineSet
174 645 m 1
 174.666666667 593.666666667 175.333333333 547.833333333 176 507.5 c 128
 176.666666667 467.166666667 177.166666667 430.166666667 177.5 396.5 c 128
 177.833333333 362.833333333 178.333333333 331.166666667 179 301.5 c 128
 179.666666667 271.833333333 180.333333333 241.833333333 181 211.5 c 128
 181.666666667 181.166666667 182.666666667 149.5 184 116.5 c 128
 185.333333333 83.5 186.666666667 46.6666666667 188 6 c 1
 122 -7 l 1
 122 49 121.833333333 98.3333333333 121.5 141 c 128
 121.166666667 183.666666667 121 225.333333333 121 266 c 128
 121 306.666666667 120.833333333 348.666666667 120.5 392 c 128
 120.166666667 435.333333333 119.666666667 486 119 544 c 1
 52 468 l 1
 10 512 l 1
 32.6666666667 532 54.6666666667 554.166666667 76 578.5 c 128
 97.3333333333 602.833333333 116 627 132 651 c 1
 174 645 l 1
 174 645 l 1
EndSplineSet
Validated: 5
Layer: 2
Layer: 3
EndChar

StartChar: two
Encoding: 50 50 40
Width: 284
Flags: HMW
LayerCount: 4
Back
Fore
SplineSet
242 526 m 0
 242 478.666666667 236.666666667 432.333333333 226 387 c 128
 215.333333333 341.666666667 202.166666667 298.5 186.5 257.5 c 128
 170.833333333 216.5 154.333333333 178.666666667 137 144 c 128
 119.666666667 109.333333333 104.333333333 79.3333333333 91 54 c 1
 103 54 116.5 54.3333333333 131.5 55 c 128
 146.5 55.6666666667 161.666666667 56.5 177 57.5 c 128
 192.333333333 58.5 206.833333333 59.5 220.5 60.5 c 128
 234.166666667 61.5 245.333333333 62.3333333333 254 63 c 1
 252 0 l 1
 30 -1 l 1
 26 38 l 1
 70.6666666667 116.666666667 107.5 195.5 136.5 274.5 c 128
 165.5 353.5 180 431.333333333 180 508 c 0
 180 533.333333333 175.166666667 554 165.5 570 c 128
 155.833333333 586 139.333333333 594 116 594 c 0
 100 594 85.5 592.166666667 72.5 588.5 c 128
 59.5 584.833333333 46.3333333333 581 33 577 c 1
 20 625 l 1
 36.6666666667 632.333333333 54 638.666666667 72 644 c 128
 90 649.333333333 112 652 138 652 c 0
 177.333333333 652 204.5 640.5 219.5 617.5 c 128
 234.5 594.5 242 564 242 526 c 0
EndSplineSet
Validated: 1
Layer: 2
Layer: 3
EndChar

StartChar: three
Encoding: 51 51 41
Width: 285
Flags: HMW
LayerCount: 4
Back
Fore
SplineSet
255 171 m 0
 255 139.666666667 250.833333333 112.666666667 242.5 90 c 128
 234.166666667 67.3333333333 222.833333333 48.6666666667 208.5 34 c 128
 194.166666667 19.3333333333 177.5 8.66666666667 158.5 2 c 128
 139.5 -4.66666666667 119.666666667 -8 99 -8 c 0
 84.3333333333 -8 70 -7.16666666667 56 -5.5 c 128
 42 -3.83333333333 28.3333333333 -0.333333333333 15 5 c 1
 23 55 l 1
 36.3333333333 52.3333333333 48.1666666667 50.3333333333 58.5 49 c 128
 68.8333333333 47.6666666667 81 47 95 47 c 0
 127 47 151.333333333 56.5 168 75.5 c 128
 184.666666667 94.5 193 125 193 167 c 0
 193 212.333333333 184.833333333 245.5 168.5 266.5 c 128
 152.166666667 287.5 125.666666667 300.333333333 89 305 c 1
 86 352 l 1
 98 357.333333333 109 364 119 372 c 128
 129 380 137.833333333 389.833333333 145.5 401.5 c 128
 153.166666667 413.166666667 159.166666667 427.166666667 163.5 443.5 c 128
 167.833333333 459.833333333 170 479 170 501 c 0
 170 533 164.333333333 556.833333333 153 572.5 c 128
 141.666666667 588.166666667 125.666666667 596 105 596 c 0
 89 596 75.8333333333 594.666666667 65.5 592 c 128
 55.1666666667 589.333333333 43.3333333333 586 30 582 c 1
 17 630 l 1
 25 633.333333333 32.6666666667 636.333333333 40 639 c 128
 47.3333333333 641.666666667 54.8333333333 644 62.5 646 c 128
 70.1666666667 648 78.6666666667 649.5 88 650.5 c 128
 97.3333333333 651.5 108.666666667 652 122 652 c 0
 144.666666667 652 163.166666667 647.833333333 177.5 639.5 c 128
 191.833333333 631.166666667 203.166666667 620.166666667 211.5 606.5 c 128
 219.833333333 592.833333333 225.666666667 576.833333333 229 558.5 c 128
 232.333333333 540.166666667 234 521 234 501 c 0
 234 464.333333333 228.166666667 433.833333333 216.5 409.5 c 128
 204.833333333 385.166666667 186.333333333 364 161 346 c 1
 173 340 184.666666667 332.666666667 196 324 c 128
 207.333333333 315.333333333 217.333333333 304.166666667 226 290.5 c 128
 234.666666667 276.833333333 241.666666667 260.333333333 247 241 c 128
 252.333333333 221.666666667 255 198.333333333 255 171 c 0
EndSplineSet
Validated: 1
Layer: 2
Layer: 3
EndChar

StartChar: four
Encoding: 52 52 42
Width: 331
Flags: HMW
LayerCount: 4
Back
Fore
SplineSet
196 545 m 1
 176.666666667 468.333333333 157.833333333 399.166666667 139.5 337.5 c 128
 121.166666667 275.833333333 103.666666667 219.666666667 87 169 c 1
 119 169 147.166666667 169.166666667 171.5 169.5 c 128
 195.833333333 169.833333333 217 170.5 235 171.5 c 128
 253 172.5 268.333333333 173.5 281 174.5 c 128
 293.666666667 175.5 304.333333333 176.666666667 313 178 c 1
 313 115 l 1
 26 114 l 1
 22 153 l 1
 37.3333333333 188.333333333 52.6666666667 227.166666667 68 269.5 c 128
 83.3333333333 311.833333333 97.8333333333 355 111.5 399 c 128
 125.166666667 443 137.833333333 486.5 149.5 529.5 c 128
 161.166666667 572.5 171.333333333 613 180 651 c 1
 254 647 l 1
 254.666666667 538.333333333 255.5 431 256.5 325 c 128
 257.5 219 261 111.666666667 267 3 c 1
 199 -6 l 1
 199 39 199 39 199 104 c 128
 199 147.333333333 198.833333333 193.833333333 198.5 243.5 c 128
 198.166666667 293.166666667 197.833333333 344 197.5 396 c 128
 197.166666667 448 196.666666667 497.666666667 196 545 c 1
EndSplineSet
Validated: 5
Layer: 2
Layer: 3
EndChar

StartChar: five
Encoding: 53 53 43
Width: 293
Flags: HMW
LayerCount: 4
Back
Fore
SplineSet
57 312 m 1
 57.6666666667 326.666666667 58 346.5 58 371.5 c 128
 58 396.5 57.8333333333 424 57.5 454 c 128
 57.1666666667 484 56.5 515.5 55.5 548.5 c 128
 54.5 581.5 53 613.666666667 51 645 c 1
 242 651 l 1
 241 592 l 1
 113 592 l 1
 113.666666667 544 114.166666667 500.666666667 114.5 462 c 128
 114.833333333 423.333333333 115.666666667 389.333333333 117 360 c 1
 167 356 204.333333333 338.666666667 229 308 c 128
 253.666666667 277.333333333 266 235 266 181 c 0
 266 117 250.833333333 69.6666666667 220.5 39 c 128
 190.166666667 8.33333333333 150.333333333 -7 101 -7 c 0
 94.3333333333 -7 83.8333333333 -6.5 69.5 -5.5 c 128
 55.1666666667 -4.5 43 -2.33333333333 33 1 c 1
 41 51 l 1
 49.6666666667 49.6666666667 60.6666666667 48.6666666667 74 48 c 128
 87.3333333333 47.3333333333 97 47 103 47 c 0
 117 47 130.166666667 49.3333333333 142.5 54 c 128
 154.833333333 58.6666666667 165.5 66.3333333333 174.5 77 c 128
 183.5 87.6666666667 190.5 101.833333333 195.5 119.5 c 128
 200.5 137.166666667 203 159 203 185 c 0
 203 210.333333333 199.5 231.166666667 192.5 247.5 c 128
 185.5 263.833333333 175.666666667 276.833333333 163 286.5 c 128
 150.333333333 296.166666667 135 302.833333333 117 306.5 c 128
 99 310.166666667 79 312 57 312 c 1
EndSplineSet
Validated: 1
Layer: 2
Layer: 3
EndChar

StartChar: six
Encoding: 54 54 44
Width: 320
Flags: HMW
LayerCount: 4
Back
Fore
SplineSet
174 44 m 0
 183.333333333 44 191.833333333 46.5 199.5 51.5 c 128
 207.166666667 56.5 213.833333333 65.3333333333 219.5 78 c 128
 225.166666667 90.6666666667 229.5 107.833333333 232.5 129.5 c 128
 235.5 151.166666667 237 178.333333333 237 211 c 0
 237 265 232 303.5 222 326.5 c 128
 212 349.5 198.333333333 361 181 361 c 0
 166.333333333 361 154 353.666666667 144 339 c 128
 134 324.333333333 125.833333333 306.833333333 119.5 286.5 c 128
 113.166666667 266.166666667 108.666666667 245.333333333 106 224 c 128
 103.333333333 202.666666667 102 185.666666667 102 173 c 0
 102 125.666666667 108.833333333 92.3333333333 122.5 73 c 128
 136.166666667 53.6666666667 153.333333333 44 174 44 c 0
35 243 m 0
 35 291 37.1666666667 334.833333333 41.5 374.5 c 128
 45.8333333333 414.166666667 51.1666666667 450.833333333 57.5 484.5 c 128
 63.8333333333 518.166666667 70.6666666667 549.166666667 78 577.5 c 128
 85.3333333333 605.833333333 92.3333333333 633 99 659 c 1
 154 642 l 1
 139.333333333 593.333333333 128 550.666666667 120 514 c 128
 112 477.333333333 105.833333333 444.833333333 101.5 416.5 c 128
 97.1666666667 388.166666667 94.1666666667 363.5 92.5 342.5 c 128
 90.8333333333 321.5 89.6666666667 302 89 284 c 1
 91.6666666667 298 95.5 313.166666667 100.5 329.5 c 128
 105.5 345.833333333 112 361 120 375 c 128
 128 389 138 400.666666667 150 410 c 128
 162 419.333333333 176.666666667 424 194 424 c 0
 214.666666667 424 231.666666667 418.333333333 245 407 c 128
 258.333333333 395.666666667 269 380.5 277 361.5 c 128
 285 342.5 290.5 320.666666667 293.5 296 c 128
 296.5 271.333333333 298 245.333333333 298 218 c 0
 298 183.333333333 295.666666667 152.166666667 291 124.5 c 128
 286.333333333 96.8333333333 278.833333333 73.3333333333 268.5 54 c 128
 258.166666667 34.6666666667 244.333333333 19.8333333333 227 9.5 c 128
 209.666666667 -0.833333333333 188 -6 162 -6 c 0
 143.333333333 -6 126.166666667 -2 110.5 6 c 128
 94.8333333333 14 81.5 27.6666666667 70.5 47 c 128
 59.5 66.3333333333 50.8333333333 92 44.5 124 c 128
 38.1666666667 156 35 195.666666667 35 243 c 0
EndSplineSet
Validated: 1
Layer: 2
Layer: 3
EndChar

StartChar: seven
Encoding: 55 55 45
Width: 243
Flags: HMW
LayerCount: 4
Back
Fore
SplineSet
226 648 m 1
 228 617 l 1
 217.333333333 561.666666667 207.666666667 509.833333333 199 461.5 c 128
 190.333333333 413.166666667 182 365 174 317 c 128
 166 269 158.166666667 219 150.5 167 c 128
 142.833333333 115 134.666666667 57.6666666667 126 -5 c 1
 59 6 l 1
 67.6666666667 48.6666666667 75.5 87.5 82.5 122.5 c 128
 89.5 157.5 96.1666666667 190.5 102.5 221.5 c 128
 108.833333333 252.5 114.666666667 282.166666667 120 310.5 c 128
 125.333333333 338.833333333 130.666666667 367.666666667 136 397 c 128
 141.333333333 426.333333333 146.5 457 151.5 489 c 128
 156.5 521 162 556 168 594 c 1
 6 589 l 1
 5 648 l 1
 226 648 l 1
EndSplineSet
Validated: 1
Layer: 2
Layer: 3
EndChar

StartChar: eight
Encoding: 56 56 46
Width: 343
Flags: HMW
LayerCount: 4
Back
Fore
SplineSet
225 475 m 0
 225 519.666666667 219.5 551.333333333 208.5 570 c 128
 197.5 588.666666667 181.666666667 598 161 598 c 0
 137.666666667 598 121.5 587.666666667 112.5 567 c 128
 103.5 546.333333333 99 517.666666667 99 481 c 0
 99 463.666666667 100.5 447.333333333 103.5 432 c 128
 106.5 416.666666667 110.833333333 403.166666667 116.5 391.5 c 128
 122.166666667 379.833333333 129.166666667 370.666666667 137.5 364 c 128
 145.833333333 357.333333333 155 354 165 354 c 0
 185.666666667 354 200.833333333 364.5 210.5 385.5 c 128
 220.166666667 406.5 225 436.333333333 225 475 c 0
164 656 m 0
 188.666666667 656 209.166666667 651.333333333 225.5 642 c 128
 241.833333333 632.666666667 254.833333333 619.666666667 264.5 603 c 128
 274.166666667 586.333333333 281 566.5 285 543.5 c 128
 289 520.5 291 495.333333333 291 468 c 0
 291 456 289.833333333 443.333333333 287.5 430 c 128
 285.166666667 416.666666667 281.666666667 403.833333333 277 391.5 c 128
 272.333333333 379.166666667 266.666666667 368 260 358 c 128
 253.333333333 348 246 340.666666667 238 336 c 1
 260.666666667 328.666666667 278 309.333333333 290 278 c 128
 302 246.666666667 308 211.333333333 308 172 c 0
 308 118 296.333333333 74.5 273 41.5 c 128
 249.666666667 8.5 213 -8 163 -8 c 0
 119.666666667 -8 87.5 8.83333333333 66.5 42.5 c 128
 45.5 76.1666666667 35 120.666666667 35 176 c 0
 35 216 40.3333333333 249 51 275 c 128
 61.6666666667 301 75 319.333333333 91 330 c 1
 83 336 75.6666666667 344 69 354 c 128
 62.3333333333 364 56.6666666667 375.333333333 52 388 c 128
 47.3333333333 400.666666667 43.6666666667 414.333333333 41 429 c 128
 38.3333333333 443.666666667 37 458 37 472 c 0
 37 528.666666667 47.3333333333 573.5 68 606.5 c 128
 88.6666666667 639.5 120.666666667 656 164 656 c 0
242 179 m 0
 242 223 235.166666667 255.333333333 221.5 276 c 128
 207.833333333 296.666666667 190.333333333 307 169 307 c 0
 155.666666667 307 144.5 303.333333333 135.5 296 c 128
 126.5 288.666666667 119.166666667 279.166666667 113.5 267.5 c 128
 107.833333333 255.833333333 103.666666667 242.833333333 101 228.5 c 128
 98.3333333333 214.166666667 97 199.666666667 97 185 c 0
 97 135 103.5 100.166666667 116.5 80.5 c 128
 129.5 60.8333333333 149 51 175 51 c 0
 198.333333333 51 215.333333333 62.6666666667 226 86 c 128
 236.666666667 109.333333333 242 140.333333333 242 179 c 0
EndSplineSet
Validated: 1
Layer: 2
Layer: 3
EndChar

StartChar: nine
Encoding: 57 57 47
Width: 339
Flags: HMW
LayerCount: 4
Back
Fore
SplineSet
171 603 m 0
 145 603 124.5 586.833333333 109.5 554.5 c 128
 94.5 522.166666667 87 471.666666667 87 403 c 0
 87 345 92 304.333333333 102 281 c 128
 112 257.666666667 125.666666667 246 143 246 c 0
 155 246 165.666666667 251.333333333 175 262 c 128
 184.333333333 272.666666667 192.166666667 291 198.5 317 c 128
 204.833333333 343 209.666666667 378.166666667 213 422.5 c 128
 216.333333333 466.833333333 218 522.666666667 218 590 c 1
 212 595.333333333 205 598.833333333 197 600.5 c 128
 189 602.166666667 180.333333333 603 171 603 c 0
277 630 m 1
 277.666666667 582.666666667 278.666666667 531.166666667 280 475.5 c 128
 281.333333333 419.833333333 283 364 285 308 c 128
 287 252 289.166666667 197.833333333 291.5 145.5 c 128
 293.833333333 93.1666666667 296.333333333 46.6666666667 299 6 c 1
 231 -6 l 1
 235 327 l 1
 225.666666667 275.666666667 213.333333333 239.166666667 198 217.5 c 128
 182.666666667 195.833333333 163.333333333 185 140 185 c 0
 98.6666666667 185 69.3333333333 203.666666667 52 241 c 128
 34.6666666667 278.333333333 26 338 26 420 c 0
 26 450.666666667 29 480.333333333 35 509 c 128
 41 537.666666667 50.1666666667 563 62.5 585 c 128
 74.8333333333 607 90.5 624.5 109.5 637.5 c 128
 128.5 650.5 151 657 177 657 c 0
 188.333333333 657 198.333333333 656.5 207 655.5 c 128
 215.666666667 654.5 223.833333333 653 231.5 651 c 128
 239.166666667 649 246.5 646.166666667 253.5 642.5 c 128
 260.5 638.833333333 268.333333333 634.666666667 277 630 c 1
EndSplineSet
Validated: 1
Layer: 2
Layer: 3
EndChar

StartChar: colon
Encoding: 58 58 48
Width: 187
Flags: HMW
LayerCount: 4
Back
Fore
SplineSet
145 52 m 0
 145 38.6666666667 139.666666667 25.5 129 12.5 c 128
 118.333333333 -0.5 104.333333333 -7 87 -7 c 0
 71.6666666667 -7 60.3333333333 -3 53 5 c 128
 45.6666666667 13 42 23.3333333333 42 36 c 0
 42 49.3333333333 46.5 62.6666666667 55.5 76 c 128
 64.5 89.3333333333 79.6666666667 96 101 96 c 0
 115.666666667 96 126.666666667 91.5 134 82.5 c 128
 141.333333333 73.5 145 63.3333333333 145 52 c 0
137 456 m 0
 137 449.333333333 135.833333333 442.333333333 133.5 435 c 128
 131.166666667 427.666666667 127.666666667 421 123 415 c 128
 118.333333333 409 112.666666667 404 106 400 c 128
 99.3333333333 396 91.6666666667 394 83 394 c 0
 69.6666666667 394 58.1666666667 397.5 48.5 404.5 c 128
 38.8333333333 411.5 34 421.333333333 34 434 c 0
 34 440.666666667 35 447.666666667 37 455 c 128
 39 462.333333333 42.3333333333 469 47 475 c 128
 51.6666666667 481 57.6666666667 486 65 490 c 128
 72.3333333333 494 81.3333333333 496 92 496 c 0
 106.666666667 496 117.833333333 492.166666667 125.5 484.5 c 128
 133.166666667 476.833333333 137 467.333333333 137 456 c 0
EndSplineSet
Validated: 1
Layer: 2
Layer: 3
EndChar

StartChar: semicolon
Encoding: 59 59 49
Width: 187
Flags: HMW
LayerCount: 4
Back
Fore
SplineSet
137 456 m 0
 137 449.333333333 135.833333333 442.333333333 133.5 435 c 128
 131.166666667 427.666666667 127.666666667 421 123 415 c 128
 118.333333333 409 112.666666667 404 106 400 c 128
 99.3333333333 396 91.6666666667 394 83 394 c 0
 69.6666666667 394 58.1666666667 397.5 48.5 404.5 c 128
 38.8333333333 411.5 34 421.333333333 34 434 c 0
 34 440.666666667 35 447.666666667 37 455 c 128
 39 462.333333333 42.3333333333 469 47 475 c 128
 51.6666666667 481 57.6666666667 486 65 490 c 128
 72.3333333333 494 81.3333333333 496 92 496 c 0
 106.666666667 496 117.833333333 492.166666667 125.5 484.5 c 128
 133.166666667 476.833333333 137 467.333333333 137 456 c 0
135 88 m 1
 133 46 128.166666667 9 120.5 -23 c 128
 112.833333333 -55 104.333333333 -83.3333333333 95 -108 c 1
 52 -94 l 1
 57.3333333333 -70.6666666667 62.3333333333 -42.5 67 -9.5 c 128
 71.6666666667 23.5 74.3333333333 58 75 94 c 1
 135 88 l 1
 135 88 l 1
EndSplineSet
Validated: 5
Layer: 2
Layer: 3
EndChar

StartChar: less
Encoding: 60 60 50
Width: 491
Flags: HMW
LayerCount: 4
Back
Fore
SplineSet
416 107 m 0
 412.666666667 99 406.666666667 93.3333333333 398 90 c 128
 389.333333333 86.6666666667 380.666666667 87 372 91 c 2
 80 224 l 2
 72 227.333333333 66.5 233.333333333 63.5 242 c 128
 60.5 250.666666667 60.6666666667 259.333333333 64 268 c 0
 66.6666666667 274.666666667 71.6666666667 279.666666667 79 283 c 0
 79.6666666667 283.666666667 81.6666666667 285 85 287 c 2
 367 415 l 2
 375.666666667 419 384.333333333 419.333333333 393 416 c 128
 401.666666667 412.666666667 407.666666667 407 411 399 c 0
 414.333333333 390.333333333 414.5 381.666666667 411.5 373 c 128
 408.5 364.333333333 403 358.333333333 395 355 c 2
 173 254 l 1
 400 151 l 2
 408 147.666666667 413.5 141.666666667 416.5 133 c 128
 419.5 124.333333333 419.333333333 115.666666667 416 107 c 0
EndSplineSet
Validated: 1
Layer: 2
Layer: 3
EndChar

StartChar: equal
Encoding: 61 61 51
Width: 491
Flags: HMW
LayerCount: 4
Back
Fore
SplineSet
59 163 m 256
 59 172.333333333 62.1666666667 180.166666667 68.5 186.5 c 128
 74.8333333333 192.833333333 82.6666666667 196 92 196 c 2
 398 196 l 2
 407.333333333 196 415.166666667 192.833333333 421.5 186.5 c 128
 427.833333333 180.166666667 431 172.333333333 431 163 c 256
 431 153.666666667 427.833333333 145.833333333 421.5 139.5 c 128
 415.166666667 133.166666667 407.333333333 130 398 130 c 2
 92 130 l 2
 82.6666666667 130 74.8333333333 133.166666667 68.5 139.5 c 128
 62.1666666667 145.833333333 59 153.666666667 59 163 c 256
59 343 m 256
 59 352.333333333 62.1666666667 360.166666667 68.5 366.5 c 128
 74.8333333333 372.833333333 82.6666666667 376 92 376 c 2
 398 376 l 2
 407.333333333 376 415.166666667 372.833333333 421.5 366.5 c 128
 427.833333333 360.166666667 431 352.333333333 431 343 c 256
 431 333.666666667 427.833333333 325.833333333 421.5 319.5 c 128
 415.166666667 313.166666667 407.333333333 310 398 310 c 2
 92 310 l 2
 82.6666666667 310 74.8333333333 313.166666667 68.5 319.5 c 128
 62.1666666667 325.833333333 59 333.666666667 59 343 c 256
EndSplineSet
Validated: 1
Layer: 2
Layer: 3
EndChar

StartChar: greater
Encoding: 62 62 52
Width: 491
Flags: HMW
LayerCount: 4
Back
Fore
SplineSet
124 87 m 1
 115.333333333 83 106.666666667 82.6666666667 98 86 c 128
 89.3333333333 89.3333333333 83.3333333333 95 80 103 c 0
 76.6666666667 111.666666667 76.5 120.333333333 79.5 129 c 128
 82.5 137.666666667 88 143.666666667 96 147 c 2
 318 248 l 1
 91 351 l 2
 83 354.333333333 77.5 360.333333333 74.5 369 c 128
 71.5 377.666666667 71.6666666667 386.333333333 75 395 c 0
 78.3333333333 403 84.3333333333 408.666666667 93 412 c 128
 101.666666667 415.333333333 110.333333333 415 119 411 c 2
 411 278 l 2
 419 274.666666667 424.5 268.666666667 427.5 260 c 128
 430.5 251.333333333 430.333333333 242.666666667 427 234 c 0
 423.666666667 226.666666667 418.666666667 221.666666667 412 219 c 0
 411.333333333 218.333333333 409.333333333 217 406 215 c 2
 124 87 l 1
 124 87 l 1
EndSplineSet
Validated: 5
Layer: 2
Layer: 3
EndChar

StartChar: question
Encoding: 63 63 53
Width: 284
Flags: HMW
LayerCount: 4
Back
Fore
SplineSet
127 171 m 1
 122.333333333 175.666666667 117.833333333 181.333333333 113.5 188 c 128
 109.166666667 194.666666667 105.5 201.666666667 102.5 209 c 128
 99.5 216.333333333 97 223.5 95 230.5 c 128
 93 237.5 92 243.666666667 92 249 c 0
 92 268.333333333 96.5 289.166666667 105.5 311.5 c 128
 114.5 333.833333333 124.5 356.833333333 135.5 380.5 c 128
 146.5 404.166666667 156.666666667 428 166 452 c 128
 175.333333333 476 180 499.333333333 180 522 c 0
 180 547.333333333 175.166666667 565.666666667 165.5 577 c 128
 155.833333333 588.333333333 139.333333333 594 116 594 c 0
 100 594 85.5 592.166666667 72.5 588.5 c 128
 59.5 584.833333333 46.3333333333 581 33 577 c 1
 20 625 l 1
 36.6666666667 632.333333333 54 638.666666667 72 644 c 128
 90 649.333333333 112 652 138 652 c 0
 177.333333333 652 204.5 640.5 219.5 617.5 c 128
 234.5 594.5 242 564 242 526 c 0
 242 501.333333333 237.333333333 476.333333333 228 451 c 128
 218.666666667 425.666666667 208.333333333 401.166666667 197 377.5 c 128
 185.666666667 353.833333333 175.333333333 331.666666667 166 311 c 128
 156.666666667 290.333333333 152 272.333333333 152 257 c 256
 152 241.666666667 153.166666667 229 155.5 219 c 128
 157.833333333 209 160.666666667 199.333333333 164 190 c 1
 127 171 l 1
 127 171 l 1
205 52 m 0
 205 38.6666666667 199.666666667 25.5 189 12.5 c 128
 178.333333333 -0.5 164.333333333 -7 147 -7 c 0
 131.666666667 -7 120.333333333 -3 113 5 c 128
 105.666666667 13 102 23.3333333333 102 36 c 0
 102 49.3333333333 106.5 62.6666666667 115.5 76 c 128
 124.5 89.3333333333 139.666666667 96 161 96 c 0
 175.666666667 96 186.666666667 91.5 194 82.5 c 128
 201.333333333 73.5 205 63.3333333333 205 52 c 0
EndSplineSet
Validated: 5
Layer: 2
Layer: 3
EndChar

StartChar: at
Encoding: 64 64 54
Width: 675
Flags: HMW
LayerCount: 4
Back
Fore
SplineSet
318 191 m 0
 332.666666667 191 346.666666667 195.166666667 360 203.5 c 128
 373.333333333 211.833333333 384.666666667 224.666666667 394 242 c 1
 394 254 l 1
 394 338 l 1
 385.333333333 342 376.333333333 345.166666667 367 347.5 c 128
 357.666666667 349.833333333 347.333333333 351 336 351 c 0
 314 351 295.5 342.833333333 280.5 326.5 c 128
 265.5 310.166666667 258 288.333333333 258 261 c 0
 258 239.666666667 263.833333333 222.666666667 275.5 210 c 128
 287.166666667 197.333333333 301.333333333 191 318 191 c 0
344 -16 m 0
 300 -16 259.833333333 -8.83333333333 223.5 5.5 c 128
 187.166666667 19.8333333333 156 39.6666666667 130 65 c 128
 104 90.3333333333 83.8333333333 120.166666667 69.5 154.5 c 128
 55.1666666667 188.833333333 48 225.666666667 48 265 c 256
 48 304.333333333 55.3333333333 341.666666667 70 377 c 128
 84.6666666667 412.333333333 105 443.166666667 131 469.5 c 128
 157 495.833333333 188 516.666666667 224 532 c 128
 260 547.333333333 299 555 341 555 c 0
 387 555 427.833333333 547.333333333 463.5 532 c 128
 499.166666667 516.666666667 529.166666667 496.166666667 553.5 470.5 c 128
 577.833333333 444.833333333 596.5 415.333333333 609.5 382 c 128
 622.5 348.666666667 629 314.333333333 629 279 c 0
 629 251.666666667 625.666666667 228.333333333 619 209 c 128
 612.333333333 189.666666667 603.5 173.666666667 592.5 161 c 128
 581.5 148.333333333 568.833333333 139 554.5 133 c 128
 540.166666667 127 525 124 509 124 c 0
 491.666666667 124 475.166666667 127.666666667 459.5 135 c 128
 443.833333333 142.333333333 430.666666667 153.333333333 420 168 c 1
 404.666666667 152.666666667 388.166666667 141.666666667 370.5 135 c 128
 352.833333333 128.333333333 335.333333333 125 318 125 c 0
 302 125 286.5 128 271.5 134 c 128
 256.5 140 243.166666667 148.666666667 231.5 160 c 128
 219.833333333 171.333333333 210.333333333 185.5 203 202.5 c 128
 195.666666667 219.5 192 239 192 261 c 0
 192 285.666666667 196 307.833333333 204 327.5 c 128
 212 347.166666667 222.5 363.5 235.5 376.5 c 128
 248.5 389.5 263.666666667 399.5 281 406.5 c 128
 298.333333333 413.5 316.666666667 417 336 417 c 0
 360 417 382.333333333 413.333333333 403 406 c 1
 409 413.333333333 417 417 427 417 c 0
 436.333333333 417 444.166666667 413.833333333 450.5 407.5 c 128
 456.833333333 401.166666667 460 393.333333333 460 384 c 2
 460 254 l 2
 460 236 464.333333333 220.833333333 473 208.5 c 128
 481.666666667 196.166666667 493.666666667 190 509 190 c 0
 527 190 540.5 198.833333333 549.5 216.5 c 128
 558.5 234.166666667 563 255 563 279 c 0
 563 306.333333333 558 332.666666667 548 358 c 128
 538 383.333333333 523.5 405.666666667 504.5 425 c 128
 485.5 444.333333333 462.166666667 459.833333333 434.5 471.5 c 128
 406.833333333 483.166666667 375.666666667 489 341 489 c 0
 308.333333333 489 278.166666667 483 250.5 471 c 128
 222.833333333 459 198.833333333 442.833333333 178.5 422.5 c 128
 158.166666667 402.166666667 142.333333333 378.5 131 351.5 c 128
 119.666666667 324.5 114 295.666666667 114 265 c 256
 114 234.333333333 119.666666667 206 131 180 c 128
 142.333333333 154 158.166666667 131.333333333 178.5 112 c 128
 198.833333333 92.6666666667 223 77.5 251 66.5 c 128
 279 55.5 310 50 344 50 c 0
 372.666666667 50 398.666666667 52.8333333333 422 58.5 c 128
 445.333333333 64.1666666667 466 70.6666666667 484 78 c 0
 492 81.3333333333 500.333333333 81.5 509 78.5 c 128
 517.666666667 75.5 523.666666667 69.6666666667 527 61 c 0
 530.333333333 53 530.5 44.6666666667 527.5 36 c 128
 524.5 27.3333333333 518.666666667 21.3333333333 510 18 c 0
 488.666666667 8.66666666667 464.166666667 0.666666666667 436.5 -6 c 128
 408.833333333 -12.6666666667 378 -16 344 -16 c 0
EndSplineSet
Validated: 1
Layer: 2
Layer: 3
EndChar

StartChar: A
Encoding: 65 65 55
Width: 323
Flags: HMW
LayerCount: 4
Back
Fore
SplineSet
322 5 m 1
 257 -5 l 1
 253.666666667 16.3333333333 249.333333333 41.5 244 70.5 c 128
 238.666666667 99.5 232.666666667 130.166666667 226 162.5 c 128
 219.333333333 194.833333333 212.666666667 228.166666667 206 262.5 c 128
 199.333333333 296.833333333 192.666666667 330.166666667 186 362.5 c 128
 179.333333333 394.833333333 173.166666667 425.5 167.5 454.5 c 128
 161.833333333 483.5 157 508.666666667 153 530 c 1
 145 482 145 482 133.5 413 c 128
 125.833333333 367 118 319.166666667 110 269.5 c 128
 102 219.833333333 94.1666666667 171.166666667 86.5 123.5 c 128
 78.8333333333 75.8333333333 72.3333333333 34.3333333333 67 -1 c 1
 -1 0 l 1
 7 32 15.8333333333 72.1666666667 25.5 120.5 c 128
 35.1666666667 168.833333333 45.3333333333 221.833333333 56 279.5 c 128
 66.6666666667 337.166666667 77.1666666667 397.333333333 87.5 460 c 128
 97.8333333333 522.666666667 107.666666667 584.666666667 117 646 c 1
 194 652 l 1
 196.666666667 630.666666667 201 603.833333333 207 571.5 c 128
 213 539.166666667 219.666666667 503.5 227 464.5 c 128
 234.333333333 425.5 242.333333333 384.833333333 251 342.5 c 128
 259.666666667 300.166666667 268.166666667 258.5 276.5 217.5 c 128
 284.833333333 176.5 293 137.666666667 301 101 c 128
 309 64.3333333333 316 32.3333333333 322 5 c 1
273 170 m 1
 55 162 l 1
 54 216 l 1
 270 222 l 1
 273 170 l 1
EndSplineSet
Validated: 5
Layer: 2
Layer: 3
EndChar

StartChar: B
Encoding: 66 66 56
Width: 338
Flags: HMW
LayerCount: 4
Back
Fore
SplineSet
118 352 m 1
 158.666666667 360 186.166666667 374.833333333 200.5 396.5 c 128
 214.833333333 418.166666667 222 450.333333333 222 493 c 0
 222 534.333333333 214.166666667 563.333333333 198.5 580 c 128
 182.833333333 596.666666667 153 601 109 593 c 1
 111 553.666666667 112.666666667 513.5 114 472.5 c 128
 115.333333333 431.5 116.666666667 391.333333333 118 352 c 1
118 56 m 1
 141.333333333 56 161 58 177 62 c 128
 193 66 205.833333333 73.3333333333 215.5 84 c 128
 225.166666667 94.6666666667 232.166666667 108.666666667 236.5 126 c 128
 240.833333333 143.333333333 243 165.666666667 243 193 c 0
 243 211.666666667 241 228.5 237 243.5 c 128
 233 258.5 226.166666667 271 216.5 281 c 128
 206.833333333 291 194.166666667 298.166666667 178.5 302.5 c 128
 162.833333333 306.833333333 143 307.666666667 119 305 c 1
 119.666666667 263.666666667 120 222.166666667 120 180.5 c 128
 120 138.833333333 119.333333333 97.3333333333 118 56 c 1
50 -3 m 1
 52 45 53.1666666667 96.5 53.5 151.5 c 128
 53.8333333333 206.5 53.6666666667 262.166666667 53 318.5 c 128
 52.3333333333 374.833333333 51.1666666667 430.5 49.5 485.5 c 128
 47.8333333333 540.5 46 592 44 640 c 1
 57.3333333333 644 72 647.333333333 88 650 c 128
 104 652.666666667 126 654 154 654 c 0
 175.333333333 654 194.333333333 651.5 211 646.5 c 128
 227.666666667 641.5 241.833333333 632.666666667 253.5 620 c 128
 265.166666667 607.333333333 274 590.5 280 569.5 c 128
 286 548.5 289 522 289 490 c 256
 289 458 281.5 429 266.5 403 c 128
 251.5 377 231.333333333 358 206 346 c 1
 224.666666667 342.666666667 240.5 336.166666667 253.5 326.5 c 128
 266.5 316.833333333 277.166666667 305.333333333 285.5 292 c 128
 293.833333333 278.666666667 300 264 304 248 c 128
 308 232 310 215.666666667 310 199 c 0
 310 163.666666667 307 133.333333333 301 108 c 128
 295 82.6666666667 282.833333333 61.8333333333 264.5 45.5 c 128
 246.166666667 29.1666666667 219.833333333 17 185.5 9 c 128
 151.166666667 1 106 -3 50 -3 c 1
EndSplineSet
Validated: 33
Layer: 2
Layer: 3
EndChar

StartChar: C
Encoding: 67 67 57
Width: 293
Flags: HMW
LayerCount: 4
Back
Fore
SplineSet
258 587 m 1
 250.666666667 589.666666667 241.666666667 593 231 597 c 128
 220.333333333 601 209.666666667 603 199 603 c 0
 177.666666667 603 160.333333333 598.166666667 147 588.5 c 128
 133.666666667 578.833333333 123.166666667 563.333333333 115.5 542 c 128
 107.833333333 520.666666667 102.5 493.166666667 99.5 459.5 c 128
 96.5 425.833333333 95 385 95 337 c 0
 95 288.333333333 96.1666666667 247.833333333 98.5 215.5 c 128
 100.833333333 183.166666667 104.5 156.666666667 109.5 136 c 128
 114.5 115.333333333 120.333333333 99.1666666667 127 87.5 c 128
 133.666666667 75.8333333333 141.666666667 66.3333333333 151 59 c 0
 155.666666667 55 163.166666667 52.1666666667 173.5 50.5 c 128
 183.833333333 48.8333333333 195 48.1666666667 207 48.5 c 128
 219 48.8333333333 230.666666667 50.1666666667 242 52.5 c 128
 253.333333333 54.8333333333 263 57.6666666667 271 61 c 1
 288 15 l 1
 272.666666667 6.33333333333 257.333333333 0.166666666667 242 -3.5 c 128
 226.666666667 -7.16666666667 212.333333333 -9 199 -9 c 0
 166.333333333 -9 139.166666667 -4.16666666667 117.5 5.5 c 128
 95.8333333333 15.1666666667 78.5 32.3333333333 65.5 57 c 128
 52.5 81.6666666667 43.3333333333 115.166666667 38 157.5 c 128
 32.6666666667 199.833333333 30 253.666666667 30 319 c 0
 30 383 32.6666666667 436.5 38 479.5 c 128
 43.3333333333 522.5 52.8333333333 557.333333333 66.5 584 c 128
 80.1666666667 610.666666667 98.3333333333 629.666666667 121 641 c 128
 143.666666667 652.333333333 172.333333333 658 207 658 c 0
 221.666666667 658 235.166666667 656.166666667 247.5 652.5 c 128
 259.833333333 648.833333333 269.333333333 643.333333333 276 636 c 1
 258 587 l 1
EndSplineSet
Validated: 33
Layer: 2
Layer: 3
EndChar

StartChar: D
Encoding: 68 68 58
Width: 368
Flags: HMW
LayerCount: 4
Back
Fore
SplineSet
61 -3 m 1
 64.3333333333 94.3333333333 66 192.333333333 66 291 c 128
 66 389.666666667 63.6666666667 487.666666667 59 585 c 1
 25 582 l 1
 20 633 l 1
 36 637.666666667 56.6666666667 642 82 646 c 128
 107.333333333 650 137.666666667 652 173 652 c 0
 201 652 225.333333333 647 246 637 c 128
 266.666666667 627 283.833333333 610.333333333 297.5 587 c 128
 311.166666667 563.666666667 321.333333333 532.666666667 328 494 c 128
 334.666666667 455.333333333 338 407.333333333 338 350 c 0
 338 278 334.666666667 219.166666667 328 173.5 c 128
 321.333333333 127.833333333 308 92 288 66 c 128
 268 40 239.833333333 22 203.5 12 c 128
 167.166666667 2 119.666666667 -3 61 -3 c 1
129 55 m 1
 159.666666667 56.3333333333 184.333333333 60.6666666667 203 68 c 128
 221.666666667 75.3333333333 236.166666667 89.3333333333 246.5 110 c 128
 256.833333333 130.666666667 263.833333333 159.833333333 267.5 197.5 c 128
 271.166666667 235.166666667 273 285.666666667 273 349 c 0
 273 396.333333333 270.666666667 436.5 266 469.5 c 128
 261.333333333 502.5 253.166666667 528.666666667 241.5 548 c 128
 229.833333333 567.333333333 214.333333333 580.5 195 587.5 c 128
 175.666666667 594.5 151 595.666666667 121 591 c 1
 126.333333333 499.666666667 129.833333333 410.333333333 131.5 323 c 128
 133.166666667 235.666666667 132.333333333 146.333333333 129 55 c 1
EndSplineSet
Validated: 33
Layer: 2
Layer: 3
EndChar

StartChar: E
Encoding: 69 69 59
Width: 285
Flags: HMW
LayerCount: 4
Back
Fore
SplineSet
108 635 m 1
 108.666666667 568.333333333 109.5 509.666666667 110.5 459 c 128
 111.5 408.333333333 112.5 359.833333333 113.5 313.5 c 128
 114.5 267.166666667 115.833333333 220 117.5 172 c 128
 119.166666667 124 121 69.6666666667 123 9 c 1
 54 -7 l 1
 54 54.3333333333 53.8333333333 109.833333333 53.5 159.5 c 128
 53.1666666667 209.166666667 52.6666666667 258.5 52 307.5 c 128
 51.3333333333 356.5 50 407.666666667 48 461 c 128
 46 514.333333333 43.3333333333 575.333333333 40 644 c 1
 108 635 l 1
 108 635 l 1
248 654 m 1
 250 596 l 1
 61 590 l 1
 40 644 l 1
 248 654 l 1
272 60 m 1
 274 0 l 1
 54 -7 l 1
 70 48 l 1
 272 60 l 1
230 366 m 1
 232 309 l 1
 80 304 l 1
 78 357 l 1
 230 366 l 1
EndSplineSet
Validated: 5
Layer: 2
Layer: 3
EndChar

StartChar: F
Encoding: 70 70 60
Width: 270
Flags: HMW
LayerCount: 4
Back
Fore
SplineSet
122 636 m 1
 122.666666667 569.333333333 123.5 510.166666667 124.5 458.5 c 128
 125.5 406.833333333 126.666666667 357.166666667 128 309.5 c 128
 129.333333333 261.833333333 131 213.5 133 164.5 c 128
 135 115.5 137 60.6666666667 139 0 c 1
 69 -4 l 1
 69 57.3333333333 68.8333333333 112.833333333 68.5 162.5 c 128
 68.1666666667 212.166666667 67.5 261.333333333 66.5 310 c 128
 65.5 358.666666667 64 409.5 62 462.5 c 128
 60 515.5 57.3333333333 576.333333333 54 645 c 1
 122 636 l 1
 122 636 l 1
262 653 m 1
 264 595 l 1
 75 591 l 1
 54 645 l 1
 262 653 l 1
244 366 m 1
 246 309 l 1
 94 304 l 1
 92 357 l 1
 244 366 l 1
EndSplineSet
Validated: 5
Layer: 2
Layer: 3
EndChar

StartChar: G
Encoding: 71 71 61
Width: 336
Flags: HMW
LayerCount: 4
Back
Fore
SplineSet
257 587 m 1
 249.666666667 589.666666667 240.666666667 593 230 597 c 128
 219.333333333 601 208.666666667 603 198 603 c 0
 176.666666667 603 159.333333333 598.166666667 146 588.5 c 128
 132.666666667 578.833333333 122.166666667 563.333333333 114.5 542 c 128
 106.833333333 520.666666667 101.5 493.166666667 98.5 459.5 c 128
 95.5 425.833333333 94 385 94 337 c 0
 94 288.333333333 95.1666666667 247.666666667 97.5 215 c 128
 99.8333333333 182.333333333 103.166666667 155.833333333 107.5 135.5 c 128
 111.833333333 115.166666667 117 99.5 123 88.5 c 128
 129 77.5 136 69.3333333333 144 64 c 0
 149.333333333 60 156.333333333 57.3333333333 165 56 c 128
 173.666666667 54.6666666667 182.666666667 54.8333333333 192 56.5 c 128
 201.333333333 58.1666666667 210.333333333 61.5 219 66.5 c 128
 227.666666667 71.5 235 78 241 86 c 1
 248 37 l 1
 240 25 228.833333333 15.1666666667 214.5 7.5 c 128
 200.166666667 -0.166666666667 187 -4 175 -4 c 0
 149.666666667 -4 127.833333333 0.5 109.5 9.5 c 128
 91.1666666667 18.5 76 35 64 59 c 128
 52 83 43.1666666667 116 37.5 158 c 128
 31.8333333333 200 29 253.666666667 29 319 c 0
 29 383 31.6666666667 436.5 37 479.5 c 128
 42.3333333333 522.5 51.8333333333 557.333333333 65.5 584 c 128
 79.1666666667 610.666666667 97.3333333333 629.666666667 120 641 c 128
 142.666666667 652.333333333 171.333333333 658 206 658 c 0
 220.666666667 658 234.166666667 656.166666667 246.5 652.5 c 128
 258.833333333 648.833333333 268.333333333 643.333333333 275 636 c 1
 257 587 l 1
292 358 m 1
 292 324 292.333333333 290.333333333 293 257 c 128
 293.666666667 223.666666667 294.666666667 191.666666667 296 161 c 128
 297.333333333 130.333333333 298.666666667 101.333333333 300 74 c 128
 301.333333333 46.6666666667 302.666666667 22 304 0 c 1
 239 -11 l 1
 239 13 238.666666667 39.1666666667 238 67.5 c 128
 237.333333333 95.8333333333 236.5 125.5 235.5 156.5 c 128
 234.5 187.5 233.333333333 218.666666667 232 250 c 128
 230.666666667 281.333333333 229 312 227 342 c 1
 292 358 l 1
 292 358 l 1
292 358 m 1
 275 304 l 1
 181 295 l 1
 180 352 l 1
 292 358 l 1
EndSplineSet
Validated: 5
Layer: 2
Layer: 3
EndChar

StartChar: H
Encoding: 72 72 62
Width: 345
Flags: HMW
LayerCount: 4
Back
Fore
SplineSet
107 651 m 1
 107.666666667 584.333333333 108.333333333 524.333333333 109 471 c 128
 109.666666667 417.666666667 110.5 366.333333333 111.5 317 c 128
 112.5 267.666666667 113.666666667 217.666666667 115 167 c 128
 116.333333333 116.333333333 118 60.6666666667 120 0 c 1
 51 -4 l 1
 51 88 51 88 51 162 c 128
 51 211.333333333 50.6666666667 260.333333333 50 309 c 128
 49.3333333333 357.666666667 48.3333333333 408.5 47 461.5 c 128
 45.6666666667 514.5 43.3333333333 575.333333333 40 644 c 1
 107 651 l 1
 107 651 l 1
245 366 m 1
 247 309 l 1
 77 304 l 1
 75 357 l 1
 245 366 l 1
290 650 m 1
 290 583.333333333 290.333333333 523.333333333 291 470 c 128
 291.666666667 416.666666667 292.666666667 365.333333333 294 316 c 128
 295.333333333 266.666666667 297 216.833333333 299 166.5 c 128
 301 116.166666667 303 60.6666666667 305 0 c 1
 236 -4 l 1
 236 57.3333333333 235.666666667 112.833333333 235 162.5 c 128
 234.333333333 212.166666667 233.5 261.5 232.5 310.5 c 128
 231.5 359.5 230.166666667 410.666666667 228.5 464 c 128
 226.833333333 517.333333333 224.666666667 578.333333333 222 647 c 1
 290 650 l 1
 290 650 l 1
EndSplineSet
Validated: 5
Layer: 2
Layer: 3
EndChar

StartChar: I
Encoding: 73 73 63
Width: 164
Flags: HMW
LayerCount: 4
Back
Fore
SplineSet
107 652 m 1
 107.666666667 600.666666667 108.333333333 554.5 109 513.5 c 128
 109.666666667 472.5 110.333333333 434.666666667 111 400 c 128
 111.666666667 365.333333333 112.5 332.833333333 113.5 302.5 c 128
 114.5 272.166666667 115.5 241.5 116.5 210.5 c 128
 117.5 179.5 118.666666667 147.166666667 120 113.5 c 128
 121.333333333 79.8333333333 122.666666667 42.6666666667 124 2 c 1
 55 -4 l 1
 55 57.3333333333 54.8333333333 112.833333333 54.5 162.5 c 128
 54.1666666667 212.166666667 53.5 261.333333333 52.5 310 c 128
 51.5 358.666666667 50 409.5 48 462.5 c 128
 46 515.5 43.3333333333 576.333333333 40 645 c 1
 107 652 l 1
 107 652 l 1
EndSplineSet
Validated: 5
Layer: 2
Layer: 3
EndChar

StartChar: J
Encoding: 74 74 64
Width: 258
Flags: HMW
LayerCount: 4
Back
Fore
SplineSet
220 128 m 0
 220 101.333333333 217.833333333 79.5 213.5 62.5 c 128
 209.166666667 45.5 202.833333333 32 194.5 22 c 128
 186.166666667 12 175.333333333 5.16666666667 162 1.5 c 128
 148.666666667 -2.16666666667 133 -4 115 -4 c 0
 93.6666666667 -4 75.1666666667 -3 59.5 -1 c 128
 43.8333333333 1 29.3333333333 3.66666666667 16 7 c 1
 25 71 l 1
 42.3333333333 67 59.3333333333 63.5 76 60.5 c 128
 92.6666666667 57.5 107 56 119 56 c 0
 132.333333333 56 142.166666667 60.8333333333 148.5 70.5 c 128
 154.833333333 80.1666666667 158 99 158 127 c 0
 158 152.333333333 157.833333333 182.666666667 157.5 218 c 128
 157.166666667 253.333333333 156.5 293 155.5 337 c 128
 154.5 381 152.833333333 428.666666667 150.5 480 c 128
 148.166666667 531.333333333 145.333333333 585.666666667 142 643 c 1
 209 653 l 1
 209.666666667 605 210.666666667 555 212 503 c 128
 213.333333333 451 214.666666667 401 216 353 c 128
 217.333333333 305 218.333333333 261.166666667 219 221.5 c 128
 219.666666667 181.833333333 220 150.666666667 220 128 c 0
EndSplineSet
Validated: 1
Layer: 2
Layer: 3
EndChar

StartChar: K
Encoding: 75 75 65
Width: 342
Flags: HMW
LayerCount: 4
Back
Fore
SplineSet
117 649 m 1
 117.666666667 597.666666667 118.333333333 551.666666667 119 511 c 128
 119.666666667 470.333333333 120.5 432.833333333 121.5 398.5 c 128
 122.5 364.166666667 123.5 332 124.5 302 c 128
 125.5 272 126.666666667 241.666666667 128 211 c 128
 129.333333333 180.333333333 130.666666667 148.333333333 132 115 c 128
 133.333333333 81.6666666667 134.666666667 44.6666666667 136 4 c 1
 68 -7 l 1
 68 54.3333333333 67.6666666667 110 67 160 c 128
 66.3333333333 210 65.5 259.5 64.5 308.5 c 128
 63.5 357.5 61.8333333333 408.666666667 59.5 462 c 128
 57.1666666667 515.333333333 54.3333333333 576.333333333 51 645 c 1
 117 649 l 1
 117 649 l 1
116 314 m 1
 124.666666667 328.666666667 134.666666667 351.166666667 146 381.5 c 128
 157.333333333 411.833333333 168.666666667 444 180 478 c 128
 191.333333333 512 201.5 544.833333333 210.5 576.5 c 128
 219.5 608.166666667 226 633 230 651 c 1
 299 632 l 1
 289.666666667 610 279.666666667 585.5 269 558.5 c 128
 258.333333333 531.5 247.5 504.166666667 236.5 476.5 c 128
 225.5 448.833333333 214.833333333 422.166666667 204.5 396.5 c 128
 194.166666667 370.833333333 185 348.666666667 177 330 c 1
 187 310 199 286.166666667 213 258.5 c 128
 227 230.833333333 241.5 202.666666667 256.5 174 c 128
 271.5 145.333333333 286.5 117.5 301.5 90.5 c 128
 316.5 63.5 329.666666667 40.6666666667 341 22 c 1
 280 -13 l 1
 272.666666667 1 262.166666667 22.3333333333 248.5 51 c 128
 234.833333333 79.6666666667 220 110.166666667 204 142.5 c 128
 188 174.833333333 172 206.666666667 156 238 c 128
 140 269.333333333 126.666666667 294.666666667 116 314 c 1
EndSplineSet
Validated: 5
Layer: 2
Layer: 3
EndChar

StartChar: L
Encoding: 76 76 66
Width: 290
Flags: HMW
LayerCount: 4
Back
Fore
SplineSet
122 653 m 1
 122.666666667 586.333333333 123.333333333 526.833333333 124 474.5 c 128
 124.666666667 422.166666667 125.333333333 371.666666667 126 323 c 128
 126.666666667 274.333333333 127.5 225.166666667 128.5 175.5 c 128
 129.5 125.833333333 131 70.6666666667 133 10 c 1
 68 -6 l 1
 68 55.3333333333 67.8333333333 110.666666667 67.5 160 c 128
 67.1666666667 209.333333333 66.6666666667 258.333333333 66 307 c 128
 65.3333333333 355.666666667 64 406.5 62 459.5 c 128
 60 512.5 57.3333333333 573.333333333 54 642 c 1
 122 653 l 1
 122 653 l 1
287 64 m 1
 288 0 l 1
 68 -6 l 1
 84 49 l 1
 287 64 l 1
EndSplineSet
Validated: 5
Layer: 2
Layer: 3
EndChar

StartChar: M
Encoding: 77 77 67
Width: 450
Flags: HMW
LayerCount: 4
Back
Fore
SplineSet
333 510 m 1
 327.666666667 478 321.5 441.5 314.5 400.5 c 128
 307.5 359.5 300.166666667 317.166666667 292.5 273.5 c 128
 284.833333333 229.833333333 277.5 186.666666667 270.5 144 c 128
 263.5 101.333333333 257.333333333 62.3333333333 252 27 c 1
 191 24 l 1
 185.666666667 56 178.5 93.3333333333 169.5 136 c 128
 160.5 178.666666667 150.666666667 222.5 140 267.5 c 128
 129.333333333 312.5 119 356.333333333 109 399 c 128
 99 441.666666667 90.6666666667 479 84 511 c 1
 84.6666666667 483 85.5 447.333333333 86.5 404 c 128
 87.5 360.666666667 88.5 315.166666667 89.5 267.5 c 128
 90.5 219.833333333 91.5 172.5 92.5 125.5 c 128
 93.5 78.5 95 37.3333333333 97 2 c 1
 30 -3 l 1
 30.6666666667 18.3333333333 31.5 45.6666666667 32.5 79 c 128
 33.5 112.333333333 34.1666666667 148.833333333 34.5 188.5 c 128
 34.8333333333 228.166666667 35 269.5 35 312.5 c 128
 35 377 35 377 35 438.5 c 128
 35 479.5 34.8333333333 517.833333333 34.5 553.5 c 128
 34.1666666667 589.166666667 33.6666666667 619.333333333 33 644 c 1
 45 646 59.3333333333 648 76 650 c 128
 92.6666666667 652 107 653.666666667 119 655 c 1
 121 639.666666667 124.5 619.666666667 129.5 595 c 128
 134.5 570.333333333 140.166666667 543 146.5 513 c 128
 152.833333333 483 159.5 451.5 166.5 418.5 c 128
 173.5 385.5 180.5 353.166666667 187.5 321.5 c 128
 194.5 289.833333333 201.333333333 260 208 232 c 128
 214.666666667 204 220.333333333 179.666666667 225 159 c 1
 229 180.333333333 233.666666667 206.166666667 239 236.5 c 128
 244.333333333 266.833333333 249.833333333 298.666666667 255.5 332 c 128
 261.166666667 365.333333333 266.666666667 398.833333333 272 432.5 c 128
 277.333333333 466.166666667 282.166666667 497.5 286.5 526.5 c 128
 290.833333333 555.5 294.666666667 580.666666667 298 602 c 128
 301.333333333 623.333333333 303.666666667 638.333333333 305 647 c 1
 384 653 l 1
 385.333333333 631.666666667 386.833333333 604.666666667 388.5 572 c 128
 390.166666667 539.333333333 391.833333333 503.5 393.5 464.5 c 128
 395.166666667 425.5 397 384.666666667 399 342 c 128
 401 299.333333333 403.166666667 257.333333333 405.5 216 c 128
 407.833333333 174.666666667 410.166666667 135.666666667 412.5 99 c 128
 414.833333333 62.3333333333 417.333333333 30.3333333333 420 3 c 1
 349 -7 l 1
 349 25 348.333333333 64 347 110 c 128
 345.666666667 156 344 203.166666667 342 251.5 c 128
 340 299.833333333 338.166666667 347 336.5 393 c 128
 334.833333333 439 333.666666667 478 333 510 c 1
EndSplineSet
Validated: 1
Layer: 2
Layer: 3
EndChar

StartChar: N
Encoding: 78 78 68
Width: 364
Flags: HMW
LayerCount: 4
Back
Fore
SplineSet
233 -7 m 1
 228.333333333 14.3333333333 222.5 39.3333333333 215.5 68 c 128
 208.5 96.6666666667 201 127 193 159 c 128
 185 191 176.666666667 223.833333333 168 257.5 c 128
 159.333333333 291.166666667 150.666666667 324 142 356 c 128
 133.333333333 388 125.166666667 418.333333333 117.5 447 c 128
 109.833333333 475.666666667 103 500.666666667 97 522 c 1
 97.6666666667 494 98.8333333333 457.833333333 100.5 413.5 c 128
 102.166666667 369.166666667 104 322.5 106 273.5 c 128
 108 224.5 109.833333333 175.833333333 111.5 127.5 c 128
 113.166666667 79.1666666667 115 37.3333333333 117 2 c 1
 49 -3 l 1
 49.6666666667 18.3333333333 50 45.1666666667 50 77.5 c 128
 50 109.833333333 49.8333333333 145.333333333 49.5 184 c 128
 49.1666666667 222.666666667 48.8333333333 263.166666667 48.5 305.5 c 128
 48.1666666667 347.833333333 47.5 389.333333333 46.5 430 c 128
 45.5 470.666666667 44.5 509.5 43.5 546.5 c 128
 42.5 583.5 41.3333333333 616 40 644 c 1
 52 646 67.1666666667 648 85.5 650 c 128
 103.833333333 652 119 653.666666667 131 655 c 1
 134.333333333 639.666666667 139 618.833333333 145 592.5 c 128
 151 566.166666667 158 537 166 505 c 128
 174 473 182.5 439.166666667 191.5 403.5 c 128
 200.5 367.833333333 209.333333333 333.166666667 218 299.5 c 128
 226.666666667 265.833333333 234.833333333 234.166666667 242.5 204.5 c 128
 250.166666667 174.833333333 256.666666667 149.666666667 262 129 c 1
 262 161 261.333333333 195.333333333 260 232 c 128
 258.666666667 268.666666667 257.166666667 308 255.5 350 c 128
 253.833333333 392 251.666666667 437.333333333 249 486 c 128
 246.333333333 534.666666667 243.666666667 587.333333333 241 644 c 1
 312 657 l 1
 312 605.666666667 312.166666667 559.5 312.5 518.5 c 128
 312.833333333 477.5 313.166666667 439.5 313.5 404.5 c 128
 313.833333333 369.5 314.333333333 336.666666667 315 306 c 128
 315.666666667 275.333333333 316.333333333 244.333333333 317 213 c 128
 317.666666667 181.666666667 318.666666667 149.166666667 320 115.5 c 128
 321.333333333 81.8333333333 322.666666667 44.6666666667 324 4 c 1
 233 -7 l 1
EndSplineSet
Validated: 1
Layer: 2
Layer: 3
EndChar

StartChar: O
Encoding: 79 79 69
Width: 355
Flags: HMW
LayerCount: 4
Back
Fore
SplineSet
179 658 m 0
 209.666666667 658 234.166666667 649.5 252.5 632.5 c 128
 270.833333333 615.5 285 591.166666667 295 559.5 c 128
 305 527.833333333 311.666666667 489.166666667 315 443.5 c 128
 318.333333333 397.833333333 320 346.333333333 320 289 c 0
 320 247.666666667 318.333333333 208.833333333 315 172.5 c 128
 311.666666667 136.166666667 304.833333333 104.5 294.5 77.5 c 128
 284.166666667 50.5 269.333333333 29.1666666667 250 13.5 c 128
 230.666666667 -2.16666666667 205 -10 173 -10 c 0
 148.333333333 -10 127.166666667 -4.16666666667 109.5 7.5 c 128
 91.8333333333 19.1666666667 77.5 37.8333333333 66.5 63.5 c 128
 55.5 89.1666666667 47.5 122.333333333 42.5 163 c 128
 37.5 203.666666667 35 252.666666667 35 310 c 0
 35 370 37.1666666667 421.833333333 41.5 465.5 c 128
 45.8333333333 509.166666667 53.5 545.333333333 64.5 574 c 128
 75.5 602.666666667 90.1666666667 623.833333333 108.5 637.5 c 128
 126.833333333 651.166666667 150.333333333 658 179 658 c 0
253 319 m 0
 253 375.666666667 251.333333333 422.166666667 248 458.5 c 128
 244.666666667 494.833333333 239.666666667 523.5 233 544.5 c 128
 226.333333333 565.5 218.166666667 580 208.5 588 c 128
 198.833333333 596 187.666666667 600 175 600 c 0
 145 600 125 576.833333333 115 530.5 c 128
 105 484.166666667 100 414.333333333 100 321 c 0
 100 269.666666667 101.5 226.666666667 104.5 192 c 128
 107.5 157.333333333 112.5 129.5 119.5 108.5 c 128
 126.5 87.5 135.333333333 72.3333333333 146 63 c 128
 156.666666667 53.6666666667 170 49 186 49 c 0
 198 49 208.333333333 54 217 64 c 128
 225.666666667 74 232.666666667 89.6666666667 238 111 c 128
 243.333333333 132.333333333 247.166666667 160.166666667 249.5 194.5 c 128
 251.833333333 228.833333333 253 270.333333333 253 319 c 0
EndSplineSet
Validated: 1
Layer: 2
Layer: 3
EndChar

StartChar: P
Encoding: 80 80 70
Width: 337
Flags: HMW
LayerCount: 4
Back
Fore
SplineSet
60 -3 m 1
 63.3333333333 94.3333333333 65 192.333333333 65 291 c 128
 65 389.666666667 62.6666666667 487.666666667 58 585 c 1
 17 578 l 1
 10 632 l 1
 26 636.666666667 48.3333333333 641.5 77 646.5 c 128
 105.666666667 651.5 137.666666667 654 173 654 c 0
 221.666666667 654 257.833333333 640.666666667 281.5 614 c 128
 305.166666667 587.333333333 317 540 317 472 c 0
 317 410 300 361.833333333 266 327.5 c 128
 232 293.166666667 184.666666667 274.333333333 124 271 c 1
 124 319 l 1
 149.333333333 323 170.166666667 329 186.5 337 c 128
 202.833333333 345 215.666666667 355.5 225 368.5 c 128
 234.333333333 381.5 240.666666667 396.833333333 244 414.5 c 128
 247.333333333 432.166666667 249 452.666666667 249 476 c 0
 249 496.666666667 247.166666667 515.333333333 243.5 532 c 128
 239.833333333 548.666666667 233.166666667 562.333333333 223.5 573 c 128
 213.833333333 583.666666667 200.666666667 590.833333333 184 594.5 c 128
 167.333333333 598.166666667 146 597.666666667 120 593 c 1
 122.666666667 495.666666667 124.333333333 397.333333333 125 298 c 128
 125.666666667 198.666666667 126 100.333333333 126 3 c 1
 60 -3 l 1
EndSplineSet
Validated: 37
Layer: 2
Layer: 3
EndChar

StartChar: Q
Encoding: 81 81 71
Width: 365
Flags: HMW
LayerCount: 4
Back
Fore
SplineSet
184 658 m 0
 214.666666667 658 239.166666667 649.333333333 257.5 632 c 128
 275.833333333 614.666666667 290 589.666666667 300 557 c 128
 310 524.333333333 316.666666667 485 320 439 c 128
 323.333333333 393 325 341.333333333 325 284 c 0
 325 242.666666667 323.333333333 204.166666667 320 168.5 c 128
 316.666666667 132.833333333 309.833333333 101.666666667 299.5 75 c 128
 289.166666667 48.3333333333 274.333333333 27.5 255 12.5 c 128
 235.666666667 -2.5 210 -10 178 -10 c 0
 153.333333333 -10 132.166666667 -3.83333333333 114.5 8.5 c 128
 96.8333333333 20.8333333333 82.5 40.1666666667 71.5 66.5 c 128
 60.5 92.8333333333 52.5 126.5 47.5 167.5 c 128
 42.5 208.5 40 257.666666667 40 315 c 0
 40 375 42.1666666667 426.666666667 46.5 470 c 128
 50.8333333333 513.333333333 58.5 548.833333333 69.5 576.5 c 128
 80.5 604.166666667 95.1666666667 624.666666667 113.5 638 c 128
 131.833333333 651.333333333 155.333333333 658 184 658 c 0
258 314 m 0
 258 370.666666667 256 417.5 252 454.5 c 128
 248 491.5 242.5 520.666666667 235.5 542 c 128
 228.5 563.333333333 220 578.333333333 210 587 c 128
 200 595.666666667 188.666666667 600 176 600 c 0
 146 600 126.666666667 577.666666667 118 533 c 128
 109.333333333 488.333333333 105 419.333333333 105 326 c 0
 105 274.666666667 106.666666667 231.333333333 110 196 c 128
 113.333333333 160.666666667 118.5 131.666666667 125.5 109 c 128
 132.5 86.3333333333 141.5 70 152.5 60 c 128
 163.5 50 177 45 193 45 c 0
 205 45 215.166666667 49.8333333333 223.5 59.5 c 128
 231.833333333 69.1666666667 238.5 84.8333333333 243.5 106.5 c 128
 248.5 128.166666667 252.166666667 156 254.5 190 c 128
 256.833333333 224 258 265.333333333 258 314 c 0
207 0 m 1
 240 -110 l 1
 157 -123 l 1
 157 0 l 1
 207 0 l 1
EndSplineSet
Validated: 5
Layer: 2
Layer: 3
EndChar

StartChar: R
Encoding: 82 82 72
Width: 337
Flags: HMW
LayerCount: 4
Back
Fore
SplineSet
60 -6 m 1
 63.3333333333 91.3333333333 65 190.5 65 291.5 c 128
 65 392.5 62.6666666667 491.666666667 58 589 c 1
 17 583 l 1
 10 639 l 1
 35.3333333333 643.666666667 60.5 647.333333333 85.5 650 c 128
 110.5 652.666666667 134.333333333 654 157 654 c 0
 203.666666667 654 238 642.666666667 260 620 c 128
 282 597.333333333 293 557.666666667 293 501 c 0
 293 463.666666667 286.666666667 433.5 274 410.5 c 128
 261.333333333 387.5 244 368.333333333 222 353 c 1
 235.333333333 347.666666667 244.833333333 340.166666667 250.5 330.5 c 128
 256.166666667 320.833333333 260.666666667 310 264 298 c 0
 269.333333333 276.666666667 275.166666667 243.166666667 281.5 197.5 c 128
 287.833333333 151.833333333 300.666666667 89.3333333333 320 10 c 1
 245 -8 l 1
 240.333333333 24.6666666667 236 56.5 232 87.5 c 128
 228 118.5 224.166666667 147.166666667 220.5 173.5 c 128
 216.833333333 199.833333333 213.166666667 222.666666667 209.5 242 c 128
 205.833333333 261.333333333 202.333333333 275.666666667 199 285 c 0
 194.333333333 297.666666667 186.833333333 307.833333333 176.5 315.5 c 128
 166.166666667 323.166666667 148 323.666666667 122 317 c 1
 121 360 l 1
 143.666666667 364 161.833333333 369.833333333 175.5 377.5 c 128
 189.166666667 385.166666667 199.666666667 394.666666667 207 406 c 128
 214.333333333 417.333333333 219.166666667 430.333333333 221.5 445 c 128
 223.833333333 459.666666667 225 475.666666667 225 493 c 0
 225 511 223.5 527 220.5 541 c 128
 217.5 555 212 566.333333333 204 575 c 128
 196 583.666666667 185.166666667 589.666666667 171.5 593 c 128
 157.833333333 596.333333333 140.333333333 596.666666667 119 594 c 1
 121.666666667 496.666666667 123.5 398.5 124.5 299.5 c 128
 125.5 200.5 126.666666667 102.333333333 128 5 c 1
 60 -6 l 1
EndSplineSet
Validated: 37
Layer: 2
Layer: 3
EndChar

StartChar: S
Encoding: 83 83 73
Width: 275
Flags: HMW
LayerCount: 4
Back
Fore
SplineSet
214 595 m 1
 200 597 187.5 599 176.5 601 c 128
 165.5 603 155 604 145 604 c 0
 125.666666667 604 110.5 599 99.5 589 c 128
 88.5 579 83 564.333333333 83 545 c 0
 83 517.666666667 89.6666666667 488.833333333 103 458.5 c 128
 116.333333333 428.166666667 134 396 156 362 c 0
 188 312.666666667 212.5 268.833333333 229.5 230.5 c 128
 246.5 192.166666667 255 158 255 128 c 0
 255 76.6666666667 241.833333333 41.1666666667 215.5 21.5 c 128
 189.166666667 1.83333333333 151 -8 101 -8 c 0
 87.6666666667 -8 74.5 -7.16666666667 61.5 -5.5 c 128
 48.5 -3.83333333333 35.3333333333 -0.333333333333 22 5 c 1
 30 55 l 1
 43.3333333333 52.3333333333 56.6666666667 50.3333333333 70 49 c 128
 83.3333333333 47.6666666667 97 47 111 47 c 0
 143 47 164.666666667 51.8333333333 176 61.5 c 128
 187.333333333 71.1666666667 193 88.6666666667 193 114 c 0
 193 142 186 171.166666667 172 201.5 c 128
 158 231.833333333 139.333333333 266 116 304 c 0
 106 320.666666667 95.3333333333 338.333333333 84 357 c 128
 72.6666666667 375.666666667 62.1666666667 395.333333333 52.5 416 c 128
 42.8333333333 436.666666667 35 457.666666667 29 479 c 128
 23 500.333333333 20 522 20 544 c 0
 20 582 31.3333333333 610.5 54 629.5 c 128
 76.6666666667 648.5 108.666666667 658 150 658 c 0
 165.333333333 658 178.5 657.166666667 189.5 655.5 c 128
 200.5 653.833333333 211.666666667 651.333333333 223 648 c 1
 214 595 l 1
EndSplineSet
Validated: 1
Layer: 2
Layer: 3
EndChar

StartChar: T
Encoding: 84 84 74
Width: 272
Flags: HMW
LayerCount: 4
Back
Fore
SplineSet
170 623 m 1
 170.666666667 570.333333333 171.5 519.833333333 172.5 471.5 c 128
 173.5 423.166666667 174.833333333 374.5 176.5 325.5 c 128
 178.166666667 276.5 180 225.833333333 182 173.5 c 128
 184 121.166666667 186 64.6666666667 188 4 c 1
 117 -7 l 1
 117 54.3333333333 116.833333333 111 116.5 163 c 128
 116.166666667 215 115.666666667 265.5 115 314.5 c 128
 114.333333333 363.5 113.333333333 412.333333333 112 461 c 128
 110.666666667 509.666666667 108.666666667 561.333333333 106 616 c 1
 170 623 l 1
 170 623 l 1
280 654 m 1
 282 597 l 1
 152 594 l 1
 -9 585 l 1
 -10 642 l 1
 280 654 l 1
EndSplineSet
Validated: 5
Layer: 2
Layer: 3
EndChar

StartChar: U
Encoding: 85 85 75
Width: 349
Flags: HMW
LayerCount: 4
Back
Fore
SplineSet
307 652 m 1
 307 590.666666667 307.166666667 535.666666667 307.5 487 c 128
 307.833333333 438.333333333 308.166666667 394.5 308.5 355.5 c 128
 308.833333333 316.5 309 282 309 252 c 128
 309 207 309 207 309 171 c 0
 309 137 305.666666667 108.666666667 299 86 c 128
 292.333333333 63.3333333333 283.5 45 272.5 31 c 128
 261.5 17 248.666666667 7 234 1 c 128
 219.333333333 -5 204.333333333 -8 189 -8 c 0
 169 -8 151.5 -5.33333333333 136.5 0 c 128
 121.5 5.33333333333 108.833333333 14.3333333333 98.5 27 c 128
 88.1666666667 39.6666666667 79.8333333333 56.3333333333 73.5 77 c 128
 67.1666666667 97.6666666667 63 123.333333333 61 154 c 0
 57.6666666667 202 54.3333333333 267.333333333 51 350 c 128
 47.6666666667 432.666666667 43.3333333333 530.666666667 38 644 c 1
 108 650 l 1
 109.333333333 530.666666667 111.666666667 430.5 115 349.5 c 128
 118.333333333 268.5 121.666666667 206.666666667 125 164 c 0
 127.666666667 124.666666667 133.166666667 95.8333333333 141.5 77.5 c 128
 149.833333333 59.1666666667 165 50 187 50 c 0
 198.333333333 50 207.833333333 51.8333333333 215.5 55.5 c 128
 223.166666667 59.1666666667 229.5 65.8333333333 234.5 75.5 c 128
 239.5 85.1666666667 243 97.8333333333 245 113.5 c 128
 247 129.166666667 248 149 248 173 c 0
 248 194.333333333 247.666666667 223 247 259 c 128
 246.333333333 295 245.5 334.5 244.5 377.5 c 128
 243.5 420.5 242.333333333 465.333333333 241 512 c 128
 239.666666667 558.666666667 238 603 236 645 c 1
 307 652 l 1
 307 652 l 1
EndSplineSet
Validated: 5
Layer: 2
Layer: 3
EndChar

StartChar: V
Encoding: 86 86 76
Width: 302
Flags: HMW
LayerCount: 4
Back
Fore
SplineSet
164 115 m 1
 169.333333333 147 175 183.833333333 181 225.5 c 128
 187 267.166666667 193 311.5 199 358.5 c 128
 205 405.5 210.666666667 453.833333333 216 503.5 c 128
 221.333333333 553.166666667 226.333333333 602 231 650 c 1
 304 647 l 1
 298 615 291.5 578.666666667 284.5 538 c 128
 277.5 497.333333333 270.666666667 455.166666667 264 411.5 c 128
 257.333333333 367.833333333 250.5 324.5 243.5 281.5 c 128
 236.5 238.5 230.333333333 198.5 225 161.5 c 128
 219.666666667 124.5 214.833333333 92 210.5 64 c 128
 206.166666667 36 203 15.6666666667 201 3 c 1
 125 -3 l 1
 122.333333333 17.6666666667 118.166666667 44.3333333333 112.5 77 c 128
 106.833333333 109.666666667 100.166666667 145.333333333 92.5 184 c 128
 84.8333333333 222.666666667 76.8333333333 263.166666667 68.5 305.5 c 128
 60.1666666667 347.833333333 51.6666666667 389.5 43 430.5 c 128
 34.3333333333 471.5 26.1666666667 510.166666667 18.5 546.5 c 128
 10.8333333333 582.833333333 4 614.666666667 -2 642 c 1
 70 653 l 1
 73.3333333333 631.666666667 77.3333333333 606.5 82 577.5 c 128
 86.6666666667 548.5 91.6666666667 517.666666667 97 485 c 128
 102.333333333 452.333333333 108.166666667 418.666666667 114.5 384 c 128
 120.833333333 349.333333333 127 315.666666667 133 283 c 128
 139 250.333333333 144.666666667 219.5 150 190.5 c 128
 155.333333333 161.5 160 136.333333333 164 115 c 1
EndSplineSet
Validated: 1
Layer: 2
Layer: 3
EndChar

StartChar: W
Encoding: 87 87 77
Width: 470
Flags: HMW
LayerCount: 4
Back
Fore
SplineSet
145 112 m 1
 149.666666667 144 154.666666667 181.166666667 160 223.5 c 128
 165.333333333 265.833333333 170.666666667 309.5 176 354.5 c 128
 181.333333333 399.5 186.833333333 444.166666667 192.5 488.5 c 128
 198.166666667 532.833333333 203.666666667 572.666666667 209 608 c 1
 275 611 l 1
 279.666666667 579 285 541.166666667 291 497.5 c 128
 297 453.833333333 303.333333333 409 310 363 c 128
 316.666666667 317 323.5 272.166666667 330.5 228.5 c 128
 337.5 184.833333333 344 147 350 115 c 1
 354 146.333333333 358.166666667 185.166666667 362.5 231.5 c 128
 366.833333333 277.833333333 371.166666667 326 375.5 376 c 128
 379.833333333 426 383.666666667 475.333333333 387 524 c 128
 390.333333333 572.666666667 393 614.666666667 395 650 c 1
 472 647 l 1
 468 625.666666667 463.333333333 596.833333333 458 560.5 c 128
 452.666666667 524.166666667 447 484.333333333 441 441 c 128
 435 397.666666667 428.833333333 353.166666667 422.5 307.5 c 128
 416.166666667 261.833333333 410.166666667 218.666666667 404.5 178 c 128
 398.833333333 137.333333333 393.833333333 101.666666667 389.5 71 c 128
 385.166666667 40.3333333333 382 18.6666666667 380 6 c 1
 368 4 355.5 2 342.5 0 c 128
 329.5 -2 317 -3.66666666667 305 -5 c 1
 302 18 302 18 297.5 52.5 c 128
 294.5 75.5 291 100.833333333 287 128.5 c 128
 283 156.166666667 279 185 275 215 c 128
 271 245 267 274.666666667 263 304 c 128
 259 333.333333333 254.833333333 361.166666667 250.5 387.5 c 128
 246.166666667 413.833333333 242.333333333 437.333333333 239 458 c 1
 235.666666667 436.666666667 232 411.666666667 228 383 c 128
 224 354.333333333 220 324.666666667 216 294 c 128
 212 263.333333333 208 232.5 204 201.5 c 128
 200 170.5 196.5 141.666666667 193.5 115 c 128
 190.5 88.3333333333 187.666666667 65.1666666667 185 45.5 c 128
 182.333333333 25.8333333333 180.333333333 11.6666666667 179 3 c 1
 104 -3 l 1
 101.333333333 17.6666666667 97.5 44.3333333333 92.5 77 c 128
 87.5 109.666666667 82 145.5 76 184.5 c 128
 70 223.5 63.5 264.166666667 56.5 306.5 c 128
 49.5 348.833333333 42.6666666667 390.5 36 431.5 c 128
 29.3333333333 472.5 22.6666666667 511.333333333 16 548 c 128
 9.33333333333 584.666666667 3.33333333333 616.666666667 -2 644 c 1
 71 654 l 1
 73.6666666667 632.666666667 77 607.333333333 81 578 c 128
 85 548.666666667 89 517.5 93 484.5 c 128
 97 451.5 101.166666667 417.666666667 105.5 383 c 128
 109.833333333 348.333333333 114.333333333 314.5 119 281.5 c 128
 123.666666667 248.5 128.166666667 217.333333333 132.5 188 c 128
 136.833333333 158.666666667 141 133.333333333 145 112 c 1
EndSplineSet
Validated: 1
Layer: 2
Layer: 3
EndChar

StartChar: X
Encoding: 88 88 78
Width: 310
Flags: HMW
LayerCount: 4
Back
Fore
SplineSet
152 391 m 1
 156.666666667 408.333333333 162 427.666666667 168 449 c 128
 174 470.333333333 179.833333333 492.5 185.5 515.5 c 128
 191.166666667 538.5 196.666666667 561.666666667 202 585 c 128
 207.333333333 608.333333333 212 630.666666667 216 652 c 1
 281 646 l 1
 261.666666667 582.666666667 244.666666667 526.166666667 230 476.5 c 128
 215.333333333 426.833333333 201.333333333 380 188 336 c 1
 197.333333333 308.666666667 206.666666667 282.333333333 216 257 c 128
 225.333333333 231.666666667 235 206.166666667 245 180.5 c 128
 255 154.833333333 265.333333333 128.333333333 276 101 c 128
 286.666666667 73.6666666667 298 45 310 15 c 1
 246 -13 l 1
 239.333333333 9 231.833333333 32.8333333333 223.5 58.5 c 128
 215.166666667 84.1666666667 206.5 110 197.5 136 c 128
 188.5 162 179.833333333 187.166666667 171.5 211.5 c 128
 163.166666667 235.833333333 155.666666667 258 149 278 c 1
 139 238 127 192.5 113 141.5 c 128
 99 90.5 86.3333333333 41.3333333333 75 -6 c 1
 8 0 l 1
 26 61.3333333333 44.5 119.833333333 63.5 175.5 c 128
 82.5 231.166666667 99 286.333333333 113 341 c 1
 97.6666666667 386.333333333 80.3333333333 431.833333333 61 477.5 c 128
 41.6666666667 523.166666667 21.3333333333 574 0 630 c 1
 65 660 l 1
 71.6666666667 638 78.8333333333 614.666666667 86.5 590 c 128
 94.1666666667 565.333333333 102 541 110 517 c 128
 118 493 125.5 470.166666667 132.5 448.5 c 128
 139.5 426.833333333 146 407.666666667 152 391 c 1
EndSplineSet
Validated: 1
Layer: 2
Layer: 3
EndChar

StartChar: Y
Encoding: 89 89 79
Width: 278
Flags: HMW
LayerCount: 4
Back
Fore
SplineSet
147 336 m 1
 152.333333333 360 157.5 383.166666667 162.5 405.5 c 128
 167.5 427.833333333 172.666666667 451.166666667 178 475.5 c 128
 183.333333333 499.833333333 188.666666667 526.166666667 194 554.5 c 128
 199.333333333 582.833333333 204.666666667 614.666666667 210 650 c 1
 278 647 l 1
 270 615 261.333333333 581 252 545 c 128
 242.666666667 509 233.166666667 473.666666667 223.5 439 c 128
 213.833333333 404.333333333 204.833333333 372.166666667 196.5 342.5 c 128
 188.166666667 312.833333333 181 288.333333333 175 269 c 1
 175.666666667 216.333333333 176.666666667 168.166666667 178 124.5 c 128
 179.333333333 80.8333333333 181 40 183 2 c 1
 114 -4 l 1
 113.333333333 34 113 77.3333333333 113 126 c 128
 113 174.666666667 112 222.333333333 110 269 c 1
 103.333333333 299 96 327.666666667 88 355 c 128
 80 382.333333333 71.5 410.5 62.5 439.5 c 128
 53.5 468.5 43.6666666667 499.5 33 532.5 c 128
 22.3333333333 565.5 11.3333333333 602.333333333 0 643 c 1
 65 654 l 1
 71.6666666667 622 78.1666666667 593.333333333 84.5 568 c 128
 90.8333333333 542.666666667 97.1666666667 518.333333333 103.5 495 c 128
 109.833333333 471.666666667 116.666666667 447.333333333 124 422 c 128
 131.333333333 396.666666667 139 368 147 336 c 1
EndSplineSet
Validated: 1
Layer: 2
Layer: 3
EndChar

StartChar: Z
Encoding: 90 90 80
Width: 286
Flags: HMW
LayerCount: 4
Back
Fore
SplineSet
256 610 m 1
 250 590.666666667 242.5 565.666666667 233.5 535 c 128
 224.5 504.333333333 214.666666667 471.166666667 204 435.5 c 128
 193.333333333 399.833333333 182.5 363.166666667 171.5 325.5 c 128
 160.5 287.833333333 150 251.5 140 216.5 c 128
 130 181.5 120.833333333 149.666666667 112.5 121 c 128
 104.166666667 92.3333333333 97.6666666667 69.6666666667 93 53 c 1
 105 53 119.166666667 53.1666666667 135.5 53.5 c 128
 160 54 160 54 184.5 54.5 c 128
 200.833333333 54.8333333333 216.333333333 55.1666666667 231 55.5 c 128
 245.666666667 55.8333333333 257.333333333 56.3333333333 266 57 c 1
 264 0 l 1
 28 -1 l 1
 21 34 l 1
 33.6666666667 72.6666666667 48 117.333333333 64 168 c 128
 80 218.666666667 95.8333333333 269.666666667 111.5 321 c 128
 127.166666667 372.333333333 141.833333333 421.833333333 155.5 469.5 c 128
 169.166666667 517.166666667 180 558 188 592 c 1
 180 592 180 592 162 592 c 128
 150 592 136.833333333 591.833333333 122.5 591.5 c 128
 108.166666667 591.166666667 93.5 590.833333333 78.5 590.5 c 128
 63.5 590.166666667 50.6666666667 589.666666667 40 589 c 1
 38 648 l 1
 250 648 l 1
 256 610 l 1
 256 610 l 1
EndSplineSet
Validated: 5
Layer: 2
Layer: 3
EndChar

StartChar: bracketleft
Encoding: 91 91 81
Width: 325
Flags: HMW
LayerCount: 4
Back
Fore
SplineSet
103 -105 m 1
 93.6666666667 -105 85.8333333333 -101.833333333 79.5 -95.5 c 128
 73.1666666667 -89.1666666667 70 -81.3333333333 70 -72 c 2
 70 607 l 2
 70 616.333333333 73.1666666667 624.166666667 79.5 630.5 c 128
 85.8333333333 636.833333333 93.6666666667 640 103 640 c 2
 238 640 l 2
 247.333333333 640 255.166666667 636.833333333 261.5 630.5 c 128
 267.833333333 624.166666667 271 616.333333333 271 607 c 256
 271 597.666666667 267.833333333 589.833333333 261.5 583.5 c 128
 255.166666667 577.166666667 247.333333333 574 238 574 c 2
 136 574 l 1
 136 -39 l 1
 238 -39 l 2
 247.333333333 -39 255.166666667 -42.1666666667 261.5 -48.5 c 128
 267.833333333 -54.8333333333 271 -62.6666666667 271 -72 c 256
 271 -81.3333333333 267.833333333 -89.1666666667 261.5 -95.5 c 128
 255.166666667 -101.833333333 247.333333333 -105 238 -105 c 2
 103 -105 l 1
 103 -105 l 1
EndSplineSet
Validated: 5
Layer: 2
Layer: 3
EndChar

StartChar: backslash
Encoding: 92 92 82
Width: 325
Flags: HMW
LayerCount: 4
Back
Fore
SplineSet
324 -62 m 1
 327.333333333 -70 327 -78.1666666667 323 -86.5 c 128
 319 -94.8333333333 312.666666667 -100.666666667 304 -104 c 0
 296 -107.333333333 287.833333333 -107 279.5 -103 c 128
 271.166666667 -99 265.333333333 -92.6666666667 262 -84 c 2
 13 596 l 2
 9.66666666667 604 10 612.166666667 14 620.5 c 128
 18 628.833333333 24.3333333333 634.666666667 33 638 c 0
 41 641.333333333 49.1666666667 641 57.5 637 c 128
 65.8333333333 633 71.6666666667 626.666666667 75 618 c 2
 324 -62 l 1
 324 -62 l 1
EndSplineSet
Validated: 5
Layer: 2
Layer: 3
EndChar

StartChar: bracketright
Encoding: 93 93 83
Width: 325
Flags: HMW
LayerCount: 4
Back
Fore
SplineSet
87 -105 m 1
 77.6666666667 -105 69.8333333333 -101.833333333 63.5 -95.5 c 128
 57.1666666667 -89.1666666667 54 -81.3333333333 54 -72 c 256
 54 -62.6666666667 57.1666666667 -54.8333333333 63.5 -48.5 c 128
 69.8333333333 -42.1666666667 77.6666666667 -39 87 -39 c 2
 189 -39 l 1
 189 574 l 1
 87 574 l 2
 77.6666666667 574 69.8333333333 577.166666667 63.5 583.5 c 128
 57.1666666667 589.833333333 54 597.666666667 54 607 c 256
 54 616.333333333 57.1666666667 624.166666667 63.5 630.5 c 128
 69.8333333333 636.833333333 77.6666666667 640 87 640 c 2
 222 640 l 2
 231.333333333 640 239.166666667 636.833333333 245.5 630.5 c 128
 251.833333333 624.166666667 255 616.333333333 255 607 c 2
 255 -72 l 2
 255 -81.3333333333 251.833333333 -89.1666666667 245.5 -95.5 c 128
 239.166666667 -101.833333333 231.333333333 -105 222 -105 c 2
 87 -105 l 1
 87 -105 l 1
EndSplineSet
Validated: 5
Layer: 2
Layer: 3
EndChar

StartChar: asciicircum
Encoding: 94 94 84
Width: 500
Flags: HMW
LayerCount: 4
Back
Fore
SplineSet
410 224 m 256
 402 220 393.666666667 219.333333333 385 222 c 128
 376.333333333 224.666666667 370 230 366 238 c 0
 348.666666667 272 330.333333333 307.5 311 344.5 c 128
 291.666666667 381.5 271.666666667 419.333333333 251 458 c 1
 230.333333333 419.333333333 210.166666667 381.5 190.5 344.5 c 128
 170.833333333 307.5 152.333333333 272 135 238 c 0
 131 230 124.666666667 224.666666667 116 222 c 128
 107.333333333 219.333333333 99 220 91 224 c 256
 83 228 77.6666666667 234.333333333 75 243 c 128
 72.3333333333 251.666666667 73 260 77 268 c 0
 97.6666666667 308 120.166666667 351 144.5 397 c 128
 168.833333333 443 193 489 217 535 c 0
 220.333333333 541 225 545.666666667 231 549 c 128
 237 552.333333333 243.333333333 553.666666667 250 553 c 0
 264.666666667 555 276 549.333333333 284 536 c 0
 309.333333333 490 333.833333333 443.833333333 357.5 397.5 c 128
 381.166666667 351.166666667 403.333333333 308 424 268 c 0
 428 260 428.666666667 251.666666667 426 243 c 128
 423.333333333 234.333333333 418 228 410 224 c 256
EndSplineSet
Validated: 33
Layer: 2
Layer: 3
EndChar

StartChar: underscore
Encoding: 95 95 85
Width: 545
Flags: HMW
LayerCount: 4
Back
Fore
SplineSet
32 -97 m 256
 32 -87.6666666667 35.1666666667 -79.8333333333 41.5 -73.5 c 128
 47.8333333333 -67.1666666667 55.6666666667 -64 65 -64 c 2
 480 -64 l 2
 489.333333333 -64 497.166666667 -67.1666666667 503.5 -73.5 c 128
 509.833333333 -79.8333333333 513 -87.6666666667 513 -97 c 256
 513 -106.333333333 509.833333333 -114.166666667 503.5 -120.5 c 128
 497.166666667 -126.833333333 489.333333333 -130 480 -130 c 2
 65 -130 l 2
 55.6666666667 -130 47.8333333333 -126.833333333 41.5 -120.5 c 128
 35.1666666667 -114.166666667 32 -106.333333333 32 -97 c 256
EndSplineSet
Validated: 1
Layer: 2
Layer: 3
EndChar

StartChar: grave
Encoding: 96 96 86
Width: 500
Flags: HMW
LayerCount: 4
Back
Fore
SplineSet
199 617 m 256
 206.333333333 622.333333333 214.666666667 624.666666667 224 624 c 128
 233.333333333 623.333333333 240.666666667 619.333333333 246 612 c 0
 253.333333333 602.666666667 259.833333333 594.333333333 265.5 587 c 128
 271.166666667 579.666666667 276.5 572.5 281.5 565.5 c 128
 286.5 558.5 291.666666667 551 297 543 c 128
 302.333333333 535 308 526 314 516 c 0
 318.666666667 508.666666667 319.833333333 500.5 317.5 491.5 c 128
 315.166666667 482.5 310.333333333 475.666666667 303 471 c 256
 295.666666667 466.333333333 287.5 465.166666667 278.5 467.5 c 128
 269.5 469.833333333 262.666666667 474.666666667 258 482 c 0
 246.666666667 500.666666667 236.5 515.833333333 227.5 527.5 c 128
 218.5 539.166666667 207.333333333 553.333333333 194 570 c 0
 188.666666667 577.333333333 186.333333333 585.666666667 187 595 c 128
 187.666666667 604.333333333 191.666666667 611.666666667 199 617 c 256
EndSplineSet
Validated: 1
Layer: 2
Layer: 3
EndChar

StartChar: a
Encoding: 97 97 87
Width: 340
Flags: HMW
LayerCount: 4
Back
Fore
SplineSet
177 448 m 0
 151 448 130.666666667 429.833333333 116 393.5 c 128
 101.333333333 357.166666667 94 301.666666667 94 227 c 0
 94 191.666666667 95 163 97 141 c 128
 99 119 102.166666667 102 106.5 90 c 128
 110.833333333 78 116.333333333 69.8333333333 123 65.5 c 128
 129.666666667 61.1666666667 137.666666667 59 147 59 c 0
 159 59 169.333333333 66 178 80 c 128
 186.666666667 94 194 116 200 146 c 128
 206 176 210.666666667 214.833333333 214 262.5 c 128
 217.333333333 310.166666667 220 367.666666667 222 435 c 1
 216 440.333333333 209.333333333 443.833333333 202 445.5 c 128
 194.666666667 447.166666667 186.333333333 448 177 448 c 0
288 470 m 1
 288.666666667 422.666666667 289.5 379.5 290.5 340.5 c 128
 291.5 301.5 292.666666667 264 294 228 c 128
 295.333333333 192 296.833333333 156.166666667 298.5 120.5 c 128
 300.166666667 84.8333333333 302.333333333 46.6666666667 305 6 c 1
 244 -6 l 1
 245 169 l 1
 240.333333333 143 235.5 119.5 230.5 98.5 c 128
 225.5 77.5 219.166666667 59.5 211.5 44.5 c 128
 203.833333333 29.5 194.833333333 18 184.5 10 c 128
 174.166666667 2 161.333333333 -2 146 -2 c 0
 125.333333333 -2 107.666666667 1.83333333333 93 9.5 c 128
 78.3333333333 17.1666666667 66.3333333333 30.5 57 49.5 c 128
 47.6666666667 68.5 40.8333333333 93.6666666667 36.5 125 c 128
 32.1666666667 156.333333333 30 196 30 244 c 0
 30 282.666666667 33.1666666667 317.833333333 39.5 349.5 c 128
 45.8333333333 381.166666667 55.1666666667 408.333333333 67.5 431 c 128
 79.8333333333 453.666666667 95.6666666667 471.166666667 115 483.5 c 128
 134.333333333 495.833333333 157 502 183 502 c 0
 206.333333333 502 225.333333333 499.833333333 240 495.5 c 128
 254.666666667 491.166666667 270.666666667 482.666666667 288 470 c 1
EndSplineSet
Validated: 1
Layer: 2
Layer: 3
EndChar

StartChar: b
Encoding: 98 98 88
Width: 340
Flags: HMW
LayerCount: 4
Back
Fore
SplineSet
149 43 m 0
 163.666666667 43 177.333333333 46 190 52 c 128
 202.666666667 58 213.833333333 69 223.5 85 c 128
 233.166666667 101 240.833333333 122.666666667 246.5 150 c 128
 252.166666667 177.333333333 255 212.666666667 255 256 c 0
 255 291.333333333 254 320.833333333 252 344.5 c 128
 250 368.166666667 247 387 243 401 c 128
 239 415 233.666666667 424.833333333 227 430.5 c 128
 220.333333333 436.166666667 212.333333333 439 203 439 c 0
 191 439 179.333333333 431.666666667 168 417 c 128
 156.666666667 402.333333333 146.833333333 379.333333333 138.5 348 c 128
 130.166666667 316.666666667 123.5 276.666666667 118.5 228 c 128
 113.5 179.333333333 111 121.333333333 111 54 c 1
 117 49.3333333333 123 46.3333333333 129 45 c 128
 135 43.6666666667 141.666666667 43 149 43 c 0
50 19 m 1
 50 67 49.6666666667 120 49 178 c 128
 48.3333333333 236 47.3333333333 294.833333333 46 354.5 c 128
 44.6666666667 414.166666667 43.1666666667 472.666666667 41.5 530 c 128
 39.8333333333 587.333333333 38 639.333333333 36 686 c 1
 102 697 l 1
 102 328 l 1
 106.666666667 350.666666667 112 372.666666667 118 394 c 128
 124 415.333333333 131.5 434.166666667 140.5 450.5 c 128
 149.5 466.833333333 160.333333333 479.833333333 173 489.5 c 128
 185.666666667 499.166666667 200.666666667 504 218 504 c 0
 238.666666667 504 255.5 499.166666667 268.5 489.5 c 128
 281.5 479.833333333 291.833333333 465 299.5 445 c 128
 307.166666667 425 312.333333333 399.833333333 315 369.5 c 128
 317.666666667 339.166666667 319 303.666666667 319 263 c 0
 319 223.666666667 315.5 187.5 308.5 154.5 c 128
 301.5 121.5 291 93.1666666667 277 69.5 c 128
 263 45.8333333333 246 27.3333333333 226 14 c 128
 206 0.666666666667 183 -6 157 -6 c 0
 133.666666667 -6 114.333333333 -4.16666666667 99 -0.5 c 128
 83.6666666667 3.16666666667 67.3333333333 9.66666666667 50 19 c 1
EndSplineSet
Validated: 1
Layer: 2
Layer: 3
EndChar

StartChar: c
Encoding: 99 99 89
Width: 253
Flags: HMW
LayerCount: 4
Back
Fore
SplineSet
223 433 m 1
 215.666666667 435.666666667 206.666666667 439 196 443 c 128
 185.333333333 447 174.666666667 449 164 449 c 0
 138.666666667 449 120.166666667 430.833333333 108.5 394.5 c 128
 96.8333333333 358.166666667 91 307.666666667 91 243 c 0
 91 225 91.5 206.833333333 92.5 188.5 c 128
 93.5 170.166666667 95.3333333333 152.666666667 98 136 c 128
 100.666666667 119.333333333 104.666666667 104.5 110 91.5 c 128
 115.333333333 78.5 122 68.3333333333 130 61 c 0
 134.666666667 57 141.333333333 54.3333333333 150 53 c 128
 158.666666667 51.6666666667 167.833333333 51.3333333333 177.5 52 c 128
 187.166666667 52.6666666667 196.333333333 54.1666666667 205 56.5 c 128
 213.666666667 58.8333333333 221 61.3333333333 227 64 c 1
 246 18 l 1
 230.666666667 9.33333333333 215.166666667 3 199.5 -1 c 128
 183.833333333 -5 170.333333333 -7 159 -7 c 0
 139 -7 121 -3.16666666667 105 4.5 c 128
 89 12.1666666667 75.5 25.3333333333 64.5 44 c 128
 53.5 62.6666666667 45 87.1666666667 39 117.5 c 128
 33 147.833333333 30 186 30 232 c 0
 30 289.333333333 33.1666666667 335.666666667 39.5 371 c 128
 45.8333333333 406.333333333 55 433.833333333 67 453.5 c 128
 79 473.166666667 94.1666666667 486.5 112.5 493.5 c 128
 130.833333333 500.5 152 504 176 504 c 0
 189.333333333 504 201.833333333 502.166666667 213.5 498.5 c 128
 225.166666667 494.833333333 234.333333333 489.333333333 241 482 c 1
 223 433 l 1
EndSplineSet
Validated: 1
Layer: 2
Layer: 3
EndChar

StartChar: d
Encoding: 100 100 90
Width: 340
Flags: HMW
LayerCount: 4
Back
Fore
SplineSet
177 447 m 0
 151 447 130.666666667 428.666666667 116 392 c 128
 101.333333333 355.333333333 94 294 94 208 c 0
 94 152 98 113.166666667 106 91.5 c 128
 114 69.8333333333 127 59 145 59 c 0
 171 59 191.333333333 89 206 149 c 128
 220.666666667 209 228.666666667 304 230 434 c 1
 224 439.333333333 216.333333333 442.833333333 207 444.5 c 128
 197.666666667 446.166666667 187.666666667 447 177 447 c 0
238 -6 m 1
 239 151 l 1
 229.666666667 95.6666666667 216.333333333 56.3333333333 199 33 c 128
 181.666666667 9.66666666667 162.333333333 -2 141 -2 c 0
 122.333333333 -2 106 1.5 92 8.5 c 128
 78 15.5 66.5 28.1666666667 57.5 46.5 c 128
 48.5 64.8333333333 41.6666666667 89.6666666667 37 121 c 128
 32.3333333333 152.333333333 30 192.666666667 30 242 c 0
 30 280.666666667 33.1666666667 315.666666667 39.5 347 c 128
 45.8333333333 378.333333333 55.1666666667 405 67.5 427 c 128
 79.8333333333 449 95.6666666667 466 115 478 c 128
 134.333333333 490 157 496 183 496 c 0
 203 496 219.333333333 494.666666667 232 492 c 1
 232 512 231.666666667 538.666666667 231 572 c 128
 230.333333333 605.333333333 229 643.666666667 227 687 c 1
 294 698 l 1
 292.666666667 640 291.833333333 579.666666667 291.5 517 c 128
 291.166666667 454.333333333 291.333333333 392.666666667 292 332 c 128
 292.666666667 271.333333333 293.833333333 213 295.5 157 c 128
 297.166666667 101 299.333333333 50.6666666667 302 6 c 1
 238 -6 l 1
EndSplineSet
Validated: 33
Layer: 2
Layer: 3
EndChar

StartChar: e
Encoding: 101 101 91
Width: 295
Flags: HMW
LayerCount: 4
Back
Fore
SplineSet
99 298 m 1
 97.6666666667 284 96.8333333333 270 96.5 256 c 128
 96.1666666667 242 96 230.666666667 96 222 c 0
 96 189.333333333 98 161.833333333 102 139.5 c 128
 106 117.166666667 111.833333333 99 119.5 85 c 128
 127.166666667 71 136.166666667 60.8333333333 146.5 54.5 c 128
 156.833333333 48.1666666667 168.666666667 45 182 45 c 0
 186 45 191.333333333 45.5 198 46.5 c 128
 204.666666667 47.5 211.833333333 48.8333333333 219.5 50.5 c 128
 227.166666667 52.1666666667 234.833333333 54 242.5 56 c 128
 250.166666667 58 257 60 263 62 c 1
 275 18 l 1
 261.666666667 10.6666666667 246 4.83333333333 228 0.5 c 128
 210 -3.83333333333 192 -6 174 -6 c 0
 152 -6 132.166666667 -1.5 114.5 7.5 c 128
 96.8333333333 16.5 81.8333333333 31 69.5 51 c 128
 57.1666666667 71 47.5 97.3333333333 40.5 130 c 128
 33.5 162.666666667 30 203 30 251 c 0
 30 277 32 304.666666667 36 334 c 128
 40 363.333333333 47.5 390.5 58.5 415.5 c 128
 69.5 440.5 84.3333333333 461.333333333 103 478 c 128
 121.666666667 494.666666667 146 503 176 503 c 0
 210 503 234.5 492 249.5 470 c 128
 264.5 448 272 416 272 374 c 0
 272 370.666666667 271.833333333 366.166666667 271.5 360.5 c 128
 271.166666667 354.833333333 270.666666667 348.5 270 341.5 c 128
 269.333333333 334.5 268.333333333 327.333333333 267 320 c 128
 265.666666667 312.666666667 264 306 262 300 c 1
 99 298 l 1
 99 298 l 1
167 445 m 0
 150.333333333 445 136 435.5 124 416.5 c 128
 112 397.5 104.666666667 373.333333333 102 344 c 1
 215 343 l 1
 214.333333333 383 209.166666667 410 199.5 424 c 128
 189.833333333 438 179 445 167 445 c 0
EndSplineSet
Validated: 5
Layer: 2
Layer: 3
EndChar

StartChar: f
Encoding: 102 102 92
Width: 241
Flags: HMW
LayerCount: 4
Back
Fore
SplineSet
227 497 m 1
 229 443 l 1
 11 432 l 1
 10 489 l 1
 227 497 l 1
70 553 m 0
 70 602.333333333 78.8333333333 637.833333333 96.5 659.5 c 128
 114.166666667 681.166666667 140.666666667 692 176 692 c 0
 199.333333333 692 220 689.666666667 238 685 c 128
 256 680.333333333 267 676.333333333 271 673 c 1
 259 618 l 1
 243 622.666666667 229.666666667 626 219 628 c 128
 208.333333333 630 195 631 179 631 c 0
 163.666666667 631 151.833333333 623.833333333 143.5 609.5 c 128
 135.166666667 595.166666667 131 571 131 537 c 0
 131 511.666666667 131.333333333 477.833333333 132 435.5 c 128
 132.666666667 393.166666667 133.833333333 347.333333333 135.5 298 c 128
 137.166666667 248.666666667 139 198 141 146 c 128
 143 94 145.333333333 46 148 2 c 1
 84 -4 l 1
 82 44 80.1666666667 95.6666666667 78.5 151 c 128
 76.8333333333 206.333333333 75.3333333333 260 74 312 c 128
 72.6666666667 364 71.6666666667 411.333333333 71 454 c 128
 70.3333333333 496.666666667 70 529.666666667 70 553 c 0
EndSplineSet
Validated: 5
Layer: 2
Layer: 3
EndChar

StartChar: g
Encoding: 103 103 93
Width: 333
Flags: HMW
LayerCount: 4
Back
Fore
SplineSet
239 20 m 0
 239 34 239 34 239 71.5 c 128
 239 96.5 238.666666667 127 238 163 c 1
 234.666666667 145 231.166666667 125.833333333 227.5 105.5 c 128
 223.833333333 85.1666666667 218.5 66.6666666667 211.5 50 c 128
 204.5 33.3333333333 195.5 19.5 184.5 8.5 c 128
 173.5 -2.5 159.666666667 -8 143 -8 c 0
 121.666666667 -8 103.833333333 -4 89.5 4 c 128
 75.1666666667 12 63.6666666667 26 55 46 c 128
 46.3333333333 66 40 93.3333333333 36 128 c 128
 32 162.666666667 30 206.666666667 30 260 c 0
 30 343.333333333 42 404.5 66 443.5 c 128
 90 482.5 129 502 183 502 c 0
 195 502 205.333333333 501.5 214 500.5 c 128
 222.666666667 499.5 230.833333333 497.833333333 238.5 495.5 c 128
 246.166666667 493.166666667 253.5 490 260.5 486 c 128
 267.5 482 275.666666667 476.666666667 285 470 c 1
 285.666666667 422 286.666666667 374 288 326 c 128
 289.333333333 278 290.833333333 232.333333333 292.5 189 c 128
 294.166666667 145.666666667 295.5 105.166666667 296.5 67.5 c 128
 297.5 29.8333333333 298 -2.66666666667 298 -30 c 0
 298 -58 296.333333333 -79.6666666667 293 -95 c 128
 289.666666667 -110.333333333 283.333333333 -123.666666667 274 -135 c 0
 260.666666667 -151.666666667 242.833333333 -163.333333333 220.5 -170 c 128
 198.166666667 -176.666666667 174.333333333 -180 149 -180 c 0
 131.666666667 -180 115.166666667 -179.166666667 99.5 -177.5 c 128
 83.8333333333 -175.833333333 67.6666666667 -173.333333333 51 -170 c 1
 62 -109 l 1
 82 -113.666666667 101.333333333 -116.666666667 120 -118 c 128
 138.666666667 -119.333333333 153.333333333 -120 164 -120 c 0
 182 -120 196.333333333 -118.666666667 207 -116 c 128
 217.666666667 -113.333333333 225.666666667 -105.333333333 231 -92 c 0
 235 -82.6666666667 237.333333333 -69 238 -51 c 128
 238.666666667 -33 239 -9.33333333333 239 20 c 0
178 448 m 0
 162.666666667 448 149.666666667 443.666666667 139 435 c 128
 128.333333333 426.333333333 119.666666667 412.5 113 393.5 c 128
 106.333333333 374.5 101.5 349.833333333 98.5 319.5 c 128
 95.5 289.166666667 94 252.333333333 94 209 c 0
 94 154.333333333 97.1666666667 115 103.5 91 c 128
 109.833333333 67 122.666666667 55 142 55 c 0
 154.666666667 55 165.833333333 61.5 175.5 74.5 c 128
 185.166666667 87.5 193.166666667 108.666666667 199.5 138 c 128
 205.833333333 167.333333333 211 205.666666667 215 253 c 128
 219 300.333333333 222 358.666666667 224 428 c 1
 218 433.333333333 211.666666667 438 205 442 c 128
 198.333333333 446 189.333333333 448 178 448 c 0
EndSplineSet
Validated: 1
Layer: 2
Layer: 3
EndChar

StartChar: h
Encoding: 104 104 94
Width: 340
Flags: HMW
LayerCount: 4
Back
Fore
SplineSet
45 -3 m 1
 45 45 44.8333333333 99 44.5 159 c 128
 44.1666666667 219 43.6666666667 280.166666667 43 342.5 c 128
 42.3333333333 404.833333333 41.5 465.833333333 40.5 525.5 c 128
 39.5 585.166666667 38 638.666666667 36 686 c 1
 101 697 l 1
 102 308 l 1
 106.666666667 336 112.166666667 361.833333333 118.5 385.5 c 128
 124.833333333 409.166666667 132.5 429.5 141.5 446.5 c 128
 150.5 463.5 161.333333333 476.666666667 174 486 c 128
 186.666666667 495.333333333 201.666666667 500 219 500 c 0
 237 500 251.833333333 496.833333333 263.5 490.5 c 128
 275.166666667 484.166666667 284.5 473.666666667 291.5 459 c 128
 298.5 444.333333333 303.666666667 424.666666667 307 400 c 128
 310.333333333 375.333333333 312.5 344.5 313.5 307.5 c 128
 314.5 270.5 315 226.833333333 315 176.5 c 128
 315 126.166666667 315.333333333 67.6666666667 316 1 c 1
 250 -4 l 1
 250 132 250 132 250 217.5 c 128
 250 274.5 248.833333333 319 246.5 351 c 128
 244.166666667 383 240 404.666666667 234 416 c 128
 228 427.333333333 218.666666667 433 206 433 c 256
 193.333333333 433 181.333333333 425.166666667 170 409.5 c 128
 158.666666667 393.833333333 148.833333333 369 140.5 335 c 128
 132.166666667 301 125.333333333 256.833333333 120 202.5 c 128
 114.666666667 148.166666667 111.333333333 82 110 4 c 1
 45 -3 l 1
 45 -3 l 1
EndSplineSet
Validated: 5
Layer: 2
Layer: 3
EndChar

StartChar: i
Encoding: 105 105 95
Width: 177
Flags: HMW
LayerCount: 4
Back
Fore
SplineSet
137 649 m 0
 137 635.666666667 132 623 122 611 c 128
 112 599 98.6666666667 593 82 593 c 0
 67.3333333333 593 56.6666666667 596.666666667 50 604 c 128
 43.3333333333 611.333333333 40 621.333333333 40 634 c 0
 40 647.333333333 44.3333333333 660.166666667 53 672.5 c 128
 61.6666666667 684.833333333 76 691 96 691 c 0
 109.333333333 691 119.5 686.833333333 126.5 678.5 c 128
 133.5 670.166666667 137 660.333333333 137 649 c 0
124 501 m 1
 124.666666667 453 125.333333333 409 126 369 c 128
 126.666666667 329 127.5 289.833333333 128.5 251.5 c 128
 129.5 213.166666667 130.666666667 174.166666667 132 134.5 c 128
 133.333333333 94.8333333333 135 51.3333333333 137 4 c 1
 68 -7 l 1
 69.3333333333 77 68.8333333333 160.5 66.5 243.5 c 128
 64.1666666667 326.5 61.3333333333 410 58 494 c 1
 124 501 l 1
 124 501 l 1
EndSplineSet
Validated: 37
Layer: 2
Layer: 3
EndChar

StartChar: j
Encoding: 106 106 96
Width: 205
Flags: HMW
LayerCount: 4
Back
Fore
SplineSet
76 -24 m 0
 76 14 75.5 54.5 74.5 97.5 c 128
 73.5 140.5 72.1666666667 184.5 70.5 229.5 c 128
 68.8333333333 274.5 67 319.333333333 65 364 c 128
 63 408.666666667 60.6666666667 452 58 494 c 1
 124 501 l 1
 125.333333333 382.333333333 127.666666667 278.666666667 131 190 c 128
 134.333333333 101.333333333 136 27 136 -33 c 0
 136 -63 132.666666667 -87.5 126 -106.5 c 128
 119.333333333 -125.5 110.333333333 -140.5 99 -151.5 c 128
 87.6666666667 -162.5 74.6666666667 -170 60 -174 c 128
 45.3333333333 -178 29.6666666667 -180 13 -180 c 0
 -0.333333333333 -180 -14.1666666667 -179.166666667 -28.5 -177.5 c 128
 -42.8333333333 -175.833333333 -56.6666666667 -173.666666667 -70 -171 c 1
 -62 -110 l 1
 -46.6666666667 -113.333333333 -33.8333333333 -115.833333333 -23.5 -117.5 c 128
 -13.1666666667 -119.166666667 -3 -120 7 -120 c 0
 20.3333333333 -120 31.3333333333 -119 40 -117 c 128
 48.6666666667 -115 55.6666666667 -110.5 61 -103.5 c 128
 66.3333333333 -96.5 70.1666666667 -86.8333333333 72.5 -74.5 c 128
 74.8333333333 -62.1666666667 76 -45.3333333333 76 -24 c 0
137 649 m 0
 137 635.666666667 132 623 122 611 c 128
 112 599 98.6666666667 593 82 593 c 0
 67.3333333333 593 56.6666666667 596.666666667 50 604 c 128
 43.3333333333 611.333333333 40 621.333333333 40 634 c 0
 40 647.333333333 44.3333333333 660.166666667 53 672.5 c 128
 61.6666666667 684.833333333 76 691 96 691 c 0
 109.333333333 691 119.5 686.833333333 126.5 678.5 c 128
 133.5 670.166666667 137 660.333333333 137 649 c 0
EndSplineSet
Validated: 1
Layer: 2
Layer: 3
EndChar

StartChar: k
Encoding: 107 107 97
Width: 342
Flags: HMW
LayerCount: 4
Back
Fore
SplineSet
118 695 m 1
 118.666666667 643.666666667 119.333333333 596.5 120 553.5 c 128
 120.666666667 510.5 121.5 470.166666667 122.5 432.5 c 128
 123.5 394.833333333 124.5 359 125.5 325 c 128
 126.5 291 127.666666667 257 129 223 c 128
 130.333333333 189 131.666666667 154.166666667 133 118.5 c 128
 134.333333333 82.8333333333 135.666666667 44.6666666667 137 4 c 1
 68 -7 l 1
 68 54.3333333333 67.6666666667 112.166666667 67 166.5 c 128
 66.3333333333 220.833333333 65.5 275.166666667 64.5 329.5 c 128
 63.5 383.833333333 61.8333333333 440 59.5 498 c 128
 57.1666666667 556 54.3333333333 619.333333333 51 688 c 1
 118 695 l 1
 118 695 l 1
121 254 m 1
 129.666666667 268.666666667 139.5 287.5 150.5 310.5 c 128
 161.5 333.5 172.333333333 357 183 381 c 128
 193.666666667 405 203.666666667 428.166666667 213 450.5 c 128
 222.333333333 472.833333333 229.333333333 491 234 505 c 1
 296 483 l 1
 286.666666667 461.666666667 277.166666667 442 267.5 424 c 128
 257.833333333 406 248.166666667 388.833333333 238.5 372.5 c 128
 228.833333333 356.166666667 219.166666667 339.666666667 209.5 323 c 128
 199.833333333 306.333333333 190.666666667 288.666666667 182 270 c 1
 203.333333333 230.666666667 228.166666667 189.833333333 256.5 147.5 c 128
 284.833333333 105.166666667 313.333333333 65 342 27 c 1
 287 -16 l 1
 277 -2 264.666666667 16.6666666667 250 40 c 128
 235.333333333 63.3333333333 220.333333333 88 205 114 c 128
 189.666666667 140 174.5 165.5 159.5 190.5 c 128
 144.5 215.5 131.666666667 236.666666667 121 254 c 1
EndSplineSet
Validated: 5
Layer: 2
Layer: 3
EndChar

StartChar: l
Encoding: 108 108 98
Width: 177
Flags: HMW
LayerCount: 4
Back
Fore
SplineSet
118 695 m 1
 118.666666667 643.666666667 119.333333333 596.5 120 553.5 c 128
 120.666666667 510.5 121.5 470.166666667 122.5 432.5 c 128
 123.5 394.833333333 124.5 359 125.5 325 c 128
 126.5 291 127.666666667 257 129 223 c 128
 130.333333333 189 131.666666667 154.166666667 133 118.5 c 128
 134.333333333 82.8333333333 135.666666667 44.6666666667 137 4 c 1
 68 -7 l 1
 68 54.3333333333 67.6666666667 112.166666667 67 166.5 c 128
 66.3333333333 220.833333333 65.5 275.166666667 64.5 329.5 c 128
 63.5 383.833333333 61.8333333333 440 59.5 498 c 128
 57.1666666667 556 54.3333333333 619.333333333 51 688 c 1
 118 695 l 1
 118 695 l 1
EndSplineSet
Validated: 5
Layer: 2
Layer: 3
EndChar

StartChar: m
Encoding: 109 109 99
Width: 535
Flags: HMW
LayerCount: 4
Back
Fore
SplineSet
500 1 m 1
 434 -5 l 1
 434.666666667 85.6666666667 435.166666667 159.5 435.5 216.5 c 128
 435.833333333 273.5 435 318 433 350 c 128
 431 382 427 403.833333333 421 415.5 c 128
 415 427.166666667 405.666666667 433 393 433 c 256
 380.333333333 433 368.833333333 425 358.5 409 c 128
 348.166666667 393 339.166666667 367.833333333 331.5 333.5 c 128
 323.833333333 299.166666667 317.833333333 254.666666667 313.5 200 c 128
 309.166666667 145.333333333 306.333333333 79 305 1 c 1
 241 -5 l 1
 241.666666667 85.6666666667 241.833333333 159.5 241.5 216.5 c 128
 241.166666667 273.5 239.666666667 318 237 350 c 128
 234.333333333 382 230 403.833333333 224 415.5 c 128
 218 427.166666667 209.333333333 433 198 433 c 0
 185.333333333 433 173.833333333 425.166666667 163.5 409.5 c 128
 153.166666667 393.833333333 144.166666667 368.833333333 136.5 334.5 c 128
 128.833333333 300.166666667 122.833333333 255.833333333 118.5 201.5 c 128
 114.166666667 147.166666667 111.333333333 81 110 3 c 1
 46 -3 l 1
 46 45 45.8333333333 88.8333333333 45.5 128.5 c 128
 45.1666666667 168.166666667 44.5 207 43.5 245 c 128
 42.5 283 41 321.666666667 39 361 c 128
 37 400.333333333 34.6666666667 443.666666667 32 491 c 1
 97 502 l 1
 98 308 l 1
 102.666666667 336 108 361.833333333 114 385.5 c 128
 120 409.166666667 127.166666667 429.5 135.5 446.5 c 128
 143.833333333 463.5 154.166666667 476.666666667 166.5 486 c 128
 178.833333333 495.333333333 193.666666667 500 211 500 c 0
 227 500 240.166666667 496.333333333 250.5 489 c 128
 260.833333333 481.666666667 269.166666667 471.166666667 275.5 457.5 c 128
 281.833333333 443.833333333 286.666666667 427 290 407 c 128
 293.333333333 387 296 364 298 338 c 1
 300 354.666666667 303.5 372.5 308.5 391.5 c 128
 313.5 410.5 320.333333333 428 329 444 c 128
 337.666666667 460 348.333333333 473.333333333 361 484 c 128
 373.666666667 494.666666667 388.666666667 500 406 500 c 0
 433.333333333 500 453.5 492.666666667 466.5 478 c 128
 479.5 463.333333333 488.333333333 437.333333333 493 400 c 128
 497.666666667 362.666666667 499.833333333 311.833333333 499.5 247.5 c 128
 499.166666667 183.166666667 499.333333333 101 500 1 c 1
EndSplineSet
Validated: 33
Layer: 2
Layer: 3
EndChar

StartChar: n
Encoding: 110 110 100
Width: 340
Flags: HMW
LayerCount: 4
Back
Fore
SplineSet
46 -3 m 1
 46 45 45.8333333333 88.8333333333 45.5 128.5 c 128
 45.1666666667 168.166666667 44.5 207 43.5 245 c 128
 42.5 283 41 321.666666667 39 361 c 128
 37 400.333333333 34.6666666667 443.666666667 32 491 c 1
 97 502 l 1
 98 308 l 1
 102.666666667 336 108 361.833333333 114 385.5 c 128
 120 409.166666667 127.166666667 429.5 135.5 446.5 c 128
 143.833333333 463.5 154.166666667 476.666666667 166.5 486 c 128
 178.833333333 495.333333333 193.666666667 500 211 500 c 0
 237.666666667 500 257.5 492.666666667 270.5 478 c 128
 283.5 463.333333333 292.5 437.333333333 297.5 400 c 128
 302.5 362.666666667 304.833333333 311.833333333 304.5 247.5 c 128
 304.166666667 183.166666667 304.333333333 101 305 1 c 1
 239 -5 l 1
 239.666666667 85.6666666667 240.166666667 159.5 240.5 216.5 c 128
 240.833333333 273.5 240 318 238 350 c 128
 236 382 232 403.833333333 226 415.5 c 128
 220 427.166666667 210.666666667 433 198 433 c 256
 185.333333333 433 173.833333333 425.166666667 163.5 409.5 c 128
 153.166666667 393.833333333 144.166666667 368.833333333 136.5 334.5 c 128
 128.833333333 300.166666667 122.833333333 255.833333333 118.5 201.5 c 128
 114.166666667 147.166666667 111.333333333 81 110 3 c 1
 46 -3 l 1
 46 -3 l 1
EndSplineSet
Validated: 37
Layer: 2
Layer: 3
EndChar

StartChar: o
Encoding: 111 111 101
Width: 308
Flags: HMW
LayerCount: 4
Back
Fore
SplineSet
162 503 m 0
 190 503 212 494.333333333 228 477 c 128
 244 459.666666667 255.833333333 437.833333333 263.5 411.5 c 128
 271.166666667 385.166666667 276 356.666666667 278 326 c 128
 280 295.333333333 281 266.666666667 281 240 c 0
 281 210 279.666666667 180.333333333 277 151 c 128
 274.333333333 121.666666667 268.333333333 95.1666666667 259 71.5 c 128
 249.666666667 47.8333333333 236.166666667 28.6666666667 218.5 14 c 128
 200.833333333 -0.666666666667 177 -8 147 -8 c 0
 105.666666667 -8 75.8333333333 12 57.5 52 c 128
 39.1666666667 92 30 156 30 244 c 0
 30 278 32.1666666667 310.5 36.5 341.5 c 128
 40.8333333333 372.5 48.1666666667 400 58.5 424 c 128
 68.8333333333 448 82.5 467.166666667 99.5 481.5 c 128
 116.5 495.833333333 137.333333333 503 162 503 c 0
215 247 m 0
 215 285 214 316.666666667 212 342 c 128
 210 367.333333333 206.666666667 387.666666667 202 403 c 128
 197.333333333 418.333333333 191.5 429.166666667 184.5 435.5 c 128
 177.5 441.833333333 168.666666667 445 158 445 c 0
 144.666666667 445 133.833333333 439.666666667 125.5 429 c 128
 117.166666667 418.333333333 110.5 404 105.5 386 c 128
 100.5 368 97 347.5 95 324.5 c 128
 93 301.5 92 277.666666667 92 253 c 0
 92 185.666666667 97 135.166666667 107 101.5 c 128
 117 67.8333333333 134.333333333 51 159 51 c 256
 183.666666667 51 199.166666667 67 205.5 99 c 128
 211.833333333 131 215 180.333333333 215 247 c 0
EndSplineSet
Validated: 1
Layer: 2
Layer: 3
EndChar

StartChar: p
Encoding: 112 112 102
Width: 340
Flags: HMW
LayerCount: 4
Back
Fore
SplineSet
158 49 m 0
 186.666666667 49 207.666666667 67.5 221 104.5 c 128
 234.333333333 141.5 241 200.333333333 241 281 c 0
 241 312.333333333 240 338.333333333 238 359 c 128
 236 379.666666667 232.833333333 396.166666667 228.5 408.5 c 128
 224.166666667 420.833333333 218.666666667 429.5 212 434.5 c 128
 205.333333333 439.5 197.333333333 442 188 442 c 0
 176 442 164.666666667 434.666666667 154 420 c 128
 143.333333333 405.333333333 134.333333333 382.666666667 127 352 c 128
 119.666666667 321.333333333 113.833333333 282 109.5 234 c 128
 105.166666667 186 103 129 103 63 c 1
 110.333333333 57.6666666667 119.166666667 54 129.5 52 c 128
 139.833333333 50 149.333333333 49 158 49 c 0
97 505 m 1
 96 348 l 1
 105.333333333 403.333333333 119.333333333 443 138 467 c 128
 156.666666667 491 177 503 199 503 c 0
 217.666666667 503 233.666666667 499.333333333 247 492 c 128
 260.333333333 484.666666667 271.333333333 471.666666667 280 453 c 128
 288.666666667 434.333333333 295 409 299 377 c 128
 303 345 305 304.666666667 305 256 c 0
 305 217.333333333 301.833333333 182.333333333 295.5 151 c 128
 289.166666667 119.666666667 279.833333333 92.8333333333 267.5 70.5 c 128
 255.166666667 48.1666666667 239.333333333 30.8333333333 220 18.5 c 128
 200.666666667 6.16666666667 178 0 152 0 c 0
 132 0 115.666666667 1.33333333333 103 4 c 1
 103 -16 103.333333333 -40 104 -68 c 128
 104.666666667 -96 106 -131.666666667 108 -175 c 1
 41 -186 l 1
 42.3333333333 -128 43.3333333333 -68.3333333333 44 -7 c 128
 44.6666666667 54.3333333333 44.6666666667 114.5 44 173.5 c 128
 43.3333333333 232.5 42 289.166666667 40 343.5 c 128
 38 397.833333333 35.3333333333 447.666666667 32 493 c 1
 97 505 l 1
EndSplineSet
Validated: 33
Layer: 2
Layer: 3
EndChar

StartChar: q
Encoding: 113 113 103
Width: 340
Flags: HMW
LayerCount: 4
Back
Fore
SplineSet
177 453 m 0
 151 453 130.666666667 433.666666667 116 395 c 128
 101.333333333 356.333333333 94 296.666666667 94 216 c 0
 94 184.666666667 95 158.833333333 97 138.5 c 128
 99 118.166666667 102.166666667 102.166666667 106.5 90.5 c 128
 110.833333333 78.8333333333 116.333333333 70.6666666667 123 66 c 128
 129.666666667 61.3333333333 137.666666667 59 147 59 c 0
 159 59 169.333333333 65.8333333333 178 79.5 c 128
 186.666666667 93.1666666667 194 115.333333333 200 146 c 128
 206 176.666666667 210.666666667 216 214 264 c 128
 217.333333333 312 220 370.666666667 222 440 c 1
 216 445.333333333 209.833333333 448.833333333 203.5 450.5 c 128
 197.166666667 452.166666667 188.333333333 453 177 453 c 0
288 472 m 1
 288.666666667 424.666666667 289.5 372.166666667 290.5 314.5 c 128
 291.5 256.833333333 292.5 198.666666667 293.5 140 c 128
 294.5 81.3333333333 295.833333333 24.8333333333 297.5 -29.5 c 128
 299.166666667 -83.8333333333 301.333333333 -131.333333333 304 -172 c 1
 241 -184 l 1
 245 169 l 1
 240.333333333 143 235.333333333 119.5 230 98.5 c 128
 224.666666667 77.5 218.333333333 59.5 211 44.5 c 128
 203.666666667 29.5 194.5 18 183.5 10 c 128
 172.5 2 159.333333333 -2 144 -2 c 0
 124 -2 106.833333333 1.83333333333 92.5 9.5 c 128
 78.1666666667 17.1666666667 66.3333333333 30.1666666667 57 48.5 c 128
 47.6666666667 66.8333333333 40.8333333333 91.6666666667 36.5 123 c 128
 32.1666666667 154.333333333 30 194 30 242 c 0
 30 280.666666667 33.1666666667 316 39.5 348 c 128
 45.8333333333 380 55.1666666667 407.5 67.5 430.5 c 128
 79.8333333333 453.5 95.6666666667 471.5 115 484.5 c 128
 134.333333333 497.5 157 504 183 504 c 0
 205.666666667 504 224.5 501.833333333 239.5 497.5 c 128
 254.5 493.166666667 270.666666667 484.666666667 288 472 c 1
EndSplineSet
Validated: 1
Layer: 2
Layer: 3
EndChar

StartChar: r
Encoding: 114 114 104
Width: 268
Flags: HMW
LayerCount: 4
Back
Fore
SplineSet
236 502 m 0
 241.333333333 502 247.166666667 501.666666667 253.5 501 c 128
 259.833333333 500.333333333 264.666666667 498.666666667 268 496 c 1
 256 425 l 1
 246 425.666666667 237.333333333 425.5 230 424.5 c 128
 222.666666667 423.5 216 421 210 417 c 0
 203.333333333 413 196.666666667 405.666666667 190 395 c 128
 183.333333333 384.333333333 177 372.5 171 359.5 c 128
 165 346.5 159.666666667 333.333333333 155 320 c 128
 150.333333333 306.666666667 147 295 145 285 c 0
 140.333333333 263.666666667 136 241.166666667 132 217.5 c 128
 128 193.833333333 124.5 170.666666667 121.5 148 c 128
 118.5 125.333333333 116.166666667 104.333333333 114.5 85 c 128
 112.833333333 65.6666666667 112 49.6666666667 112 37 c 2
 112 16 l 2
 112 12 112.333333333 7.66666666667 113 3 c 1
 51 -3 l 1
 51 28.3333333333 51.1666666667 63.1666666667 51.5 101.5 c 128
 51.8333333333 139.833333333 51.6666666667 180.166666667 51 222.5 c 128
 50.3333333333 264.833333333 49 308.333333333 47 353 c 128
 45 397.666666667 42 442.666666667 38 488 c 1
 103 498 l 1
 107 291 l 1
 111 318.333333333 116.166666667 344.666666667 122.5 370 c 128
 128.833333333 395.333333333 137 417.833333333 147 437.5 c 128
 157 457.166666667 169.333333333 472.833333333 184 484.5 c 128
 198.666666667 496.166666667 216 502 236 502 c 0
EndSplineSet
Validated: 33
Layer: 2
Layer: 3
EndChar

StartChar: s
Encoding: 115 115 105
Width: 280
Flags: HMW
LayerCount: 4
Back
Fore
SplineSet
216 443 m 1
 202 445 190.166666667 446.5 180.5 447.5 c 128
 170.833333333 448.5 161 449 151 449 c 0
 138.333333333 449 127.166666667 446.5 117.5 441.5 c 128
 107.833333333 436.5 103 426.666666667 103 412 c 0
 103 402 103.833333333 393.166666667 105.5 385.5 c 128
 107.166666667 377.833333333 110.166666667 369.833333333 114.5 361.5 c 128
 118.833333333 353.166666667 124.5 343.666666667 131.5 333 c 128
 138.5 322.333333333 147 309 157 293 c 0
 171.666666667 271 184.666666667 251.666666667 196 235 c 128
 207.333333333 218.333333333 217 202.833333333 225 188.5 c 128
 233 174.166666667 239 160.166666667 243 146.5 c 128
 247 132.833333333 249 118.666666667 249 104 c 0
 249 82 245.166666667 63.8333333333 237.5 49.5 c 128
 229.833333333 35.1666666667 219.833333333 23.8333333333 207.5 15.5 c 128
 195.166666667 7.16666666667 181.166666667 1.16666666667 165.5 -2.5 c 128
 149.833333333 -6.16666666667 134 -8 118 -8 c 0
 98 -8 82.3333333333 -7.16666666667 71 -5.5 c 128
 59.6666666667 -3.83333333333 47.3333333333 -0.333333333333 34 5 c 1
 42 55 l 1
 55.3333333333 52.3333333333 66.8333333333 50.3333333333 76.5 49 c 128
 86.1666666667 47.6666666667 98 47 112 47 c 0
 122.666666667 47 132.666666667 47.6666666667 142 49 c 128
 151.333333333 50.3333333333 159.333333333 52.8333333333 166 56.5 c 128
 172.666666667 60.1666666667 177.833333333 65.5 181.5 72.5 c 128
 185.166666667 79.5 187 88.6666666667 187 100 c 0
 187 110.666666667 185.5 120.833333333 182.5 130.5 c 128
 179.5 140.166666667 175 150.166666667 169 160.5 c 128
 163 170.833333333 155.666666667 182.333333333 147 195 c 128
 138.333333333 207.666666667 128.333333333 222.666666667 117 240 c 0
 107 254.666666667 97.5 268.5 88.5 281.5 c 128
 79.5 294.5 71.3333333333 307.5 64 320.5 c 128
 56.6666666667 333.5 50.8333333333 347.333333333 46.5 362 c 128
 42.1666666667 376.666666667 40 393 40 411 c 0
 40 433.666666667 48.5 454.5 65.5 473.5 c 128
 82.5 492.5 109 502.333333333 145 503 c 0
 161 503 174 502.666666667 184 502 c 128
 194 501.333333333 207.666666667 499.333333333 225 496 c 1
 216 443 l 1
EndSplineSet
Validated: 1
Layer: 2
Layer: 3
EndChar

StartChar: t
Encoding: 116 116 106
Width: 276
Flags: HMW
LayerCount: 4
Back
Fore
SplineSet
164 623 m 1
 164.666666667 571.666666667 165.333333333 526.333333333 166 487 c 128
 166.666666667 447.666666667 167.333333333 411.833333333 168 379.5 c 128
 168.666666667 347.166666667 169.333333333 317 170 289 c 128
 170.666666667 261 171.333333333 232.666666667 172 204 c 128
 172.666666667 175.333333333 173.666666667 145 175 113 c 128
 176.333333333 81 177.666666667 44.6666666667 179 4 c 1
 110 -7 l 1
 110 54 110 54 110 105 c 128
 110 139 109.833333333 171.5 109.5 202.5 c 128
 109.166666667 233.5 108.833333333 263.833333333 108.5 293.5 c 128
 108.166666667 323.166666667 107.5 354.333333333 106.5 387 c 128
 105.5 419.666666667 104.166666667 454.5 102.5 491.5 c 128
 100.833333333 528.5 99 570 97 616 c 1
 164 623 l 1
 164 623 l 1
273 499 m 1
 276 445 l 1
 1 430 l 1
 0 487 l 1
 273 499 l 1
EndSplineSet
Validated: 5
Layer: 2
Layer: 3
EndChar

StartChar: u
Encoding: 117 117 107
Width: 340
Flags: HMW
LayerCount: 4
Back
Fore
SplineSet
292 502 m 1
 292.666666667 454 293.333333333 410 294 370 c 128
 294.666666667 330 295.5 290.833333333 296.5 252.5 c 128
 297.5 214.166666667 298.666666667 175.166666667 300 135.5 c 128
 301.333333333 95.8333333333 303 52.3333333333 305 5 c 1
 242 -7 l 1
 245 187 l 1
 240.333333333 160.333333333 235.5 135.5 230.5 112.5 c 128
 225.5 89.5 219.333333333 69.5 212 52.5 c 128
 204.666666667 35.5 195.333333333 22 184 12 c 128
 172.666666667 2 158.333333333 -3 141 -3 c 0
 113.666666667 -3 92.8333333333 4 78.5 18 c 128
 64.1666666667 32 53.8333333333 57.5 47.5 94.5 c 128
 41.1666666667 131.5 37.5 182.166666667 36.5 246.5 c 128
 35.5 310.833333333 34.6666666667 393.333333333 34 494 c 1
 103 500 l 1
 103 409.333333333 102.666666667 335.333333333 102 278 c 128
 101.333333333 220.666666667 101.833333333 175.833333333 103.5 143.5 c 128
 105.166666667 111.166666667 109 89.1666666667 115 77.5 c 128
 121 65.8333333333 130.333333333 60 143 60 c 0
 156.333333333 60 168 67.1666666667 178 81.5 c 128
 188 95.8333333333 196.333333333 119.833333333 203 153.5 c 128
 209.666666667 187.166666667 214.833333333 231.833333333 218.5 287.5 c 128
 222.166666667 343.166666667 224.666666667 412.333333333 226 495 c 1
 292 502 l 1
 292 502 l 1
EndSplineSet
Validated: 37
Layer: 2
Layer: 3
EndChar

StartChar: v
Encoding: 118 118 108
Width: 276
Flags: HMW
LayerCount: 4
Back
Fore
SplineSet
145 112 m 1
 150.333333333 144 155.666666667 175.5 161 206.5 c 128
 166.333333333 237.5 171.666666667 268.833333333 177 300.5 c 128
 182.333333333 332.166666667 187.666666667 364.5 193 397.5 c 128
 198.333333333 430.5 203.666666667 464.666666667 209 500 c 1
 277 497 l 1
 271.666666667 475.666666667 265.833333333 450.5 259.5 421.5 c 128
 253.166666667 392.5 246.5 361.833333333 239.5 329.5 c 128
 232.5 297.166666667 225.666666667 264.333333333 219 231 c 128
 212.333333333 197.666666667 206.166666667 166.333333333 200.5 137 c 128
 194.833333333 107.666666667 189.833333333 81.1666666667 185.5 57.5 c 128
 181.166666667 33.8333333333 178 15.6666666667 176 3 c 1
 104 -3 l 1
 100 28.3333333333 94.5 64.3333333333 87.5 105 c 128
 80.5 145.666666667 72.8333333333 188 64.5 232 c 128
 56.1666666667 276 47.3333333333 320.5 38 365.5 c 128
 28.6666666667 410.5 19.6666666667 453.333333333 11 494 c 1
 76 504 l 1
 85.3333333333 439.333333333 96.1666666667 374 108.5 308 c 128
 120.833333333 242 133 176.666666667 145 112 c 1
EndSplineSet
Validated: 1
Layer: 2
Layer: 3
EndChar

StartChar: w
Encoding: 119 119 109
Width: 470
Flags: HMW
LayerCount: 4
Back
Fore
SplineSet
145 107 m 1
 150.333333333 139 155.833333333 169.166666667 161.5 197.5 c 128
 167.166666667 225.833333333 172.666666667 254.333333333 178 283 c 128
 183.333333333 311.666666667 188.833333333 341.166666667 194.5 371.5 c 128
 200.166666667 401.833333333 205.666666667 434.666666667 211 470 c 1
 272 473 l 1
 281.333333333 408.333333333 291.666666667 346.833333333 303 288.5 c 128
 314.333333333 230.166666667 326 168.666666667 338 104 c 1
 351.333333333 166.666666667 362.666666667 230.166666667 372 294.5 c 128
 381.333333333 358.833333333 389.666666667 426.666666667 397 498 c 1
 469 495 l 1
 464.333333333 473.666666667 459 448.5 453 419.5 c 128
 447 390.5 440.666666667 360 434 328 c 128
 427.333333333 296 420.5 263.5 413.5 230.5 c 128
 406.5 197.5 400.166666667 166.333333333 394.5 137 c 128
 388.833333333 107.666666667 383.833333333 81.3333333333 379.5 58 c 128
 375.166666667 34.6666666667 372 16.6666666667 370 4 c 1
 352 1 352 1 334 -2 c 128
 322 -4 310 -5.66666666667 298 -7 c 1
 294.666666667 15.6666666667 290.833333333 40.6666666667 286.5 68 c 128
 282.166666667 95.3333333333 277.333333333 123.833333333 272 153.5 c 128
 266.666666667 183.166666667 261 213.666666667 255 245 c 128
 249 276.333333333 243 307.333333333 237 338 c 1
 230.333333333 305.333333333 223.833333333 272 217.5 238 c 128
 211.166666667 204 205.166666667 171.666666667 199.5 141 c 128
 193.833333333 110.333333333 189 82.8333333333 185 58.5 c 128
 181 34.1666666667 178 15.6666666667 176 3 c 1
 104 -3 l 1
 100 28.3333333333 94.5 64.3333333333 87.5 105 c 128
 80.5 145.666666667 72.8333333333 188 64.5 232 c 128
 56.1666666667 276 47.3333333333 320.5 38 365.5 c 128
 28.6666666667 410.5 19.6666666667 453.333333333 11 494 c 1
 76 504 l 1
 85.3333333333 439.333333333 96.1666666667 373.166666667 108.5 305.5 c 128
 120.833333333 237.833333333 133 171.666666667 145 107 c 1
EndSplineSet
Validated: 1
Layer: 2
Layer: 3
EndChar

StartChar: x
Encoding: 120 120 110
Width: 299
Flags: HMW
LayerCount: 4
Back
Fore
SplineSet
149 309 m 1
 159 339 169 372.333333333 179 409 c 128
 189 445.666666667 198 478 206 506 c 1
 271 492 l 1
 255.666666667 448.666666667 240.833333333 407.333333333 226.5 368 c 128
 212.166666667 328.666666667 199 290 187 252 c 1
 204.333333333 212.666666667 222 174.833333333 240 138.5 c 128
 258 102.166666667 277.666666667 63.6666666667 299 23 c 1
 241 -13 l 1
 229.666666667 17 215.833333333 50.3333333333 199.5 87 c 128
 183.166666667 123.666666667 167 159 151 193 c 1
 141 163.666666667 131 130.833333333 121 94.5 c 128
 111 58.1666666667 101.333333333 23.6666666667 92 -9 c 1
 26 2 l 1
 40 41.3333333333 54.1666666667 81.8333333333 68.5 123.5 c 128
 82.8333333333 165.166666667 97.6666666667 207.666666667 113 251 c 1
 97 289 80.1666666667 328 62.5 368 c 128
 44.8333333333 408 27.3333333333 445.333333333 10 480 c 1
 70 515 l 1
 82 483.666666667 95 449 109 411 c 128
 123 373 136.333333333 339 149 309 c 1
EndSplineSet
Validated: 1
Layer: 2
Layer: 3
EndChar

StartChar: y
Encoding: 121 121 111
Width: 340
Flags: HMW
LayerCount: 4
Back
Fore
SplineSet
247 -6 m 0
 247 18.6666666667 246.666666667 47 246 79 c 128
 245.333333333 111 245 147 245 187 c 1
 240.333333333 160.333333333 235.5 135.5 230.5 112.5 c 128
 225.5 89.5 219.333333333 69.5 212 52.5 c 128
 204.666666667 35.5 195.333333333 22 184 12 c 128
 172.666666667 2 158.333333333 -3 141 -3 c 0
 113.666666667 -3 93 4.16666666667 79 18.5 c 128
 65 32.8333333333 54.8333333333 58.6666666667 48.5 96 c 128
 42.1666666667 133.333333333 38.5 184 37.5 248 c 128
 36.5 312 35.6666666667 394 35 494 c 1
 101 500 l 1
 100.333333333 409.333333333 99.6666666667 335.333333333 99 278 c 128
 98.3333333333 220.666666667 99 175.833333333 101 143.5 c 128
 103 111.166666667 107.166666667 89.1666666667 113.5 77.5 c 128
 119.833333333 65.8333333333 129.666666667 60 143 60 c 256
 156.333333333 60 168 67.1666666667 178 81.5 c 128
 188 95.8333333333 196.5 119.833333333 203.5 153.5 c 128
 210.5 187.166666667 216 231.833333333 220 287.5 c 128
 224 343.166666667 226.666666667 412.333333333 228 495 c 1
 291 502 l 1
 291.666666667 446 292.833333333 392.166666667 294.5 340.5 c 128
 296.166666667 288.833333333 297.666666667 240.166666667 299 194.5 c 128
 300.333333333 148.833333333 301.666666667 106.833333333 303 68.5 c 128
 304.333333333 30.1666666667 305 -3.33333333333 305 -32 c 0
 305 -84.6666666667 294.166666667 -122.5 272.5 -145.5 c 128
 250.833333333 -168.5 213.666666667 -180 161 -180 c 0
 143.666666667 -180 125.666666667 -179.166666667 107 -177.5 c 128
 88.3333333333 -175.833333333 69 -173.333333333 49 -170 c 1
 60 -109 l 1
 95.3333333333 -116.333333333 131.333333333 -120 168 -120 c 0
 185.333333333 -120 199.166666667 -118.5 209.5 -115.5 c 128
 219.833333333 -112.5 227.833333333 -106.666666667 233.5 -98 c 128
 239.166666667 -89.3333333333 242.833333333 -77.6666666667 244.5 -63 c 128
 246.166666667 -48.3333333333 247 -29.3333333333 247 -6 c 0
EndSplineSet
Validated: 33
Layer: 2
Layer: 3
EndChar

StartChar: z
Encoding: 122 122 112
Width: 272
Flags: HMW
LayerCount: 4
Back
Fore
SplineSet
245 459 m 1
 233.666666667 429.666666667 221.166666667 396.666666667 207.5 360 c 128
 193.833333333 323.333333333 180.333333333 286.5 167 249.5 c 128
 153.666666667 212.5 141.166666667 176.833333333 129.5 142.5 c 128
 117.833333333 108.166666667 108 78.3333333333 100 53 c 1
 112 53 125 53.1666666667 139 53.5 c 128
 160 54 160 54 181 54.5 c 128
 195 54.8333333333 208.166666667 55.1666666667 220.5 55.5 c 128
 232.833333333 55.8333333333 243.333333333 56.3333333333 252 57 c 1
 250 0 l 1
 28 -1 l 1
 25 39 l 1
 41 77.6666666667 56 114 70 148 c 128
 84 182 97 215 109 247 c 128
 121 279 132.5 310.833333333 143.5 342.5 c 128
 154.5 374.166666667 165 407 175 441 c 1
 167 441 167 441 149.5 441 c 128
 137.833333333 441 125.166666667 440.833333333 111.5 440.5 c 128
 97.8333333333 440.166666667 83.8333333333 439.833333333 69.5 439.5 c 128
 55.1666666667 439.166666667 42.6666666667 438.666666667 32 438 c 1
 30 497 l 1
 240 497 l 1
 245 459 l 1
 245 459 l 1
EndSplineSet
Validated: 5
Layer: 2
Layer: 3
EndChar

StartChar: braceleft
Encoding: 123 123 113
Width: 325
Flags: HMW
LayerCount: 4
Back
Fore
SplineSet
258 -106 m 1
 226 -106 198 -101.833333333 174 -93.5 c 128
 150 -85.1666666667 130.166666667 -74.3333333333 114.5 -61 c 128
 98.8333333333 -47.6666666667 87 -32.6666666667 79 -16 c 128
 71 0.666666666667 67 17.6666666667 67 35 c 0
 67 51 70.5 65.6666666667 77.5 79 c 128
 84.5 92.3333333333 92.1666666667 105 100.5 117 c 128
 108.833333333 129 116.5 141 123.5 153 c 128
 130.5 165 134 178.333333333 134 193 c 0
 134 205.666666667 126.333333333 214.333333333 111 219 c 128
 95.6666666667 223.666666667 78.6666666667 227.666666667 60 231 c 0
 52.6666666667 232.333333333 46.1666666667 236.166666667 40.5 242.5 c 128
 34.8333333333 248.833333333 32 256 32 264 c 2
 32 270 l 2
 32 278 34.8333333333 285.166666667 40.5 291.5 c 128
 46.1666666667 297.833333333 52.6666666667 301.666666667 60 303 c 0
 78.6666666667 306.333333333 95.6666666667 310.333333333 111 315 c 128
 126.333333333 319.666666667 134 328.333333333 134 341 c 0
 134 355.666666667 130.5 369 123.5 381 c 128
 116.5 393 108.833333333 405 100.5 417 c 128
 92.1666666667 429 84.5 441.666666667 77.5 455 c 128
 70.5 468.333333333 67 483 67 499 c 0
 67 516.333333333 71 533.333333333 79 550 c 128
 87 566.666666667 98.8333333333 581.666666667 114.5 595 c 128
 130.166666667 608.333333333 150 619.166666667 174 627.5 c 128
 198 635.833333333 226 640 258 640 c 2
 278 640 l 2
 287.333333333 640 295.166666667 636.833333333 301.5 630.5 c 128
 307.833333333 624.166666667 311 616.333333333 311 607 c 256
 311 597.666666667 307.833333333 589.833333333 301.5 583.5 c 128
 295.166666667 577.166666667 287.333333333 574 278 574 c 2
 258 574 l 2
 240.666666667 574 224.5 572.166666667 209.5 568.5 c 128
 194.5 564.833333333 181.333333333 559.833333333 170 553.5 c 128
 158.666666667 547.166666667 149.666666667 539.333333333 143 530 c 128
 136.333333333 520.666666667 133 510.333333333 133 499 c 0
 133 483 136.5 468.333333333 143.5 455 c 128
 150.5 441.666666667 158.166666667 429 166.5 417 c 128
 174.833333333 405 182.5 393 189.5 381 c 128
 196.5 369 200 355.666666667 200 341 c 0
 200 327 197 313.666666667 191 301 c 128
 185 288.333333333 174.333333333 277 159 267 c 1
 174.333333333 257 185 245.666666667 191 233 c 128
 197 220.333333333 200 207 200 193 c 0
 200 178.333333333 196.5 165 189.5 153 c 128
 182.5 141 174.833333333 129 166.5 117 c 128
 158.166666667 105 150.5 92.3333333333 143.5 79 c 128
 136.5 65.6666666667 133 51 133 35 c 0
 133 23.6666666667 136.333333333 13.3333333333 143 4 c 128
 149.666666667 -5.33333333333 158.666666667 -13.1666666667 170 -19.5 c 128
 181.333333333 -25.8333333333 194.5 -30.8333333333 209.5 -34.5 c 128
 224.5 -38.1666666667 240.666666667 -40 258 -40 c 2
 278 -40 l 2
 287.333333333 -40 295.166666667 -43.1666666667 301.5 -49.5 c 128
 307.833333333 -55.8333333333 311 -63.6666666667 311 -73 c 256
 311 -82.3333333333 307.833333333 -90.1666666667 301.5 -96.5 c 128
 295.166666667 -102.833333333 287.333333333 -106 278 -106 c 2
 258 -106 l 1
 258 -106 l 1
EndSplineSet
Validated: 5
Layer: 2
Layer: 3
EndChar

StartChar: bar
Encoding: 124 124 114
Width: 310
Flags: HMW
LayerCount: 4
Back
Fore
SplineSet
155 572 m 256
 164.333333333 572 172.166666667 568.833333333 178.5 562.5 c 128
 184.833333333 556.166666667 188 548.333333333 188 539 c 2
 188 -74 l 2
 188 -83.3333333333 184.833333333 -91.1666666667 178.5 -97.5 c 128
 172.166666667 -103.833333333 164.333333333 -107 155 -107 c 256
 145.666666667 -107 137.833333333 -103.833333333 131.5 -97.5 c 128
 125.166666667 -91.1666666667 122 -83.3333333333 122 -74 c 2
 122 539 l 2
 122 548.333333333 125.166666667 556.166666667 131.5 562.5 c 128
 137.833333333 568.833333333 145.666666667 572 155 572 c 256
EndSplineSet
Validated: 1
Layer: 2
Layer: 3
EndChar

StartChar: braceright
Encoding: 125 125 115
Width: 325
Flags: HMW
LayerCount: 4
Back
Fore
SplineSet
47 -106 m 2
 37.6666666667 -106 29.8333333333 -102.833333333 23.5 -96.5 c 128
 17.1666666667 -90.1666666667 14 -82.3333333333 14 -73 c 256
 14 -63.6666666667 17.1666666667 -55.8333333333 23.5 -49.5 c 128
 29.8333333333 -43.1666666667 37.6666666667 -40 47 -40 c 2
 67 -40 l 2
 83.6666666667 -40 99.6666666667 -38.1666666667 115 -34.5 c 128
 130.333333333 -30.8333333333 143.666666667 -25.8333333333 155 -19.5 c 128
 166.333333333 -13.1666666667 175.333333333 -5.33333333333 182 4 c 128
 188.666666667 13.3333333333 192 23.6666666667 192 35 c 0
 192 51 188.5 65.6666666667 181.5 79 c 128
 174.5 92.3333333333 166.833333333 105 158.5 117 c 128
 150.166666667 129 142.5 141 135.5 153 c 128
 128.5 165 125 178.333333333 125 193 c 0
 125 207 128 220.333333333 134 233 c 128
 140 245.666666667 150.666666667 257 166 267 c 1
 150.666666667 277 140 288.333333333 134 301 c 128
 128 313.666666667 125 327 125 341 c 0
 125 355.666666667 128.5 369 135.5 381 c 128
 142.5 393 150.166666667 405 158.5 417 c 128
 166.833333333 429 174.5 441.666666667 181.5 455 c 128
 188.5 468.333333333 192 483 192 499 c 0
 192 510.333333333 188.666666667 520.666666667 182 530 c 128
 175.333333333 539.333333333 166.333333333 547.166666667 155 553.5 c 128
 143.666666667 559.833333333 130.333333333 564.833333333 115 568.5 c 128
 99.6666666667 572.166666667 83.6666666667 574 67 574 c 2
 47 574 l 2
 37.6666666667 574 29.8333333333 577.166666667 23.5 583.5 c 128
 17.1666666667 589.833333333 14 597.666666667 14 607 c 256
 14 616.333333333 17.1666666667 624.166666667 23.5 630.5 c 128
 29.8333333333 636.833333333 37.6666666667 640 47 640 c 2
 67 640 l 2
 99 640 127 635.833333333 151 627.5 c 128
 175 619.166666667 194.833333333 608.333333333 210.5 595 c 128
 226.166666667 581.666666667 238 566.666666667 246 550 c 128
 254 533.333333333 258 516.333333333 258 499 c 0
 258 483 254.5 468.333333333 247.5 455 c 128
 240.5 441.666666667 232.833333333 429 224.5 417 c 128
 216.166666667 405 208.5 393 201.5 381 c 128
 194.5 369 191 355.666666667 191 341 c 0
 191 328.333333333 198.666666667 319.666666667 214 315 c 128
 229.333333333 310.333333333 246.333333333 306.333333333 265 303 c 0
 272.333333333 301.666666667 278.833333333 297.833333333 284.5 291.5 c 128
 290.166666667 285.166666667 293 278 293 270 c 2
 293 264 l 2
 293 256 290.166666667 248.833333333 284.5 242.5 c 128
 278.833333333 236.166666667 272.333333333 232.333333333 265 231 c 0
 246.333333333 227.666666667 229.333333333 223.666666667 214 219 c 128
 198.666666667 214.333333333 191 205.666666667 191 193 c 0
 191 178.333333333 194.5 165 201.5 153 c 128
 208.5 141 216.166666667 129 224.5 117 c 128
 232.833333333 105 240.5 92.3333333333 247.5 79 c 128
 254.5 65.6666666667 258 51 258 35 c 0
 258 17.6666666667 254 0.666666666667 246 -16 c 128
 238 -32.6666666667 226.166666667 -47.6666666667 210.5 -61 c 128
 194.833333333 -74.3333333333 175 -85.1666666667 151 -93.5 c 128
 127 -101.833333333 99 -106 67 -106 c 2
 47 -106 l 2
EndSplineSet
Validated: 1
Layer: 2
Layer: 3
EndChar

StartChar: asciitilde
Encoding: 126 126 116
Width: 565
Flags: HMW
LayerCount: 4
Back
Fore
SplineSet
92 181 m 0
 84 185 78.5 191.5 75.5 200.5 c 128
 72.5 209.5 73 218 77 226 c 0
 97.6666666667 268 118.333333333 297.833333333 139 315.5 c 128
 159.666666667 333.166666667 182 342 206 342 c 0
 227.333333333 342 245.666666667 336.333333333 261 325 c 128
 276.333333333 313.666666667 292.666666667 298.333333333 310 279 c 0
 320 267.666666667 329.333333333 257.833333333 338 249.5 c 128
 346.666666667 241.166666667 356.666666667 237 368 237 c 0
 376.666666667 237 384.333333333 239.166666667 391 243.5 c 128
 397.666666667 247.833333333 403.833333333 254 409.5 262 c 128
 415.166666667 270 420.666666667 279.5 426 290.5 c 128
 431.333333333 301.5 437.333333333 313.666666667 444 327 c 0
 448 335 454.333333333 340.5 463 343.5 c 128
 471.666666667 346.5 480 346.333333333 488 343 c 0
 496 339 501.666666667 332.666666667 505 324 c 128
 508.333333333 315.333333333 508 307 504 299 c 0
 481.333333333 251.666666667 459.666666667 218.5 439 199.5 c 128
 418.333333333 180.5 394.666666667 171 368 171 c 0
 348.666666667 171 330.666666667 176.333333333 314 187 c 128
 297.333333333 197.666666667 279.333333333 213.666666667 260 235 c 0
 251.333333333 245 243.166666667 254.333333333 235.5 263 c 128
 227.833333333 271.666666667 218 276 206 276 c 0
 190.666666667 276 178.166666667 268.5 168.5 253.5 c 128
 158.833333333 238.5 148.333333333 219.333333333 137 196 c 0
 133 188 126.5 182.666666667 117.5 180 c 128
 108.5 177.333333333 100 177.666666667 92 181 c 0
EndSplineSet
Validated: 1
Layer: 2
Layer: 3
EndChar

StartChar: Adieresis
Encoding: 196 196 117
Width: 568
Flags: HMW
LayerCount: 4
Back
Fore
SplineSet
388 205 m 1
 370.666666667 245 352.5 285.833333333 333.5 327.5 c 128
 314.5 369.166666667 296 409.333333333 278 448 c 1
 260.666666667 409.333333333 243.166666667 369.166666667 225.5 327.5 c 128
 207.833333333 285.833333333 190.333333333 245 173 205 c 1
 388 205 l 1
 388 205 l 1
511 -4 m 256
 502.333333333 -7.33333333333 493.833333333 -7.16666666667 485.5 -3.5 c 128
 477.166666667 0.166666666667 471.333333333 6.33333333333 468 15 c 0
 460.666666667 32.3333333333 452.833333333 51.5 444.5 72.5 c 128
 436.166666667 93.5 427 115.666666667 417 139 c 1
 146 139 l 1
 136.666666667 115.666666667 128 93.6666666667 120 73 c 128
 112 52.3333333333 104.666666667 33.3333333333 98 16 c 0
 94.6666666667 7.33333333333 89 1 81 -3 c 128
 73 -7 64.6666666667 -7.33333333333 56 -4 c 256
 47.3333333333 -0.666666666667 41 5 37 13 c 128
 33 21 32.6666666667 29.3333333333 36 38 c 0
 47.3333333333 70 61.5 106.5 78.5 147.5 c 128
 95.5 188.5 113.5 231.333333333 132.5 276 c 128
 151.5 320.666666667 170.833333333 365.333333333 190.5 410 c 128
 210.166666667 454.666666667 228.333333333 496 245 534 c 0
 248.333333333 540.666666667 252.833333333 545.666666667 258.5 549 c 128
 264.166666667 552.333333333 270.333333333 554 277 554 c 0
 284.333333333 554.666666667 291 553.333333333 297 550 c 128
 303 546.666666667 307.666666667 541.666666667 311 535 c 0
 329 496.333333333 348.333333333 454.5 369 409.5 c 128
 389.666666667 364.5 409.833333333 319.666666667 429.5 275 c 128
 449.166666667 230.333333333 467.833333333 187.5 485.5 146.5 c 128
 503.166666667 105.5 518 69.6666666667 530 39 c 0
 533.333333333 30.3333333333 533.166666667 21.8333333333 529.5 13.5 c 128
 525.833333333 5.16666666667 519.666666667 -0.666666666667 511 -4 c 256
171 663 m 256
 171 659 171.833333333 656.5 173.5 655.5 c 128
 175.166666667 654.5 177 654 179 654 c 128
 181 654 183 654.5 185 655.5 c 128
 187 656.5 188.333333333 657 189 657 c 0
 190.333333333 657 193 656.666666667 197 656 c 128
 201 655.333333333 203 657.666666667 203 663 c 256
 203 668.333333333 201.166666667 671 197.5 671 c 128
 192 671 192 671 189 671 c 0
 188.333333333 671 187 671.333333333 185 672 c 128
 183 672.666666667 181 673 179 673 c 128
 177 673 175.166666667 672.333333333 173.5 671 c 128
 171.833333333 669.666666667 171 667 171 663 c 256
364 663 m 256
 364 659 364.833333333 656.5 366.5 655.5 c 128
 368.166666667 654.5 370 654 372 654 c 128
 374 654 376 654.5 378 655.5 c 128
 380 656.5 381.333333333 657 382 657 c 0
 383.333333333 657 386.166666667 656.666666667 390.5 656 c 128
 394.833333333 655.333333333 397 657.666666667 397 663 c 0
 397 669 395 671.833333333 391 671.5 c 128
 387 671.166666667 384 671 382 671 c 0
 381.333333333 671 380 671.333333333 378 672 c 128
 376 672.666666667 374 673 372 673 c 128
 370 673 368.166666667 672.333333333 366.5 671 c 128
 364.833333333 669.666666667 364 667 364 663 c 256
137 663 m 0
 137 681 142.666666667 695.5 154 706.5 c 128
 165.333333333 717.5 177 723 189 723 c 0
 200.333333333 723 211.166666667 718.333333333 221.5 709 c 128
 231.833333333 699.666666667 237 684.333333333 237 663 c 0
 237 640.333333333 231.833333333 625 221.5 617 c 128
 211.166666667 609 200.333333333 605 189 605 c 0
 175.666666667 605 163.666666667 609.833333333 153 619.5 c 128
 142.333333333 629.166666667 137 643.666666667 137 663 c 0
331 663 m 0
 331 681.666666667 336.5 696.333333333 347.5 707 c 128
 358.5 717.666666667 370 723 382 723 c 0
 393.333333333 723 404.166666667 718.333333333 414.5 709 c 128
 424.833333333 699.666666667 430 684.333333333 430 663 c 0
 430 640.333333333 424.833333333 625 414.5 617 c 128
 404.166666667 609 393.333333333 605 382 605 c 0
 368.666666667 605 356.833333333 609.666666667 346.5 619 c 128
 336.166666667 628.333333333 331 643 331 663 c 0
EndSplineSet
Validated: 5
Layer: 2
Layer: 3
EndChar

StartChar: Aring
Encoding: 197 197 118
Width: 568
Flags: HMW
LayerCount: 4
Back
Fore
SplineSet
388 205 m 1
 370.666666667 245 352.5 285.833333333 333.5 327.5 c 128
 314.5 369.166666667 296 409.333333333 278 448 c 1
 260.666666667 409.333333333 243.166666667 369.166666667 225.5 327.5 c 128
 207.833333333 285.833333333 190.333333333 245 173 205 c 1
 388 205 l 1
 388 205 l 1
511 -4 m 256
 502.333333333 -7.33333333333 493.833333333 -7.16666666667 485.5 -3.5 c 128
 477.166666667 0.166666666667 471.333333333 6.33333333333 468 15 c 0
 460.666666667 32.3333333333 452.833333333 51.5 444.5 72.5 c 128
 436.166666667 93.5 427 115.666666667 417 139 c 1
 146 139 l 1
 136.666666667 115.666666667 128 93.6666666667 120 73 c 128
 112 52.3333333333 104.666666667 33.3333333333 98 16 c 0
 94.6666666667 7.33333333333 89 1 81 -3 c 128
 73 -7 64.6666666667 -7.33333333333 56 -4 c 256
 47.3333333333 -0.666666666667 41 5 37 13 c 128
 33 21 32.6666666667 29.3333333333 36 38 c 0
 47.3333333333 70 61.5 106.5 78.5 147.5 c 128
 95.5 188.5 113.5 231.333333333 132.5 276 c 128
 151.5 320.666666667 170.833333333 365.333333333 190.5 410 c 128
 210.166666667 454.666666667 228.333333333 496 245 534 c 0
 248.333333333 540.666666667 252.833333333 545.666666667 258.5 549 c 128
 264.166666667 552.333333333 270.333333333 554 277 554 c 0
 284.333333333 554.666666667 291 553.333333333 297 550 c 128
 303 546.666666667 307.666666667 541.666666667 311 535 c 0
 329 496.333333333 348.333333333 454.5 369 409.5 c 128
 389.666666667 364.5 409.833333333 319.666666667 429.5 275 c 128
 449.166666667 230.333333333 467.833333333 187.5 485.5 146.5 c 128
 503.166666667 105.5 518 69.6666666667 530 39 c 0
 533.333333333 30.3333333333 533.166666667 21.8333333333 529.5 13.5 c 128
 525.833333333 5.16666666667 519.666666667 -0.666666666667 511 -4 c 256
280 655 m 256
 295.333333333 655 308.166666667 659.333333333 318.5 668 c 128
 328.833333333 676.666666667 334 687.333333333 334 700 c 256
 334 712.666666667 328.833333333 723.333333333 318.5 732 c 128
 308.166666667 740.666666667 295.333333333 745 280 745 c 256
 264.666666667 745 252.333333333 740.333333333 243 731 c 128
 233.666666667 721.666666667 229 711.333333333 229 700 c 256
 229 688.666666667 233.666666667 678.333333333 243 669 c 128
 252.333333333 659.666666667 264.666666667 655 280 655 c 256
280 811 m 0
 299.333333333 811 316.5 807.833333333 331.5 801.5 c 128
 346.5 795.166666667 359 786.833333333 369 776.5 c 128
 379 766.166666667 386.666666667 754.333333333 392 741 c 128
 397.333333333 727.666666667 400 714 400 700 c 256
 400 686 397.333333333 672.333333333 392 659 c 128
 386.666666667 645.666666667 379 633.833333333 369 623.5 c 128
 359 613.166666667 346.5 604.833333333 331.5 598.5 c 128
 316.5 592.166666667 299.333333333 589 280 589 c 0
 261.333333333 589 244.833333333 592.333333333 230.5 599 c 128
 216.166666667 605.666666667 204 614.166666667 194 624.5 c 128
 184 634.833333333 176.333333333 646.666666667 171 660 c 128
 165.666666667 673.333333333 163 686.666666667 163 700 c 256
 163 713.333333333 165.666666667 726.666666667 171 740 c 128
 176.333333333 753.333333333 184 765.166666667 194 775.5 c 128
 204 785.833333333 216.166666667 794.333333333 230.5 801 c 128
 244.833333333 807.666666667 261.333333333 811 280 811 c 0
EndSplineSet
Validated: 5
Layer: 2
Layer: 3
EndChar

